{"glyphs":{"0":{"ha":903,"x_min":0,"x_max":0,"o":"m 151 542 b 451 35 151 224 250 35 b 751 542 653 35 751 224 b 451 1049 751 860 653 1049 b 151 542 250 1049 151 860 m 806 542 b 451 -14 806 201 689 -14 b 97 542 214 -14 97 201 b 451 1097 97 882 214 1097 b 806 542 689 1097 806 882 "},"1":{"ha":903,"x_min":0,"x_max":0,"o":"m 771 0 l 118 0 l 118 49 l 425 49 l 425 1013 b 104 794 425 1013 313 860 l 104 847 b 438 1097 297 908 438 1097 l 479 1097 l 479 49 l 771 49 "},"2":{"ha":903,"x_min":0,"x_max":0,"o":"m 78 36 b 535 369 78 36 386 221 b 749 761 686 519 749 632 b 451 1049 749 914 643 1049 b 150 744 261 1049 163 929 l 99 744 b 451 1096 114 958 222 1096 b 803 764 669 1096 803 946 b 568 336 803 615 729 489 b 172 49 431 206 233 85 l 829 49 l 829 0 l 78 0 "},"3":{"ha":903,"x_min":0,"x_max":0,"o":"m 457 -12 b 88 339 222 -12 100 121 l 140 339 b 457 35 150 144 260 35 b 756 292 667 35 756 165 b 450 536 756 450 657 536 l 321 536 l 321 585 l 450 585 b 725 817 625 585 725 664 b 453 1049 725 949 625 1049 b 161 744 268 1049 171 933 l 110 744 b 453 1096 121 956 232 1096 b 779 819 651 1096 779 978 b 563 563 779 649 668 581 b 810 290 682 547 810 478 b 457 -12 810 133 693 -12 "},"4":{"ha":903,"x_min":0,"x_max":0,"o":"m 661 736 l 661 328 l 826 328 l 826 279 l 661 279 l 661 0 l 607 0 l 607 279 l 76 279 l 76 321 b 467 1083 292 521 421 769 l 521 1083 b 149 328 467 742 319 483 l 607 328 l 607 736 "},"5":{"ha":903,"x_min":0,"x_max":0,"o":"m 453 -12 b 85 339 219 -12 97 121 l 138 339 b 453 35 149 144 257 35 b 756 343 661 35 756 179 b 454 658 756 508 661 658 b 174 489 318 658 215 585 l 131 506 l 158 1083 l 765 1083 l 768 1035 l 210 1035 l 186 575 b 465 707 238 650 329 707 b 810 343 686 707 810 536 b 453 -12 810 151 690 -12 "},"6":{"ha":903,"x_min":0,"x_max":0,"o":"m 757 335 b 465 635 757 506 650 635 b 174 335 282 635 174 506 b 465 36 174 165 282 36 b 757 335 650 36 757 165 m 472 1096 b 808 744 685 1096 794 961 l 756 744 b 472 1047 743 933 653 1047 b 147 535 278 1047 147 867 b 149 435 147 504 146 469 b 471 683 178 585 293 683 b 814 335 685 683 814 531 b 467 -12 814 140 686 -12 b 96 515 256 -12 96 126 b 472 1096 96 911 253 1096 "},"7":{"ha":903,"x_min":0,"x_max":0,"o":"m 368 0 b 776 1035 368 465 560 842 l 126 1035 l 126 744 l 76 744 l 76 1083 l 847 1083 l 847 1046 b 422 0 594 815 422 460 "},"8":{"ha":903,"x_min":0,"x_max":0,"o":"m 451 582 b 707 815 628 582 707 693 b 451 1049 707 963 599 1049 b 196 815 304 1049 196 963 b 451 582 196 693 275 582 m 451 35 b 738 285 625 35 738 139 b 451 535 738 439 642 535 b 165 285 261 535 165 439 b 451 35 165 139 278 35 m 451 -14 b 111 285 232 -14 111 115 b 324 563 111 457 225 542 b 142 817 231 585 142 686 b 451 1097 142 990 274 1097 b 761 817 629 1097 761 990 b 579 563 761 686 672 585 b 792 285 678 542 792 457 b 451 -14 792 115 671 -14 "},"9":{"ha":903,"x_min":0,"x_max":0,"o":"m 424 -12 b 82 339 203 -12 96 122 l 135 339 b 424 36 147 150 239 36 b 763 597 640 36 763 226 b 761 649 763 614 763 631 b 439 400 732 499 617 400 b 96 749 225 400 96 553 b 443 1096 96 943 224 1096 b 814 568 654 1096 814 957 b 424 -12 814 168 651 -12 m 153 749 b 444 449 153 578 260 449 b 736 749 628 449 736 578 b 444 1047 736 918 628 1047 b 153 749 260 1047 153 918 "},"A":{"ha":986,"x_min":0,"x_max":0,"o":"m 735 368 l 251 368 l 114 0 l 53 0 l 464 1083 l 522 1083 l 933 0 l 872 0 m 493 1019 l 375 699 l 269 418 l 715 418 l 611 699 "},"B":{"ha":958,"x_min":0,"x_max":0,"o":"m 132 0 l 132 1083 l 549 1083 b 844 804 724 1083 844 979 b 669 561 844 651 728 578 b 881 297 761 543 881 463 b 567 0 881 115 771 0 m 574 50 b 822 297 707 50 822 131 b 574 531 822 465 679 531 l 188 531 l 188 50 m 188 1033 l 188 581 l 556 581 b 785 804 682 581 785 664 b 567 1033 785 943 690 1033 "},"C":{"ha":1214,"x_min":0,"x_max":0,"o":"m 90 542 b 635 1097 90 876 315 1097 b 1131 700 942 1097 1103 889 l 1078 700 b 635 1047 1046 869 911 1047 b 149 542 347 1047 149 851 b 635 36 149 232 347 36 b 1078 383 911 36 1046 214 l 1131 383 b 635 -14 1103 194 942 -14 b 90 542 315 -14 90 207 "},"D":{"ha":1111,"x_min":0,"x_max":0,"o":"m 1021 542 b 433 0 1021 119 749 0 l 132 0 l 132 1083 l 433 1083 b 1021 542 749 1083 1021 964 m 435 50 b 963 542 728 50 963 167 b 435 1033 963 917 728 1033 l 188 1033 l 188 50 "},"E":{"ha":979,"x_min":0,"x_max":0,"o":"m 854 1083 l 854 1033 l 188 1033 l 188 581 l 799 581 l 799 531 l 188 531 l 188 50 l 882 50 l 882 0 l 132 0 l 132 1083 "},"€":{"ha":903,"x_min":0,"x_max":0,"o":"m 169 464 b 167 542 168 489 167 515 b 169 619 167 568 168 594 l 56 619 l 56 667 l 174 667 b 549 1097 204 942 342 1097 b 843 783 743 1097 836 935 l 792 783 b 549 1049 785 936 694 1049 b 228 667 375 1049 257 914 l 701 667 l 686 619 l 224 619 b 221 542 222 594 221 568 b 224 464 221 514 222 489 l 639 464 l 624 417 l 228 417 b 549 35 257 169 375 35 b 792 300 694 35 785 147 l 843 300 b 549 -14 836 149 743 -14 b 174 417 342 -14 204 142 l 56 417 l 56 464 "},"F":{"ha":889,"x_min":0,"x_max":0,"o":"m 188 0 l 132 0 l 132 1083 l 826 1083 l 826 1033 l 188 1033 l 188 581 l 771 581 l 771 531 l 188 531 "},"G":{"ha":1228,"x_min":0,"x_max":0,"o":"m 1114 0 l 1064 0 l 1064 311 b 614 -14 1004 146 854 -14 b 90 542 310 -14 90 206 b 629 1097 90 878 308 1097 b 1117 742 908 1097 1072 919 l 1064 742 b 631 1047 1021 899 886 1047 b 149 542 342 1047 149 850 b 618 36 149 233 343 36 b 1046 433 883 36 1022 260 l 672 433 l 672 483 l 1114 483 "},"H":{"ha":1028,"x_min":0,"x_max":0,"o":"m 896 1083 l 896 0 l 840 0 l 840 531 l 188 531 l 188 0 l 132 0 l 132 1083 l 188 1083 l 188 581 l 840 581 l 840 1083 "},"I":{"ha":375,"x_min":0,"x_max":0,"o":"m 215 0 l 160 0 l 160 1083 l 215 1083 "},"J":{"ha":694,"x_min":0,"x_max":0,"o":"m 569 1083 l 569 242 b 301 -14 569 88 451 -14 b 35 224 147 -14 44 88 l 92 224 b 301 38 101 114 181 38 b 513 249 435 38 513 129 l 513 1083 "},"K":{"ha":958,"x_min":0,"x_max":0,"o":"m 188 421 l 797 1083 l 875 1083 l 419 596 l 914 0 l 840 0 l 383 557 l 188 347 l 188 0 l 132 0 l 132 1083 l 188 1083 "},"L":{"ha":826,"x_min":0,"x_max":0,"o":"m 188 50 l 799 50 l 799 0 l 132 0 l 132 1083 l 188 1083 "},"M":{"ha":1239,"x_min":0,"x_max":0,"o":"m 278 754 l 182 988 l 186 639 l 186 0 l 132 0 l 132 1083 l 199 1083 l 518 310 l 619 58 l 721 310 l 1040 1083 l 1107 1083 l 1107 0 l 1053 0 l 1053 639 l 1057 988 l 961 754 l 650 0 l 589 0 "},"N":{"ha":1042,"x_min":0,"x_max":0,"o":"m 860 69 l 857 444 l 857 1083 l 910 1083 l 910 0 l 840 0 l 182 1014 l 185 639 l 185 0 l 132 0 l 132 1083 l 201 1083 "},"O":{"ha":1281,"x_min":0,"x_max":0,"o":"m 149 542 b 640 36 149 231 365 36 b 1132 542 915 36 1132 231 b 640 1047 1132 853 915 1047 b 149 542 365 1047 149 853 m 1190 542 b 640 -14 1190 204 949 -14 b 90 542 332 -14 90 204 b 640 1097 90 879 332 1097 b 1190 542 949 1097 1190 879 "},"P":{"ha":903,"x_min":0,"x_max":0,"o":"m 538 517 b 794 775 663 517 794 585 b 538 1033 794 965 663 1033 l 188 1033 l 188 517 m 188 0 l 132 0 l 132 1083 l 515 1083 b 850 775 682 1083 850 1011 b 515 467 850 539 682 467 l 188 467 "},"Q":{"ha":1281,"x_min":0,"x_max":0,"o":"m 928 -139 l 813 10 b 640 -14 758 -6 700 -14 b 90 542 332 -14 90 204 b 640 1097 90 879 332 1097 b 1190 542 949 1097 1190 879 b 863 28 1190 290 1057 106 l 992 -139 m 149 542 b 640 36 149 231 365 36 b 779 53 689 36 735 42 l 606 278 l 669 278 l 829 69 b 1132 542 1008 139 1132 307 b 640 1047 1132 853 915 1047 b 149 542 365 1047 149 853 "},"R":{"ha":972,"x_min":0,"x_max":0,"o":"m 188 0 l 132 0 l 132 1083 l 550 1083 b 869 783 690 1083 869 1015 b 617 489 869 588 742 508 l 914 0 l 846 0 l 556 483 l 188 483 m 568 533 b 814 783 669 533 814 593 b 568 1033 814 974 669 1033 l 188 1033 l 188 533 "},"S":{"ha":906,"x_min":0,"x_max":0,"o":"m 439 1046 b 178 815 283 1046 178 951 b 465 596 178 693 257 615 b 835 296 724 572 835 467 b 456 -14 835 113 675 -14 b 69 383 210 -14 58 143 l 122 383 b 456 36 113 169 242 36 b 778 296 647 36 778 144 b 444 544 778 439 699 521 b 121 815 226 564 121 668 b 439 1096 121 979 254 1096 b 783 744 663 1096 794 963 l 731 744 b 439 1046 740 935 631 1046 "},"T":{"ha":847,"x_min":0,"x_max":0,"o":"m 451 0 l 396 0 l 396 1033 l 28 1033 l 28 1083 l 819 1083 l 819 1033 l 451 1033 "},"U":{"ha":1075,"x_min":0,"x_max":0,"o":"m 538 -14 b 111 415 244 -14 111 188 l 111 1083 l 168 1083 l 168 406 b 538 38 168 218 281 38 b 907 406 794 38 907 218 l 907 1083 l 964 1083 l 964 415 b 538 -14 964 188 831 -14 "},"V":{"ha":986,"x_min":0,"x_max":0,"o":"m 493 64 l 611 385 l 872 1083 l 933 1083 l 522 0 l 464 0 l 53 1083 l 114 1083 l 375 385 "},"W":{"ha":1514,"x_min":0,"x_max":0,"o":"m 1125 0 l 857 726 l 757 1008 l 657 726 l 388 0 l 346 0 l 17 1083 l 74 1083 l 283 389 l 369 96 l 474 389 l 731 1083 l 783 1083 l 1040 389 l 1144 96 l 1231 389 l 1440 1083 l 1497 1083 l 1168 0 "},"X":{"ha":972,"x_min":0,"x_max":0,"o":"m 453 567 l 103 1083 l 171 1083 l 399 746 l 486 617 l 574 746 l 801 1083 l 869 1083 l 519 567 l 906 0 l 835 0 l 586 372 l 486 518 l 386 372 l 138 0 l 67 0 "},"Y":{"ha":917,"x_min":0,"x_max":0,"o":"m 89 1083 l 317 719 l 458 492 l 600 719 l 828 1083 l 896 1083 l 486 440 l 486 0 l 431 0 l 431 440 l 21 1083 "},"Z":{"ha":972,"x_min":0,"x_max":0,"o":"m 271 215 l 140 47 l 417 49 l 892 49 l 892 0 l 69 0 l 69 36 l 701 868 l 832 1036 l 556 1035 l 108 1035 l 108 1083 l 903 1083 l 903 1047 "},"a":{"ha":750,"x_min":0,"x_max":0,"o":"m 99 506 b 376 750 108 646 199 750 b 654 474 563 750 654 633 l 654 0 l 610 0 l 610 213 b 300 -14 583 96 467 -14 b 75 190 165 -14 75 71 b 304 407 75 328 161 382 l 601 458 l 601 475 b 378 701 601 606 531 701 b 149 506 221 701 158 618 m 128 192 b 308 35 128 99 200 35 b 601 315 496 35 601 178 l 601 411 l 329 365 b 128 192 182 340 128 289 "},"æ":{"ha":1363,"x_min":0,"x_max":0,"o":"m 657 350 b 965 35 660 160 781 35 b 1232 200 1128 35 1206 113 l 1285 200 b 965 -14 1253 89 1156 -14 b 626 217 807 -14 678 71 b 300 -14 593 103 481 -14 b 75 190 165 -14 75 71 b 307 397 75 328 161 397 l 601 397 l 601 475 b 378 701 601 606 531 701 b 149 506 221 701 158 618 l 99 506 b 376 750 108 646 199 750 b 644 543 533 750 622 667 b 950 750 700 669 813 750 b 1297 368 1144 750 1297 589 b 1296 350 1297 358 1296 350 m 1242 397 b 950 701 1233 571 1119 701 b 658 397 779 701 665 569 m 326 350 b 128 192 176 350 128 289 b 308 35 128 99 200 35 b 601 350 514 35 617 203 "},"&":{"ha":1014,"x_min":0,"x_max":0,"o":"m 389 1097 b 646 854 544 1097 646 1001 b 397 583 646 728 554 646 b 354 565 382 578 368 571 l 731 192 b 849 542 814 299 849 439 l 903 542 b 767 154 903 432 864 274 l 924 0 l 853 0 l 733 117 b 406 -14 657 40 550 -14 b 63 285 192 -14 63 115 b 268 578 63 429 144 513 b 132 854 196 651 132 744 b 389 1097 132 1001 233 1097 m 406 35 b 697 153 532 35 628 83 l 304 540 b 117 285 200 486 117 411 b 406 35 117 124 238 35 m 186 854 b 317 603 186 760 235 686 l 379 629 b 592 854 513 683 592 746 b 389 1049 592 965 515 1049 b 186 854 263 1049 186 965 "},"*":{"ha":642,"x_min":0,"x_max":0,"o":"m 353 1083 l 339 831 l 575 922 l 594 861 l 350 796 l 510 600 l 458 563 l 321 776 l 183 563 l 132 600 l 292 796 l 47 861 l 67 922 l 303 831 l 289 1083 "},"b":{"ha":903,"x_min":0,"x_max":0,"o":"m 838 368 b 482 -14 838 131 669 -14 b 149 242 290 -14 176 122 l 149 0 l 104 0 l 104 1111 l 157 1111 l 157 522 b 482 750 186 615 290 750 b 838 368 669 750 838 606 m 157 368 b 469 35 157 136 329 35 b 785 368 626 35 785 149 b 469 701 785 588 626 701 b 157 368 329 701 157 600 "},"c":{"ha":842,"x_min":0,"x_max":0,"o":"m 65 368 b 439 750 65 606 236 750 b 783 456 665 750 764 588 l 731 456 b 439 701 715 567 639 701 b 118 368 264 701 118 574 b 439 35 118 163 264 35 b 731 281 639 35 715 169 l 783 281 b 439 -14 764 149 665 -14 b 65 368 236 -14 65 131 "},":":{"ha":314,"x_min":0,"x_max":0,"o":"m 199 35 b 157 -7 199 13 181 -7 b 115 35 133 -7 115 13 b 157 76 115 58 133 76 b 199 35 181 76 199 58 m 199 569 b 157 528 199 547 181 528 b 115 569 133 528 115 547 b 157 611 115 593 133 611 b 199 569 181 611 199 593 "},",":{"ha":314,"x_min":0,"x_max":0,"o":"m 204 19 b 54 -165 204 -83 138 -142 l 54 -124 b 157 -7 106 -112 154 -67 b 115 35 133 -7 115 13 b 157 76 115 58 133 76 b 204 19 181 76 204 54 "},"d":{"ha":903,"x_min":0,"x_max":0,"o":"m 65 368 b 421 750 65 606 233 750 b 746 522 613 750 717 615 l 746 1111 l 799 1111 l 799 0 l 754 0 l 754 242 b 421 -14 726 122 613 -14 b 65 368 233 -14 65 131 m 746 368 b 433 701 746 600 574 701 b 118 368 276 701 118 588 b 433 35 118 149 276 35 b 746 368 574 35 746 136 "},"$":{"ha":903,"x_min":0,"x_max":0,"o":"m 479 -194 l 425 -194 l 425 -12 b 86 300 179 -1 90 154 l 139 300 b 425 35 142 172 217 46 l 425 546 b 129 819 232 585 129 661 b 425 1096 129 978 244 1086 l 425 1278 l 479 1278 l 479 1096 b 778 813 707 1085 776 926 l 725 813 b 479 1047 719 921 654 1036 l 479 589 b 817 286 714 551 817 471 b 479 -12 817 124 688 -3 m 764 289 b 479 536 764 425 696 496 l 479 35 b 764 289 658 44 764 143 m 183 819 b 425 599 183 713 240 635 l 425 1047 b 183 819 308 1039 183 971 "},"e":{"ha":826,"x_min":0,"x_max":0,"o":"m 429 -14 b 65 368 222 -14 65 132 b 414 750 65 589 221 750 b 761 368 608 750 761 589 b 760 350 761 358 760 350 l 121 350 b 429 35 124 160 244 35 b 696 200 592 35 669 113 l 749 200 b 429 -14 717 89 619 -14 m 706 397 b 414 701 697 571 583 701 b 122 397 243 701 129 569 "},"=":{"ha":903,"x_min":0,"x_max":0,"o":"m 83 379 l 83 426 l 819 426 l 819 379 m 83 657 l 83 704 l 819 704 l 819 657 "},"!":{"ha":314,"x_min":0,"x_max":0,"o":"m 121 1083 l 193 1083 l 174 296 l 140 296 m 199 35 b 157 -7 199 13 181 -7 b 115 35 133 -7 115 13 b 157 76 115 58 133 76 b 199 35 181 76 199 58 "},"f":{"ha":514,"x_min":0,"x_max":0,"o":"m 239 689 l 239 0 l 186 0 l 186 689 l 49 689 l 49 736 l 186 736 l 186 953 b 364 1124 186 1051 258 1124 b 532 972 471 1124 526 1050 l 485 972 b 365 1078 481 1024 443 1078 b 239 950 285 1078 239 1024 l 239 736 l 468 736 l 468 689 "},"g":{"ha":888,"x_min":0,"x_max":0,"o":"m 731 226 b 422 14 696 111 578 14 b 65 382 228 14 65 164 b 422 750 65 600 228 750 b 738 518 581 750 708 649 l 738 736 l 783 736 l 783 22 b 429 -290 783 -172 650 -290 b 88 -75 208 -290 104 -175 l 142 -75 b 429 -243 154 -146 235 -243 b 731 22 624 -243 731 -142 m 731 382 b 428 701 731 615 557 701 b 118 382 268 701 118 586 b 428 63 118 178 268 63 b 731 382 557 63 731 149 "},"h":{"ha":819,"x_min":0,"x_max":0,"o":"m 157 1111 l 157 565 b 443 750 192 665 294 750 b 724 471 614 750 724 626 l 724 0 l 671 0 l 671 458 b 432 701 671 594 578 701 b 157 436 254 701 157 576 l 157 0 l 104 0 l 104 1111 "},"-":{"ha":500,"x_min":0,"x_max":0,"o":"m 69 442 l 69 489 l 431 489 l 431 442 "},"i":{"ha":289,"x_min":0,"x_max":0,"o":"m 186 961 b 144 919 186 938 168 919 b 103 961 121 919 103 938 b 144 1003 103 985 121 1003 b 186 961 168 1003 186 985 m 171 0 l 118 0 l 118 736 l 171 736 "},"j":{"ha":289,"x_min":0,"x_max":0,"o":"m 186 961 b 144 919 186 938 168 919 b 103 961 121 919 103 938 b 144 1003 103 985 121 1003 b 186 961 168 1003 186 985 m 171 -149 b 22 -290 171 -232 113 -290 b -119 -165 -68 -290 -114 -229 l -69 -165 b 22 -242 -65 -200 -37 -242 b 118 -144 83 -242 118 -201 l 118 736 l 171 736 "},"k":{"ha":724,"x_min":0,"x_max":0,"o":"m 104 0 l 104 1111 l 157 1111 l 157 325 l 571 736 l 646 736 l 328 425 l 699 0 l 629 0 l 292 390 l 157 258 l 157 0 "},"l":{"ha":289,"x_min":0,"x_max":0,"o":"m 118 1111 l 171 1111 l 171 0 l 118 0 "},"m":{"ha":1261,"x_min":0,"x_max":0,"o":"m 104 0 l 104 736 l 149 736 l 149 561 b 410 750 178 682 286 750 b 650 567 533 750 622 683 b 913 750 681 685 786 750 b 1161 500 1068 750 1161 639 l 1161 0 l 1108 0 l 1108 486 b 900 701 1108 610 1031 701 b 660 467 744 701 660 590 l 660 0 l 607 0 l 607 486 b 399 701 607 610 529 701 b 157 467 243 701 157 590 l 157 0 "},"n":{"ha":819,"x_min":0,"x_max":0,"o":"m 149 736 l 149 536 b 443 750 174 649 281 750 b 724 471 614 750 724 626 l 724 0 l 671 0 l 671 458 b 432 701 671 594 578 701 b 157 436 254 701 157 576 l 157 0 l 104 0 l 104 736 "},"o":{"ha":892,"x_min":0,"x_max":0,"o":"m 446 35 b 774 368 619 35 774 167 b 446 701 774 569 619 701 b 118 368 272 701 118 569 b 446 35 118 167 272 35 m 446 -14 b 65 368 246 -14 65 135 b 446 750 65 601 246 750 b 826 368 646 750 826 601 b 446 -14 826 135 646 -14 "},"p":{"ha":903,"x_min":0,"x_max":0,"o":"m 838 368 b 482 -14 838 131 669 -14 b 157 214 290 -14 186 121 l 157 -278 l 104 -278 l 104 736 l 149 736 l 149 494 b 482 750 176 614 290 750 b 838 368 669 750 838 606 m 157 368 b 469 35 157 136 329 35 b 785 368 626 35 785 149 b 469 701 785 588 626 701 b 157 368 329 701 157 600 "},"(":{"ha":486,"x_min":0,"x_max":0,"o":"m 90 472 b 385 1169 90 864 306 1094 l 419 1133 b 140 472 343 1061 140 828 b 419 -189 140 117 343 -117 l 385 -225 b 90 472 306 -150 90 81 "},")":{"ha":486,"x_min":0,"x_max":0,"o":"m 396 472 b 101 -225 396 81 181 -150 l 67 -189 b 346 472 143 -117 346 117 b 67 1133 346 828 143 1061 l 101 1169 b 396 472 181 1094 396 864 "},".":{"ha":314,"x_min":0,"x_max":0,"o":"m 199 35 b 157 -7 199 13 181 -7 b 115 35 133 -7 115 13 b 157 76 115 58 133 76 b 199 35 181 76 199 58 "},"+":{"ha":903,"x_min":0,"x_max":0,"o":"m 428 518 l 83 518 l 83 565 l 428 565 l 428 910 l 475 910 l 475 565 l 819 565 l 819 518 l 475 518 l 475 174 l 428 174 "},"q":{"ha":903,"x_min":0,"x_max":0,"o":"m 65 368 b 421 750 65 606 233 750 b 754 494 613 750 726 614 l 754 736 l 799 736 l 799 -278 l 746 -278 l 746 214 b 421 -14 717 121 613 -14 b 65 368 233 -14 65 131 m 746 368 b 433 701 746 600 574 701 b 118 368 276 701 118 588 b 433 35 118 149 276 35 b 746 368 574 35 746 136 "},"?":{"ha":764,"x_min":0,"x_max":0,"o":"m 328 332 b 618 788 451 418 618 561 b 374 1049 618 944 514 1049 b 129 783 207 1049 131 919 l 74 783 b 374 1097 75 940 160 1097 b 672 793 572 1097 672 947 b 343 282 672 550 503 388 m 393 35 b 351 -7 393 13 375 -7 b 310 35 328 -7 310 13 b 351 76 310 58 328 76 b 393 35 375 76 393 58 "},"\"":{"ha":403,"x_min":0,"x_max":0,"o":"m 172 1083 l 115 736 l 64 736 l 121 1083 m 339 1083 l 282 736 l 231 736 l 288 1083 "},"'":{"ha":236,"x_min":0,"x_max":0,"o":"m 172 1083 l 115 736 l 64 736 l 121 1083 "},"r":{"ha":608,"x_min":0,"x_max":0,"o":"m 522 506 b 358 701 522 619 463 701 b 157 475 246 701 157 604 l 157 0 l 104 0 l 104 736 l 149 736 l 149 564 b 371 750 172 679 264 750 b 572 506 494 750 576 647 "},"s":{"ha":644,"x_min":0,"x_max":0,"o":"m 318 704 b 146 556 217 704 146 643 b 343 403 146 467 188 418 b 592 199 508 386 592 319 b 329 -12 592 75 482 -12 b 54 281 150 -12 43 100 l 103 281 b 329 32 93 122 182 32 b 539 194 451 32 539 99 b 328 356 539 292 475 340 b 93 553 163 372 93 443 b 318 749 93 667 186 749 b 554 506 474 749 565 656 l 506 506 b 318 704 517 633 444 704 "},";":{"ha":314,"x_min":0,"x_max":0,"o":"m 204 19 b 54 -165 204 -83 138 -142 l 54 -124 b 157 -7 106 -112 154 -67 b 115 35 133 -7 115 13 b 157 76 115 58 133 76 b 204 19 181 76 204 54 m 199 569 b 157 528 199 547 181 528 b 115 569 133 528 115 547 b 157 611 115 593 133 611 b 199 569 181 611 199 593 "}," ":{"ha":328,"x_min":0,"x_max":0,"o":""},"£":{"ha":903,"x_min":0,"x_max":0,"o":"m 219 565 b 160 815 190 651 160 736 b 465 1097 160 990 288 1097 b 778 783 693 1097 774 943 l 724 783 b 465 1049 721 931 647 1049 b 214 815 318 1049 214 963 b 272 565 214 728 243 649 l 631 565 l 631 518 l 288 518 b 321 325 306 458 321 394 b 153 49 321 201 243 99 l 826 49 l 826 0 l 76 0 l 76 42 b 272 324 221 119 272 235 b 236 518 272 389 256 454 l 56 518 l 56 565 "},"u":{"ha":819,"x_min":0,"x_max":0,"o":"m 715 0 l 671 0 l 671 200 b 376 -14 646 88 539 -14 b 96 265 206 -14 96 110 l 96 736 l 149 736 l 149 278 b 388 35 149 142 242 35 b 663 300 565 35 663 160 l 663 736 l 715 736 "},"v":{"ha":706,"x_min":0,"x_max":0,"o":"m 382 -14 l 324 -14 l 36 736 l 97 736 l 353 44 l 608 736 l 669 736 "},"w":{"ha":1069,"x_min":0,"x_max":0,"o":"m 800 60 l 992 736 l 1046 736 l 829 -14 l 772 -14 l 535 679 l 297 -14 l 240 -14 l 24 736 l 78 736 l 269 60 l 501 736 l 568 736 "},"x":{"ha":706,"x_min":0,"x_max":0,"o":"m 353 342 l 107 0 l 39 0 l 319 382 l 57 736 l 124 736 l 353 415 l 582 736 l 649 736 l 386 382 l 667 0 l 599 0 "},"y":{"ha":706,"x_min":0,"x_max":0,"o":"m 396 63 l 258 -278 l 199 -278 l 325 25 l 36 736 l 99 736 l 353 88 l 608 736 l 669 736 "},"z":{"ha":725,"x_min":0,"x_max":0,"o":"m 72 42 l 575 690 l 344 689 l 86 689 l 86 736 l 639 736 l 639 694 l 136 46 l 367 47 l 653 47 l 653 0 l 72 0 "},"Æ":{"ha":1576,"x_min":0,"x_max":0,"o":"m 1451 1083 l 1451 1033 l 724 1033 l 808 581 l 1396 581 l 1396 531 l 817 531 l 907 50 l 1479 50 l 1479 0 l 858 0 l 792 368 l 308 368 l 100 0 l 36 0 l 657 1083 m 676 1019 l 496 700 l 336 418 l 782 418 l 732 700 "},"‴":{"ha":569,"x_min":0,"x_max":0,"o":"m 172 1083 l 115 736 l 64 736 l 121 1083 m 339 1083 l 282 736 l 231 736 l 288 1083 m 506 1083 l 449 736 l 397 736 l 454 1083 "},"·":{"ha":328,"x_min":0,"x_max":0,"o":"m 206 467 b 164 425 206 444 188 425 b 122 467 140 425 122 444 b 164 508 122 490 140 508 b 206 467 188 508 206 490 "},"­":{"ha":500,"x_min":0,"x_max":0,"o":"m 69 442 l 69 489 l 431 489 l 431 442 "},"–":{"ha":653,"x_min":0,"x_max":0,"o":"m 69 442 l 69 489 l 583 489 l 583 442 "},"—":{"ha":1306,"x_min":0,"x_max":0,"o":"m 69 442 l 69 489 l 1236 489 l 1236 442 "},"‒":{"ha":903,"x_min":0,"x_max":0,"o":"m 69 442 l 69 489 l 833 489 l 833 442 "},"―":{"ha":1806,"x_min":0,"x_max":0,"o":"m 69 442 l 69 489 l 1736 489 l 1736 442 "},"‚":{"ha":244,"x_min":0,"x_max":0,"o":"m 204 19 b 54 -165 204 -83 138 -142 l 54 -124 b 157 -7 106 -112 154 -67 b 115 35 133 -7 115 13 b 157 76 115 58 133 76 b 204 19 181 76 204 54 "},"„":{"ha":411,"x_min":0,"x_max":0,"o":"m 204 19 b 54 -165 204 -83 138 -142 l 54 -124 b 157 -7 106 -112 154 -67 b 115 35 133 -7 115 13 b 157 76 115 58 133 76 b 204 19 181 76 204 54 m 371 19 b 221 -165 371 -83 304 -142 l 221 -124 b 324 -7 272 -112 321 -67 b 282 35 300 -7 282 13 b 324 76 282 58 300 76 b 371 19 347 76 371 54 "},"‘":{"ha":244,"x_min":0,"x_max":0,"o":"m 40 933 b 190 1118 40 1036 107 1094 l 190 1076 b 88 960 139 1065 90 1019 b 129 918 111 960 129 940 b 88 876 129 894 111 876 b 40 933 64 876 40 899 "},"“":{"ha":411,"x_min":0,"x_max":0,"o":"m 40 933 b 190 1118 40 1036 107 1094 l 190 1076 b 88 960 139 1065 90 1019 b 129 918 111 960 129 940 b 88 876 129 894 111 876 b 40 933 64 876 40 899 m 207 933 b 357 1118 207 1036 274 1094 l 357 1076 b 254 960 306 1065 257 1019 b 296 918 278 960 296 940 b 254 876 296 894 278 876 b 207 933 231 876 207 899 "},"’":{"ha":244,"x_min":0,"x_max":0,"o":"m 204 1061 b 54 876 204 958 138 900 l 54 918 b 157 1035 106 929 154 975 b 115 1076 133 1035 115 1054 b 157 1118 115 1100 133 1118 b 204 1061 181 1118 204 1096 "},"”":{"ha":411,"x_min":0,"x_max":0,"o":"m 204 1061 b 54 876 204 958 138 900 l 54 918 b 157 1035 106 929 154 975 b 115 1076 133 1035 115 1054 b 157 1118 115 1100 133 1118 b 204 1061 181 1118 204 1096 m 371 1061 b 221 876 371 958 304 900 l 221 918 b 324 1035 272 929 321 975 b 282 1076 300 1035 282 1054 b 324 1118 282 1100 300 1118 b 371 1061 347 1118 371 1096 "},"#":{"ha":903,"x_min":0,"x_max":0,"o":"m 297 743 l 367 1083 l 419 1083 l 349 743 l 636 743 l 706 1083 l 758 1083 l 688 743 l 861 743 l 861 696 l 678 696 l 615 388 l 789 388 l 789 340 l 606 340 l 536 0 l 483 0 l 553 340 l 267 340 l 197 0 l 144 0 l 214 340 l 42 340 l 42 388 l 224 388 l 288 696 l 114 696 l 114 743 m 276 388 l 563 388 l 626 696 l 339 696 "},"[":{"ha":486,"x_min":0,"x_max":0,"o":"m 118 -222 l 118 1167 l 415 1167 l 415 1117 l 168 1117 l 168 -172 l 415 -172 l 415 -222 "},"]":{"ha":486,"x_min":0,"x_max":0,"o":"m 368 -222 l 71 -222 l 71 -172 l 318 -172 l 318 1117 l 71 1117 l 71 1167 l 368 1167 "},"{":{"ha":486,"x_min":0,"x_max":0,"o":"m 158 472 b 300 307 229 465 300 406 b 247 -10 300 164 247 129 b 400 -172 247 -103 310 -172 l 415 -172 l 415 -222 l 394 -222 b 197 -18 276 -222 197 -132 b 250 299 197 125 250 160 b 86 449 250 399 182 449 l 76 449 l 76 496 l 86 496 b 250 646 182 496 250 546 b 197 963 250 785 197 819 b 394 1167 197 1076 276 1167 l 415 1167 l 415 1117 l 400 1117 b 247 954 310 1117 247 1047 b 300 638 247 815 300 781 b 158 472 300 539 229 479 "},"}":{"ha":486,"x_min":0,"x_max":0,"o":"m 328 472 b 186 638 257 479 186 539 b 239 954 186 781 239 815 b 86 1117 239 1047 176 1117 l 71 1117 l 71 1167 l 92 1167 b 289 963 210 1167 289 1076 b 236 646 289 819 236 785 b 400 496 236 546 304 496 l 410 496 l 410 449 l 400 449 b 236 299 304 449 236 399 b 289 -18 236 160 289 125 b 92 -222 289 -132 210 -222 l 71 -222 l 71 -172 l 86 -172 b 239 -10 176 -172 239 -103 b 186 307 239 129 186 164 b 328 472 186 406 257 465 "},"〈":{"ha":486,"x_min":0,"x_max":0,"o":"m 422 -222 l 365 -222 l 83 472 l 365 1167 l 422 1167 l 140 472 "},"〉":{"ha":486,"x_min":0,"x_max":0,"o":"m 64 1167 l 121 1167 l 403 472 l 121 -222 l 64 -222 l 346 472 "},"ø":{"ha":892,"x_min":0,"x_max":0,"o":"m 446 -14 b 208 65 358 -14 275 14 l 149 0 l 82 0 l 171 99 b 65 368 106 165 65 257 b 446 750 65 601 246 750 b 683 669 533 750 617 721 l 743 736 l 810 736 l 721 636 b 826 368 785 571 826 479 b 446 -14 826 135 646 -14 m 118 368 b 204 138 118 274 151 194 l 650 632 b 446 701 593 676 521 701 b 118 368 272 701 118 569 m 446 35 b 774 368 619 35 774 167 b 686 599 774 461 740 540 l 242 103 b 446 35 299 58 371 35 "},"†":{"ha":642,"x_min":0,"x_max":0,"o":"m 353 1083 l 338 822 l 599 838 l 599 774 l 338 788 l 353 528 l 338 250 l 304 250 l 289 528 l 303 788 l 43 774 l 43 838 l 303 822 l 289 1083 "},"‡":{"ha":642,"x_min":0,"x_max":0,"o":"m 353 1083 l 338 822 l 599 838 l 599 774 l 339 788 l 347 681 l 339 572 l 599 588 l 599 524 l 338 538 l 353 278 l 338 0 l 304 0 l 289 278 l 303 538 l 43 524 l 43 588 l 303 572 l 294 681 l 303 788 l 43 774 l 43 838 l 303 822 l 289 1083 "},"§":{"ha":840,"x_min":0,"x_max":0,"o":"m 89 411 b 288 638 89 519 168 604 b 101 853 164 671 101 732 b 404 1097 101 994 222 1097 b 711 839 632 1097 703 968 l 654 839 b 404 1049 647 949 586 1049 b 157 851 249 1049 157 972 b 425 665 157 740 232 689 b 729 406 624 640 729 575 b 531 179 729 296 650 213 b 717 -36 654 144 717 85 b 414 -281 717 -178 596 -281 b 107 -22 186 -281 115 -151 l 164 -22 b 414 -232 171 -132 232 -232 b 661 -35 569 -232 661 -156 b 393 151 661 76 586 128 b 89 411 194 176 89 242 m 144 411 b 156 332 144 382 149 356 b 410 207 186 253 268 207 b 674 406 565 207 674 285 b 661 483 674 433 669 460 b 408 610 632 564 549 610 b 144 411 253 610 144 532 "},"¶":{"ha":860,"x_min":0,"x_max":0,"o":"m 672 467 l 388 467 b 53 775 221 467 53 539 b 388 1083 53 1011 221 1083 l 728 1083 l 728 0 l 672 0 "},"^":{"ha":889,"x_min":0,"x_max":0,"o":"m 443 1029 l 124 347 l 72 347 l 419 1083 l 467 1083 l 814 347 l 763 347 "},"<":{"ha":903,"x_min":0,"x_max":0,"o":"m 138 542 l 819 222 l 819 171 l 83 518 l 83 565 l 819 913 l 819 861 "},"−":{"ha":903,"x_min":0,"x_max":0,"o":"m 83 518 l 83 565 l 819 565 l 819 518 "},"±":{"ha":903,"x_min":0,"x_max":0,"o":"m 428 657 l 83 657 l 83 704 l 428 704 l 428 965 l 475 965 l 475 704 l 819 704 l 819 657 l 475 657 l 475 396 l 428 396 m 83 163 l 83 210 l 819 210 l 819 163 "},"×":{"ha":903,"x_min":0,"x_max":0,"o":"m 451 508 l 144 201 l 111 235 l 418 542 l 111 849 l 144 882 l 451 575 l 758 882 l 792 849 l 485 542 l 792 235 l 758 201 "},"÷":{"ha":903,"x_min":0,"x_max":0,"o":"m 83 518 l 83 565 l 819 565 l 819 518 m 493 196 b 451 154 493 174 475 154 b 410 196 428 154 410 174 b 451 238 410 219 428 238 b 493 196 475 238 493 219 m 493 888 b 451 846 493 865 475 846 b 410 888 428 846 410 865 b 451 929 410 911 428 929 b 493 888 475 929 493 911 "},">":{"ha":903,"x_min":0,"x_max":0,"o":"m 765 542 l 83 861 l 83 913 l 819 565 l 819 518 l 83 171 l 83 222 "},"_":{"ha":486,"x_min":0,"x_max":0,"o":"m 63 -278 l 63 -231 l 424 -231 l 424 -278 "},"@":{"ha":1428,"x_min":0,"x_max":0,"o":"m 722 -212 b 40 442 328 -212 40 78 b 722 1096 40 806 331 1096 b 1390 519 1093 1096 1390 896 b 1104 136 1390 254 1261 136 b 907 297 1001 136 918 189 b 657 136 868 204 792 136 b 358 442 494 136 358 254 b 656 747 358 629 493 747 b 900 586 794 747 872 671 l 900 736 l 947 736 l 947 333 b 1103 185 947 240 1007 185 b 1338 519 1231 185 1338 278 b 722 1049 1338 867 1068 1049 b 93 442 363 1049 93 778 b 722 -165 93 106 360 -165 b 1236 61 1053 -165 1193 -28 l 1296 61 b 722 -212 1247 -46 1103 -212 m 897 442 b 661 700 897 601 804 700 b 411 442 525 700 411 604 b 661 183 411 279 525 183 b 897 442 804 183 897 282 "},"¢":{"ha":903,"x_min":0,"x_max":0,"o":"m 492 957 b 819 722 674 951 799 844 l 763 722 b 492 907 744 818 642 901 l 492 176 b 763 361 642 182 744 264 l 819 361 b 492 126 799 238 674 132 l 492 0 l 438 0 l 438 128 b 75 542 226 146 75 303 b 438 954 75 779 226 938 l 438 1083 l 492 1083 m 129 542 b 438 178 129 333 258 194 l 438 904 b 129 542 258 888 129 749 "},"ƒ":{"ha":903,"x_min":0,"x_max":0,"o":"m 317 794 b 383 565 317 708 343 633 l 715 565 l 715 518 l 413 518 b 665 8 515 361 665 222 b 376 -294 665 -160 558 -294 b 83 0 157 -294 90 -156 l 136 0 b 376 -246 140 -136 207 -246 b 611 8 532 -246 611 -126 b 350 518 611 214 453 351 l 126 518 l 126 565 l 322 565 b 263 794 286 633 263 707 b 551 1097 263 963 369 1097 b 844 803 771 1097 838 958 l 792 803 b 551 1049 788 939 721 1049 b 317 794 396 1049 317 929 "},"¥":{"ha":903,"x_min":0,"x_max":0,"o":"m 424 363 l 424 518 l 97 518 l 97 565 l 393 565 l 56 1083 l 117 1083 l 451 563 l 786 1083 l 847 1083 l 510 565 l 806 565 l 806 518 l 479 518 l 479 363 l 806 363 l 806 315 l 479 315 l 479 0 l 424 0 l 424 315 l 97 315 l 97 363 "},"´":{"ha":678,"x_min":0,"x_max":0,"o":"m 479 1083 l 365 839 l 313 839 l 424 1083 "},"˘":{"ha":678,"x_min":0,"x_max":0,"o":"m 339 871 b 521 1083 449 871 521 940 l 569 1083 b 339 825 569 918 481 825 b 108 1083 197 825 108 918 l 157 1083 b 339 871 157 940 229 871 "},"ˇ":{"ha":678,"x_min":0,"x_max":0,"o":"m 561 1083 l 358 839 l 319 839 l 117 1083 l 174 1083 l 339 885 l 504 1083 "},"¸":{"ha":676,"x_min":0,"x_max":0,"o":"m 361 0 l 354 -54 b 490 -181 419 -68 490 -103 b 344 -292 490 -247 431 -292 b 214 -250 288 -292 238 -267 l 233 -211 b 346 -246 254 -225 293 -246 b 442 -179 399 -246 442 -222 b 306 -89 442 -124 375 -96 l 317 0 "},"ˆ":{"ha":678,"x_min":0,"x_max":0,"o":"m 117 839 l 319 1083 l 358 1083 l 561 839 l 504 839 l 339 1038 l 174 839 "},"¨":{"ha":678,"x_min":0,"x_max":0,"o":"m 242 961 b 200 919 242 938 224 919 b 158 961 176 919 158 938 b 200 1003 158 985 176 1003 b 242 961 224 1003 242 985 m 519 961 b 478 919 519 938 501 919 b 436 961 454 919 436 938 b 478 1003 436 985 454 1003 b 519 961 501 1003 519 985 "},"˙":{"ha":678,"x_min":0,"x_max":0,"o":"m 381 961 b 339 919 381 938 363 919 b 297 961 315 919 297 938 b 339 1003 297 985 315 1003 b 381 961 363 1003 381 985 "},"`":{"ha":678,"x_min":0,"x_max":0,"o":"m 254 1083 l 365 839 l 313 839 l 199 1083 "},"˝":{"ha":678,"x_min":0,"x_max":0,"o":"m 590 1083 l 476 839 l 424 839 l 535 1083 m 368 1083 l 254 839 l 201 839 l 313 1083 "},"¯":{"ha":678,"x_min":0,"x_max":0,"o":"m 497 985 l 497 938 l 181 938 l 181 985 "},"˛":{"ha":678,"x_min":0,"x_max":0,"o":"m 447 -253 b 324 -292 424 -269 382 -292 b 171 -147 226 -292 171 -222 b 307 29 171 -46 256 3 l 339 0 b 217 -143 286 -26 217 -65 b 324 -246 217 -203 263 -246 b 428 -214 376 -246 407 -228 "},"˚":{"ha":678,"x_min":0,"x_max":0,"o":"m 203 961 b 339 1097 203 1036 264 1097 b 475 961 414 1097 475 1036 b 339 825 475 886 414 825 b 203 961 264 825 203 886 m 246 961 b 339 868 246 910 288 868 b 432 961 390 868 432 910 b 339 1054 432 1013 390 1054 b 246 961 288 1054 246 1013 "},"˜":{"ha":678,"x_min":0,"x_max":0,"o":"m 569 1026 b 450 878 569 933 517 878 b 233 999 318 878 329 999 b 157 896 186 999 157 967 l 108 896 b 228 1044 108 989 161 1044 b 444 924 360 1044 349 924 b 521 1026 492 924 521 956 "},"å":{"ha":750,"x_min":0,"x_max":0,"o":"m 99 506 b 376 750 108 646 199 750 b 654 474 563 750 654 633 l 654 0 l 610 0 l 610 213 b 300 -14 583 96 467 -14 b 75 190 165 -14 75 71 b 304 407 75 328 161 382 l 601 458 l 601 475 b 378 701 601 606 531 701 b 149 506 221 701 158 618 m 128 192 b 308 35 128 99 200 35 b 601 315 496 35 601 178 l 601 411 l 329 365 b 128 192 182 340 128 289 m 238 961 b 374 1097 238 1036 299 1097 b 510 961 449 1097 510 1036 b 374 825 510 886 449 825 b 238 961 299 825 238 886 m 282 961 b 374 869 282 911 324 869 b 465 961 424 869 465 911 b 374 1053 465 1011 424 1053 b 282 961 324 1053 282 1011 "},"≠":{"ha":903,"x_min":0,"x_max":0,"o":"m 558 657 l 399 426 l 819 426 l 819 379 l 367 379 l 218 165 l 163 165 l 311 379 l 83 379 l 83 426 l 343 426 l 503 657 l 83 657 l 83 704 l 536 704 l 685 918 l 740 918 l 592 704 l 819 704 l 819 657 "},"≈":{"ha":903,"x_min":0,"x_max":0,"o":"m 819 817 b 631 599 819 686 735 599 b 275 786 472 599 407 786 b 132 614 190 786 132 722 l 83 614 b 272 832 83 744 168 832 b 628 644 431 832 496 644 b 771 817 713 644 771 708 m 819 469 b 631 251 819 339 735 251 b 275 439 472 251 407 439 b 132 267 190 439 132 375 l 83 267 b 272 485 83 397 168 485 b 628 297 431 485 496 297 b 771 469 713 297 771 361 "},"°":{"ha":625,"x_min":0,"x_max":0,"o":"m 47 832 b 313 1097 47 978 167 1097 b 578 832 458 1097 578 978 b 313 567 578 686 458 567 b 47 832 167 567 47 686 m 96 832 b 313 615 96 713 193 615 b 529 832 432 615 529 713 b 313 1049 529 951 432 1049 b 96 832 193 1049 96 951 "},"%":{"ha":1319,"x_min":0,"x_max":0,"o":"m 47 832 b 313 1097 47 978 167 1097 b 578 832 458 1097 578 978 b 313 567 578 686 458 567 b 47 832 167 567 47 686 m 96 832 b 313 615 96 713 193 615 b 529 832 432 615 529 713 b 313 1049 529 951 432 1049 b 96 832 193 1049 96 951 m 257 0 l 1007 1083 l 1063 1083 l 313 0 m 1272 251 b 1007 -14 1272 106 1153 -14 b 742 251 861 -14 742 106 b 1007 517 742 397 861 517 b 1272 251 1153 517 1272 397 m 1224 251 b 1007 468 1224 371 1126 468 b 790 251 888 468 790 371 b 1007 35 790 132 888 35 b 1224 251 1126 35 1224 132 "},"~":{"ha":889,"x_min":0,"x_max":0,"o":"m 813 643 b 624 425 813 513 728 425 b 268 613 465 425 400 613 b 125 440 183 613 125 549 l 76 440 b 265 658 76 571 161 658 b 621 471 424 658 489 471 b 764 643 706 471 764 535 "},"Ø":{"ha":1281,"x_min":0,"x_max":0,"o":"m 114 0 l 243 143 b 90 542 149 240 90 376 b 640 1097 90 879 332 1097 b 999 975 778 1097 903 1053 l 1097 1083 l 1167 1083 l 1036 940 b 1190 542 1132 843 1190 707 b 640 -14 1190 204 949 -14 b 282 108 501 -14 378 29 l 183 0 m 1132 542 b 1000 900 1132 690 1082 813 l 318 147 b 640 36 404 75 515 36 b 1132 542 915 36 1132 231 m 149 542 b 279 183 149 393 197 271 l 963 935 b 640 1047 876 1007 764 1047 b 149 542 365 1047 149 853 "},"/":{"ha":486,"x_min":0,"x_max":0,"o":"m 32 -222 l 372 1167 l 425 1167 l 85 -222 "},"\\":{"ha":486,"x_min":0,"x_max":0,"o":"m 401 -222 l 61 1167 l 114 1167 l 454 -222 "},"|":{"ha":319,"x_min":0,"x_max":0,"o":"m 186 1167 l 186 -222 l 133 -222 l 133 1167 "},"‖":{"ha":486,"x_min":0,"x_max":0,"o":"m 186 1167 l 186 -222 l 133 -222 l 133 1167 m 353 1167 l 353 -222 l 300 -222 l 300 1167 "},"¦":{"ha":319,"x_min":0,"x_max":0,"o":"m 186 1167 l 186 542 l 133 542 l 133 1167 m 186 403 l 186 -222 l 133 -222 l 133 403 "},"‛":{"ha":244,"x_min":0,"x_max":0,"o":"m 40 1061 b 88 1118 40 1096 64 1118 b 129 1076 111 1118 129 1100 b 88 1035 129 1054 111 1035 b 190 918 90 975 139 929 l 190 876 b 40 1061 107 900 40 958 "},"‟":{"ha":411,"x_min":0,"x_max":0,"o":"m 207 1061 b 254 1118 207 1096 231 1118 b 296 1076 278 1118 296 1100 b 254 1035 296 1054 278 1035 b 357 918 257 975 306 929 l 357 876 b 207 1061 274 900 207 958 m 40 1061 b 88 1118 40 1096 64 1118 b 129 1076 111 1118 129 1100 b 88 1035 129 1054 111 1035 b 190 918 90 975 139 929 l 190 876 b 40 1061 107 900 40 958 "},"…":{"ha":1292,"x_min":0,"x_max":0,"o":"m 268 35 b 226 -7 268 13 250 -7 b 185 35 203 -7 185 13 b 226 76 185 58 203 76 b 268 35 250 76 268 58 m 685 35 b 643 -7 685 13 667 -7 b 601 35 619 -7 601 13 b 643 76 601 58 619 76 b 685 35 667 76 685 58 m 1101 35 b 1060 -7 1101 13 1083 -7 b 1018 35 1036 -7 1018 13 b 1060 76 1018 58 1036 76 b 1101 35 1083 76 1101 58 "},"¿":{"ha":764,"x_min":0,"x_max":0,"o":"m 436 411 b 146 11 310 353 146 238 b 390 -243 146 -146 250 -243 b 635 22 557 -243 633 -114 l 690 22 b 390 -292 689 -135 604 -292 b 92 6 192 -292 92 -149 b 421 461 92 249 258 383 m 371 708 b 413 750 371 731 389 750 b 454 708 436 750 454 731 b 413 667 454 685 436 667 b 371 708 389 667 371 685 "},"¡":{"ha":314,"x_min":0,"x_max":0,"o":"m 175 447 l 193 -278 l 121 -278 l 139 447 m 115 708 b 157 750 115 731 133 750 b 199 708 181 750 199 731 b 157 667 199 685 181 667 b 115 708 133 667 115 685 "},"≤":{"ha":903,"x_min":0,"x_max":0,"o":"m 144 653 l 819 401 l 819 351 l 83 629 l 83 676 l 819 954 l 819 904 m 819 129 l 83 407 l 83 457 l 819 179 "},"≥":{"ha":903,"x_min":0,"x_max":0,"o":"m 757 653 l 83 904 l 83 954 l 819 676 l 819 629 l 83 351 l 83 401 m 83 179 l 819 457 l 819 407 l 83 129 "},"¬":{"ha":903,"x_min":0,"x_max":0,"o":"m 772 689 l 83 689 l 83 736 l 819 736 l 819 347 l 772 347 "},"‰":{"ha":1944,"x_min":0,"x_max":0,"o":"m 47 832 b 313 1097 47 978 167 1097 b 578 832 458 1097 578 978 b 313 567 578 686 458 567 b 47 832 167 567 47 686 m 96 832 b 313 615 96 713 193 615 b 529 832 432 615 529 713 b 313 1049 529 951 432 1049 b 96 832 193 1049 96 951 m 257 0 l 1007 1083 l 1063 1083 l 313 0 m 1272 251 b 1007 -14 1272 106 1153 -14 b 742 251 861 -14 742 106 b 1007 517 742 397 861 517 b 1272 251 1153 517 1272 397 m 1224 251 b 1007 468 1224 371 1126 468 b 790 251 888 468 790 371 b 1007 35 790 132 888 35 b 1224 251 1126 35 1224 132 m 1897 251 b 1632 -14 1897 106 1778 -14 b 1367 251 1486 -14 1367 106 b 1632 517 1367 397 1486 517 b 1897 251 1778 517 1897 397 m 1849 251 b 1632 468 1849 371 1751 468 b 1415 251 1513 468 1415 371 b 1632 35 1415 132 1513 35 b 1849 251 1751 35 1849 132 "},"‹":{"ha":333,"x_min":0,"x_max":0,"o":"m 285 197 l 228 197 l 56 467 l 228 736 l 285 736 l 113 467 "},"›":{"ha":333,"x_min":0,"x_max":0,"o":"m 221 467 l 49 736 l 106 736 l 278 467 l 106 197 l 49 197 "},"«":{"ha":542,"x_min":0,"x_max":0,"o":"m 285 197 l 228 197 l 56 467 l 228 736 l 285 736 l 113 467 m 493 197 l 436 197 l 264 467 l 436 736 l 493 736 l 321 467 "},"»":{"ha":542,"x_min":0,"x_max":0,"o":"m 221 467 l 49 736 l 106 736 l 278 467 l 106 197 l 49 197 m 429 467 l 257 736 l 314 736 l 486 467 l 314 197 l 257 197 "},"•":{"ha":639,"x_min":0,"x_max":0,"o":"m 69 467 b 319 717 69 604 182 717 b 569 467 457 717 569 604 b 319 217 569 329 457 217 b 69 467 182 217 69 329 "},"©":{"ha":1208,"x_min":0,"x_max":0,"o":"m 99 542 b 604 36 99 243 332 36 b 1110 542 876 36 1110 243 b 604 1047 1110 840 876 1047 b 99 542 332 1047 99 840 m 1160 542 b 604 -14 1160 217 910 -14 b 49 542 299 -14 49 217 b 604 1097 49 867 299 1097 b 1160 542 910 1097 1160 867 m 264 542 b 604 882 264 750 421 882 b 921 667 782 882 893 786 l 867 667 b 604 833 843 753 765 833 b 317 542 443 833 317 725 b 604 250 317 358 443 250 b 867 417 765 250 843 331 l 921 417 b 604 201 893 297 782 201 b 264 542 421 201 264 333 "},"₤":{"ha":903,"x_min":0,"x_max":0,"o":"m 186 667 b 160 815 171 717 160 767 b 465 1097 160 990 288 1097 b 778 783 693 1097 774 943 l 724 783 b 465 1049 721 931 647 1049 b 214 815 318 1049 214 963 b 239 667 214 764 224 715 l 631 667 l 631 619 l 253 619 b 303 464 269 568 289 518 l 631 464 l 631 417 l 313 417 b 321 325 318 388 321 357 b 153 49 321 201 243 99 l 826 49 l 826 0 l 76 0 l 76 42 b 272 324 221 119 272 235 b 263 417 272 354 268 386 l 56 417 l 56 464 l 251 464 b 201 619 238 517 218 568 l 56 619 l 56 667 "},"₣":{"ha":903,"x_min":0,"x_max":0,"o":"m 250 667 l 250 1083 l 826 1083 l 826 1035 l 304 1035 l 304 667 l 728 667 l 728 619 l 304 619 l 304 464 l 728 464 l 728 417 l 304 417 l 304 0 l 250 0 l 250 417 l 56 417 l 56 464 l 250 464 l 250 619 l 56 619 l 56 667 "},"ß":{"ha":778,"x_min":0,"x_max":0,"o":"m 500 33 b 683 199 588 33 683 78 b 494 376 683 299 621 350 b 314 565 399 396 314 447 b 540 906 314 753 540 729 b 349 1076 540 997 471 1076 b 157 885 226 1076 157 993 l 157 0 l 104 0 l 104 897 b 349 1125 104 1022 200 1125 b 593 908 497 1125 593 1033 b 368 565 593 699 368 732 b 517 422 368 474 433 440 b 736 201 653 392 738 322 b 500 -12 735 54 621 -12 b 264 231 344 -12 253 81 l 313 231 b 500 33 301 103 374 33 "},"ĳ":{"ha":567,"x_min":0,"x_max":0,"o":"m 186 961 b 144 919 186 938 168 919 b 103 961 121 919 103 938 b 144 1003 103 985 121 1003 b 186 961 168 1003 186 985 m 171 0 l 118 0 l 118 736 l 171 736 m 449 -153 b 300 -292 449 -229 390 -292 b 153 -167 206 -292 157 -226 l 206 -167 b 300 -243 211 -203 239 -243 b 396 -147 361 -243 396 -201 l 396 736 l 449 736 m 464 961 b 422 919 464 938 446 919 b 381 961 399 919 381 938 b 422 1003 381 985 399 1003 b 464 961 446 1003 464 985 "},"ð":{"ha":869,"x_min":0,"x_max":0,"o":"m 804 368 b 435 -14 804 133 639 -14 b 65 368 231 -14 65 133 b 435 750 65 603 231 750 b 699 636 542 750 635 708 b 376 974 629 790 504 900 l 143 839 l 121 878 l 331 999 b 107 1081 249 1040 169 1067 l 118 1125 b 379 1026 193 1110 286 1078 l 549 1125 l 571 1086 l 424 1001 b 804 368 621 881 804 675 m 435 35 b 751 368 607 35 751 158 b 435 701 751 578 607 701 b 118 368 263 701 118 578 b 435 35 118 158 263 35 "},"ı":{"ha":289,"x_min":0,"x_max":0,"o":"m 171 0 l 118 0 l 118 736 l 171 736 "},"ȷ":{"ha":289,"x_min":0,"x_max":0,"o":"m 171 -149 b 22 -290 171 -232 113 -290 b -119 -165 -68 -290 -114 -229 l -69 -165 b 22 -242 -65 -200 -37 -242 b 118 -144 83 -242 118 -201 l 118 736 l 171 736 "},"Đ":{"ha":1236,"x_min":0,"x_max":0,"o":"m 1146 542 b 558 0 1146 119 874 0 l 257 0 l 257 531 l 63 531 l 63 581 l 257 581 l 257 1083 l 558 1083 b 1146 542 874 1083 1146 964 m 560 50 b 1088 542 853 50 1088 167 b 560 1033 1088 917 853 1033 l 313 1033 l 313 581 l 743 581 l 743 531 l 313 531 l 313 50 "},"Ð":{"ha":1236,"x_min":0,"x_max":0,"o":"m 1146 542 b 558 0 1146 119 874 0 l 257 0 l 257 531 l 63 531 l 63 581 l 257 581 l 257 1083 l 558 1083 b 1146 542 874 1083 1146 964 m 560 50 b 1088 542 853 50 1088 167 b 560 1033 1088 917 853 1033 l 313 1033 l 313 581 l 743 581 l 743 531 l 313 531 l 313 50 "},"Ŀ":{"ha":826,"x_min":0,"x_max":0,"o":"m 188 50 l 799 50 l 799 0 l 132 0 l 132 1083 l 188 1083 m 539 556 b 581 597 539 579 557 597 b 622 556 604 597 622 579 b 581 514 622 533 604 514 b 539 556 557 514 539 533 "},"Ł":{"ha":951,"x_min":0,"x_max":0,"o":"m 313 439 l 313 50 l 924 50 l 924 0 l 257 0 l 257 406 l 63 293 l 63 353 l 257 465 l 257 1083 l 313 1083 l 313 499 l 743 750 l 743 690 "},"Ħ":{"ha":1028,"x_min":0,"x_max":0,"o":"m 896 1083 l 896 0 l 840 0 l 840 531 l 188 531 l 188 0 l 132 0 l 132 1083 l 188 1083 l 188 861 l 840 861 l 840 1083 m 840 581 l 840 811 l 188 811 l 188 581 "},"Œ":{"ha":1715,"x_min":0,"x_max":0,"o":"m 90 542 b 678 1083 90 964 363 1083 l 1590 1083 l 1590 1033 l 924 1033 l 924 581 l 1535 581 l 1535 531 l 924 531 l 924 50 l 1618 50 l 1618 0 l 678 0 b 90 542 363 0 90 119 m 676 1033 b 149 542 383 1033 149 917 b 676 50 149 167 383 50 l 868 50 l 868 1033 "},"Ŋ":{"ha":1042,"x_min":0,"x_max":0,"o":"m 860 69 l 857 444 l 857 1083 l 910 1083 l 910 -153 b 761 -292 910 -229 851 -292 b 614 -167 667 -292 618 -226 l 667 -167 b 761 -243 672 -203 700 -243 b 857 -147 822 -243 857 -201 l 857 -25 l 182 1014 l 185 639 l 185 0 l 132 0 l 132 1083 l 201 1083 "},"Ŧ":{"ha":847,"x_min":0,"x_max":0,"o":"m 451 531 l 451 0 l 396 0 l 396 531 l 153 531 l 153 581 l 396 581 l 396 1033 l 28 1033 l 28 1083 l 819 1083 l 819 1033 l 451 1033 l 451 581 l 694 581 l 694 531 "},"Þ":{"ha":919,"x_min":0,"x_max":0,"o":"m 188 850 l 515 850 b 850 542 682 850 850 778 b 515 233 850 306 682 233 l 188 233 l 188 0 l 132 0 l 132 1083 l 188 1083 m 538 283 b 794 542 663 283 794 351 b 538 800 794 732 663 800 l 188 800 l 188 283 "},"Ĳ":{"ha":681,"x_min":0,"x_max":0,"o":"m 215 0 l 160 0 l 160 1083 l 215 1083 m 542 147 b 385 0 542 67 481 0 l 313 0 l 313 50 l 385 50 b 486 151 449 50 486 94 l 486 1083 l 542 1083 "},"Ə":{"ha":1208,"x_min":0,"x_max":0,"o":"m 590 1097 b 1118 540 917 1097 1118 878 b 604 -14 1118 204 911 -14 b 90 542 297 -14 90 206 l 90 557 l 1060 557 b 590 1047 1054 851 867 1047 b 165 789 340 1047 201 922 l 110 789 b 590 1097 146 946 301 1097 m 149 507 b 604 36 156 236 335 36 b 1060 507 874 36 1053 236 "},"ẞ":{"ha":1101,"x_min":0,"x_max":0,"o":"m 728 -14 b 383 338 504 -14 372 119 l 436 338 b 728 36 426 147 536 36 b 988 267 854 36 988 106 b 715 492 988 379 935 451 l 550 522 l 550 558 l 876 986 b 607 1046 810 1024 721 1046 b 168 692 294 1046 168 879 l 168 0 l 111 0 l 111 682 b 607 1097 111 910 258 1097 b 935 1015 747 1097 856 1067 l 935 979 l 614 558 l 721 540 b 1043 268 932 504 1043 433 b 728 -14 1043 81 886 -14 "},"‽":{"ha":764,"x_min":0,"x_max":0,"o":"m 393 35 b 351 -7 393 13 375 -7 b 310 35 328 -7 310 13 b 351 76 310 58 328 76 b 393 35 375 76 393 58 m 44 1039 l 115 1057 l 300 292 l 268 283 m 331 333 b 618 788 454 419 618 563 b 374 1049 618 944 514 1049 b 181 956 283 1049 219 1011 l 164 1021 b 374 1097 213 1067 281 1097 b 672 793 572 1097 672 947 b 343 282 672 550 503 388 "},"ə":{"ha":826,"x_min":0,"x_max":0,"o":"m 397 750 b 761 368 604 750 761 604 b 413 -14 761 147 606 -14 b 65 368 218 -14 65 147 b 67 386 65 378 67 386 l 706 386 b 397 701 703 576 582 701 b 131 536 235 701 157 624 l 78 536 b 397 750 110 647 207 750 m 121 339 b 413 35 129 165 243 35 b 704 339 583 35 697 167 "},"þ":{"ha":903,"x_min":0,"x_max":0,"o":"m 157 1111 l 157 522 b 482 750 186 615 290 750 b 838 368 669 750 838 606 b 482 -14 838 131 669 -14 b 157 214 290 -14 186 121 l 157 -278 l 104 -278 l 104 1111 m 157 368 b 469 35 157 136 329 35 b 785 368 626 35 785 149 b 469 701 785 588 626 701 b 157 368 329 701 157 600 "},"À":{"ha":986,"x_min":0,"x_max":0,"o":"m 735 368 l 251 368 l 114 0 l 53 0 l 464 1083 l 522 1083 l 933 0 l 872 0 m 493 1019 l 375 699 l 269 418 l 715 418 l 611 699 m 408 1389 l 519 1144 l 467 1144 l 353 1389 "},"Á":{"ha":986,"x_min":0,"x_max":0,"o":"m 735 368 l 251 368 l 114 0 l 53 0 l 464 1083 l 522 1083 l 933 0 l 872 0 m 493 1019 l 375 699 l 269 418 l 715 418 l 611 699 m 633 1389 l 519 1144 l 467 1144 l 578 1389 "},"Â":{"ha":986,"x_min":0,"x_max":0,"o":"m 735 368 l 251 368 l 114 0 l 53 0 l 464 1083 l 522 1083 l 933 0 l 872 0 m 493 1019 l 375 699 l 269 418 l 715 418 l 611 699 m 271 1144 l 474 1389 l 513 1389 l 715 1144 l 658 1144 l 493 1343 l 328 1144 "},"Ã":{"ha":986,"x_min":0,"x_max":0,"o":"m 735 368 l 251 368 l 114 0 l 53 0 l 464 1083 l 522 1083 l 933 0 l 872 0 m 493 1019 l 375 699 l 269 418 l 715 418 l 611 699 m 724 1332 b 604 1183 724 1239 671 1183 b 388 1304 472 1183 483 1304 b 311 1201 340 1304 311 1272 l 263 1201 b 382 1350 263 1294 315 1350 b 599 1229 514 1350 503 1229 b 675 1332 646 1229 675 1261 "},"Ā":{"ha":986,"x_min":0,"x_max":0,"o":"m 735 368 l 251 368 l 114 0 l 53 0 l 464 1083 l 522 1083 l 933 0 l 872 0 m 493 1019 l 375 699 l 269 418 l 715 418 l 611 699 m 651 1290 l 651 1243 l 335 1243 l 335 1290 "},"Ă":{"ha":986,"x_min":0,"x_max":0,"o":"m 735 368 l 251 368 l 114 0 l 53 0 l 464 1083 l 522 1083 l 933 0 l 872 0 m 493 1019 l 375 699 l 269 418 l 715 418 l 611 699 m 493 1176 b 675 1389 603 1176 675 1246 l 724 1389 b 493 1131 724 1224 635 1131 b 263 1389 351 1131 263 1224 l 311 1389 b 493 1176 311 1246 383 1176 "},"Ä":{"ha":986,"x_min":0,"x_max":0,"o":"m 735 368 l 251 368 l 114 0 l 53 0 l 464 1083 l 522 1083 l 933 0 l 872 0 m 493 1019 l 375 699 l 269 418 l 715 418 l 611 699 m 396 1267 b 354 1225 396 1243 378 1225 b 313 1267 331 1225 313 1243 b 354 1308 313 1290 331 1308 b 396 1267 378 1308 396 1290 m 674 1267 b 632 1225 674 1243 656 1225 b 590 1267 608 1225 590 1243 b 632 1308 590 1290 608 1308 b 674 1267 656 1308 674 1290 "},"Å":{"ha":986,"x_min":0,"x_max":0,"o":"m 735 368 l 251 368 l 114 0 l 53 0 l 464 1083 l 522 1083 l 933 0 l 872 0 m 493 1019 l 375 699 l 269 418 l 715 418 l 611 699 m 357 1267 b 493 1403 357 1342 418 1403 b 629 1267 568 1403 629 1342 b 493 1131 629 1192 568 1131 b 357 1267 418 1131 357 1192 m 400 1267 b 493 1174 400 1215 442 1174 b 586 1267 544 1174 586 1215 b 493 1360 586 1318 544 1360 b 400 1267 442 1360 400 1318 "},"Ą":{"ha":986,"x_min":0,"x_max":0,"o":"m 1042 -253 b 918 -292 1018 -269 976 -292 b 765 -147 821 -292 765 -222 b 868 11 765 -65 819 -18 l 735 368 l 251 368 l 114 0 l 53 0 l 464 1083 l 522 1083 l 933 0 b 811 -143 881 -26 811 -65 b 918 -246 811 -203 857 -246 b 1022 -214 971 -246 1001 -228 m 493 1019 l 375 699 l 269 418 l 715 418 l 611 699 "},"Ć":{"ha":1208,"x_min":0,"x_max":0,"o":"m 775 1389 l 661 1144 l 608 1144 l 719 1389 m 90 542 b 635 1097 90 876 315 1097 b 1131 700 942 1097 1103 889 l 1078 700 b 635 1047 1046 869 911 1047 b 149 542 347 1047 149 851 b 635 36 149 232 347 36 b 1078 383 911 36 1046 214 l 1131 383 b 635 -14 1103 194 942 -14 b 90 542 315 -14 90 207 "},"Ĉ":{"ha":1208,"x_min":0,"x_max":0,"o":"m 413 1144 l 615 1389 l 654 1389 l 857 1144 l 800 1144 l 635 1343 l 469 1144 m 90 542 b 635 1097 90 876 315 1097 b 1131 700 942 1097 1103 889 l 1078 700 b 635 1047 1046 869 911 1047 b 149 542 347 1047 149 851 b 635 36 149 232 347 36 b 1078 383 911 36 1046 214 l 1131 383 b 635 -14 1103 194 942 -14 b 90 542 315 -14 90 207 "},"Č":{"ha":1208,"x_min":0,"x_max":0,"o":"m 857 1389 l 654 1144 l 615 1144 l 413 1389 l 469 1389 l 635 1190 l 800 1389 m 90 542 b 635 1097 90 876 315 1097 b 1131 700 942 1097 1103 889 l 1078 700 b 635 1047 1046 869 911 1047 b 149 542 347 1047 149 851 b 635 36 149 232 347 36 b 1078 383 911 36 1046 214 l 1131 383 b 635 -14 1103 194 942 -14 b 90 542 315 -14 90 207 "},"Ċ":{"ha":1208,"x_min":0,"x_max":0,"o":"m 676 1267 b 635 1225 676 1243 658 1225 b 593 1267 611 1225 593 1243 b 635 1308 593 1290 611 1308 b 676 1267 658 1308 676 1290 m 90 542 b 635 1097 90 876 315 1097 b 1131 700 942 1097 1103 889 l 1078 700 b 635 1047 1046 869 911 1047 b 149 542 347 1047 149 851 b 635 36 149 232 347 36 b 1078 383 911 36 1046 214 l 1131 383 b 635 -14 1103 194 942 -14 b 90 542 315 -14 90 207 "},"Ç":{"ha":1208,"x_min":0,"x_max":0,"o":"m 90 542 b 635 1097 90 876 315 1097 b 1131 700 942 1097 1103 889 l 1078 700 b 635 1047 1046 869 911 1047 b 149 542 347 1047 149 851 b 635 36 149 232 347 36 b 1078 383 911 36 1046 214 l 1131 383 b 654 -12 1103 199 949 -4 l 649 -54 b 785 -181 714 -68 785 -103 b 639 -292 785 -247 725 -292 b 508 -250 582 -292 532 -267 l 528 -211 b 640 -246 549 -225 588 -246 b 736 -179 693 -246 736 -222 b 600 -89 736 -124 669 -96 l 610 -12 b 90 542 303 -1 90 215 "},"Ď":{"ha":1111,"x_min":0,"x_max":0,"o":"m 1021 542 b 433 0 1021 119 749 0 l 132 0 l 132 1083 l 433 1083 b 1021 542 749 1083 1021 964 m 435 50 b 963 542 728 50 963 167 b 435 1033 963 917 728 1033 l 188 1033 l 188 50 m 764 1389 l 561 1144 l 522 1144 l 319 1389 l 376 1389 l 542 1190 l 707 1389 "},"È":{"ha":979,"x_min":0,"x_max":0,"o":"m 854 1083 l 854 1033 l 188 1033 l 188 581 l 799 581 l 799 531 l 188 531 l 188 50 l 882 50 l 882 0 l 132 0 l 132 1083 m 422 1389 l 533 1144 l 481 1144 l 367 1389 "},"É":{"ha":979,"x_min":0,"x_max":0,"o":"m 854 1083 l 854 1033 l 188 1033 l 188 581 l 799 581 l 799 531 l 188 531 l 188 50 l 882 50 l 882 0 l 132 0 l 132 1083 m 647 1389 l 533 1144 l 481 1144 l 592 1389 "},"Ê":{"ha":979,"x_min":0,"x_max":0,"o":"m 854 1083 l 854 1033 l 188 1033 l 188 581 l 799 581 l 799 531 l 188 531 l 188 50 l 882 50 l 882 0 l 132 0 l 132 1083 m 285 1144 l 488 1389 l 526 1389 l 729 1144 l 672 1144 l 507 1343 l 342 1144 "},"Ē":{"ha":979,"x_min":0,"x_max":0,"o":"m 854 1083 l 854 1033 l 188 1033 l 188 581 l 799 581 l 799 531 l 188 531 l 188 50 l 882 50 l 882 0 l 132 0 l 132 1083 m 665 1290 l 665 1243 l 349 1243 l 349 1290 "},"Ĕ":{"ha":979,"x_min":0,"x_max":0,"o":"m 854 1083 l 854 1033 l 188 1033 l 188 581 l 799 581 l 799 531 l 188 531 l 188 50 l 882 50 l 882 0 l 132 0 l 132 1083 m 507 1176 b 689 1389 617 1176 689 1246 l 738 1389 b 507 1131 738 1224 649 1131 b 276 1389 365 1131 276 1224 l 325 1389 b 507 1176 325 1246 397 1176 "},"Ė":{"ha":979,"x_min":0,"x_max":0,"o":"m 854 1083 l 854 1033 l 188 1033 l 188 581 l 799 581 l 799 531 l 188 531 l 188 50 l 882 50 l 882 0 l 132 0 l 132 1083 m 549 1267 b 507 1225 549 1243 531 1225 b 465 1267 483 1225 465 1243 b 507 1308 465 1290 483 1308 b 549 1267 531 1308 549 1290 "},"Ë":{"ha":979,"x_min":0,"x_max":0,"o":"m 854 1083 l 854 1033 l 188 1033 l 188 581 l 799 581 l 799 531 l 188 531 l 188 50 l 882 50 l 882 0 l 132 0 l 132 1083 m 410 1267 b 368 1225 410 1243 392 1225 b 326 1267 344 1225 326 1243 b 368 1308 326 1290 344 1308 b 410 1267 392 1308 410 1290 m 688 1267 b 646 1225 688 1243 669 1225 b 604 1267 622 1225 604 1243 b 646 1308 604 1290 622 1308 b 688 1267 669 1308 688 1290 "},"Ě":{"ha":979,"x_min":0,"x_max":0,"o":"m 854 1083 l 854 1033 l 188 1033 l 188 581 l 799 581 l 799 531 l 188 531 l 188 50 l 882 50 l 882 0 l 132 0 l 132 1083 m 729 1389 l 526 1144 l 488 1144 l 285 1389 l 342 1389 l 507 1190 l 672 1389 "},"Ę":{"ha":979,"x_min":0,"x_max":0,"o":"m 990 -253 b 867 -292 967 -269 925 -292 b 714 -147 769 -292 714 -222 b 800 0 714 -75 757 -29 l 132 0 l 132 1083 l 854 1083 l 854 1033 l 188 1033 l 188 581 l 799 581 l 799 531 l 188 531 l 188 50 l 882 50 l 882 0 b 760 -143 829 -26 760 -65 b 867 -246 760 -203 806 -246 b 971 -214 919 -246 950 -228 "},"Ĝ":{"ha":1228,"x_min":0,"x_max":0,"o":"m 1114 0 l 1064 0 l 1064 311 b 614 -14 1004 146 854 -14 b 90 542 310 -14 90 206 b 629 1097 90 878 308 1097 b 1117 742 908 1097 1072 919 l 1064 742 b 631 1047 1021 899 886 1047 b 149 542 342 1047 149 850 b 618 36 149 233 343 36 b 1046 433 883 36 1022 260 l 672 433 l 672 483 l 1114 483 m 407 1144 l 610 1389 l 649 1389 l 851 1144 l 794 1144 l 629 1343 l 464 1144 "},"Ğ":{"ha":1228,"x_min":0,"x_max":0,"o":"m 1114 0 l 1064 0 l 1064 311 b 614 -14 1004 146 854 -14 b 90 542 310 -14 90 206 b 629 1097 90 878 308 1097 b 1117 742 908 1097 1072 919 l 1064 742 b 631 1047 1021 899 886 1047 b 149 542 342 1047 149 850 b 618 36 149 233 343 36 b 1046 433 883 36 1022 260 l 672 433 l 672 483 l 1114 483 m 629 1176 b 811 1389 739 1176 811 1246 l 860 1389 b 629 1131 860 1224 771 1131 b 399 1389 488 1131 399 1224 l 447 1389 b 629 1176 447 1246 519 1176 "},"Ġ":{"ha":1228,"x_min":0,"x_max":0,"o":"m 1114 0 l 1064 0 l 1064 311 b 614 -14 1004 146 854 -14 b 90 542 310 -14 90 206 b 629 1097 90 878 308 1097 b 1117 742 908 1097 1072 919 l 1064 742 b 631 1047 1021 899 886 1047 b 149 542 342 1047 149 850 b 618 36 149 233 343 36 b 1046 433 883 36 1022 260 l 672 433 l 672 483 l 1114 483 m 671 1267 b 629 1225 671 1243 653 1225 b 588 1267 606 1225 588 1243 b 629 1308 588 1290 606 1308 b 671 1267 653 1308 671 1290 "},"Ģ":{"ha":1228,"x_min":0,"x_max":0,"o":"m 1114 0 l 1064 0 l 1064 311 b 614 -14 1004 146 854 -14 b 90 542 310 -14 90 206 b 629 1097 90 878 308 1097 b 1117 742 908 1097 1072 919 l 1064 742 b 631 1047 1021 899 886 1047 b 149 542 342 1047 149 850 b 618 36 149 233 343 36 b 1046 433 883 36 1022 260 l 672 433 l 672 483 l 1114 483 m 674 -115 b 532 -292 674 -192 628 -264 l 532 -253 b 631 -140 599 -228 625 -181 b 588 -97 606 -140 588 -118 b 629 -56 588 -74 606 -56 b 674 -115 653 -56 674 -74 "},"Ĥ":{"ha":1028,"x_min":0,"x_max":0,"o":"m 896 1083 l 896 0 l 840 0 l 840 531 l 188 531 l 188 0 l 132 0 l 132 1083 l 188 1083 l 188 581 l 840 581 l 840 1083 m 292 1144 l 494 1389 l 533 1389 l 736 1144 l 679 1144 l 514 1343 l 349 1144 "},"Ì":{"ha":375,"x_min":0,"x_max":0,"o":"m 215 0 l 160 0 l 160 1083 l 215 1083 m 103 1389 l 214 1144 l 161 1144 l 47 1389 "},"Í":{"ha":375,"x_min":0,"x_max":0,"o":"m 215 0 l 160 0 l 160 1083 l 215 1083 m 328 1389 l 214 1144 l 161 1144 l 272 1389 "},"Î":{"ha":375,"x_min":0,"x_max":0,"o":"m 215 0 l 160 0 l 160 1083 l 215 1083 m -35 1144 l 168 1389 l 207 1389 l 410 1144 l 353 1144 l 188 1343 l 22 1144 "},"Ï":{"ha":375,"x_min":0,"x_max":0,"o":"m 215 0 l 160 0 l 160 1083 l 215 1083 m 90 1267 b 49 1225 90 1243 72 1225 b 7 1267 25 1225 7 1243 b 49 1308 7 1290 25 1308 b 90 1267 72 1308 90 1290 m 368 1267 b 326 1225 368 1243 350 1225 b 285 1267 303 1225 285 1243 b 326 1308 285 1290 303 1308 b 368 1267 350 1308 368 1290 "},"Ĩ":{"ha":375,"x_min":0,"x_max":0,"o":"m 215 0 l 160 0 l 160 1083 l 215 1083 m 418 1332 b 299 1183 418 1239 365 1183 b 82 1304 167 1183 178 1304 b 6 1201 35 1304 6 1272 l -43 1201 b 76 1350 -43 1294 10 1350 b 293 1229 208 1350 197 1229 b 369 1332 340 1229 369 1261 "},"Ī":{"ha":375,"x_min":0,"x_max":0,"o":"m 215 0 l 160 0 l 160 1083 l 215 1083 m 346 1290 l 346 1243 l 29 1243 l 29 1290 "},"Ĭ":{"ha":375,"x_min":0,"x_max":0,"o":"m 215 0 l 160 0 l 160 1083 l 215 1083 m 188 1176 b 369 1389 297 1176 369 1246 l 418 1389 b 188 1131 418 1224 329 1131 b -43 1389 46 1131 -43 1224 l 6 1389 b 188 1176 6 1246 78 1176 "},"İ":{"ha":375,"x_min":0,"x_max":0,"o":"m 215 0 l 160 0 l 160 1083 l 215 1083 m 229 1267 b 188 1225 229 1243 211 1225 b 146 1267 164 1225 146 1243 b 188 1308 146 1290 164 1308 b 229 1267 211 1308 229 1290 "},"Į":{"ha":375,"x_min":0,"x_max":0,"o":"m 324 -253 b 200 -292 300 -269 258 -292 b 47 -147 103 -292 47 -222 b 160 17 47 -60 110 -11 l 160 1083 l 215 1083 l 215 0 b 93 -143 163 -26 93 -65 b 200 -246 93 -203 139 -246 b 304 -214 253 -246 283 -228 "},"Ĵ":{"ha":694,"x_min":0,"x_max":0,"o":"m 569 1083 l 569 242 b 301 -14 569 88 451 -14 b 35 224 147 -14 44 88 l 92 224 b 301 38 101 114 181 38 b 513 249 435 38 513 129 l 513 1083 m 318 1144 l 521 1389 l 560 1389 l 763 1144 l 706 1144 l 540 1343 l 375 1144 "},"Ķ":{"ha":958,"x_min":0,"x_max":0,"o":"m 188 421 l 797 1083 l 875 1083 l 419 596 l 914 0 l 840 0 l 383 557 l 188 347 l 188 0 l 132 0 l 132 1083 l 188 1083 m 517 -115 b 375 -292 517 -192 471 -264 l 375 -253 b 474 -140 442 -228 468 -181 b 431 -97 449 -140 431 -118 b 472 -56 431 -74 449 -56 b 517 -115 496 -56 517 -74 "},"Ĺ":{"ha":826,"x_min":0,"x_max":0,"o":"m 188 50 l 799 50 l 799 0 l 132 0 l 132 1083 l 188 1083 m 300 1389 l 186 1144 l 133 1144 l 244 1389 "},"Ļ":{"ha":826,"x_min":0,"x_max":0,"o":"m 188 50 l 799 50 l 799 0 l 132 0 l 132 1083 l 188 1083 m 524 -115 b 382 -292 524 -192 478 -264 l 382 -253 b 481 -140 449 -228 475 -181 b 438 -97 456 -140 438 -118 b 479 -56 438 -74 456 -56 b 524 -115 503 -56 524 -74 "},"Ń":{"ha":1042,"x_min":0,"x_max":0,"o":"m 860 69 l 857 444 l 857 1083 l 910 1083 l 910 0 l 840 0 l 182 1014 l 185 639 l 185 0 l 132 0 l 132 1083 l 201 1083 m 661 1389 l 547 1144 l 494 1144 l 606 1389 "},"Ñ":{"ha":1042,"x_min":0,"x_max":0,"o":"m 860 69 l 857 444 l 857 1083 l 910 1083 l 910 0 l 840 0 l 182 1014 l 185 639 l 185 0 l 132 0 l 132 1083 l 201 1083 m 751 1332 b 632 1183 751 1239 699 1183 b 415 1304 500 1183 511 1304 b 339 1201 368 1304 339 1272 l 290 1201 b 410 1350 290 1294 343 1350 b 626 1229 542 1350 531 1229 b 703 1332 674 1229 703 1261 "},"Ň":{"ha":1042,"x_min":0,"x_max":0,"o":"m 860 69 l 857 444 l 857 1083 l 910 1083 l 910 0 l 840 0 l 182 1014 l 185 639 l 185 0 l 132 0 l 132 1083 l 201 1083 m 743 1389 l 540 1144 l 501 1144 l 299 1389 l 356 1389 l 521 1190 l 686 1389 "},"Ņ":{"ha":1042,"x_min":0,"x_max":0,"o":"m 860 69 l 857 444 l 857 1083 l 910 1083 l 910 0 l 840 0 l 182 1014 l 185 639 l 185 0 l 132 0 l 132 1083 l 201 1083 m 565 -115 b 424 -292 565 -192 519 -264 l 424 -253 b 522 -140 490 -228 517 -181 b 479 -97 497 -140 479 -118 b 521 -56 479 -74 497 -56 b 565 -115 544 -56 565 -74 "},"Ò":{"ha":1281,"x_min":0,"x_max":0,"o":"m 149 542 b 640 36 149 231 365 36 b 1132 542 915 36 1132 231 b 640 1047 1132 853 915 1047 b 149 542 365 1047 149 853 m 1190 542 b 640 -14 1190 204 949 -14 b 90 542 332 -14 90 204 b 640 1097 90 879 332 1097 b 1190 542 949 1097 1190 879 m 556 1389 l 667 1144 l 614 1144 l 500 1389 "},"Ó":{"ha":1281,"x_min":0,"x_max":0,"o":"m 781 1389 l 667 1144 l 614 1144 l 725 1389 m 149 542 b 640 36 149 231 365 36 b 1132 542 915 36 1132 231 b 640 1047 1132 853 915 1047 b 149 542 365 1047 149 853 m 1190 542 b 640 -14 1190 204 949 -14 b 90 542 332 -14 90 204 b 640 1097 90 879 332 1097 b 1190 542 949 1097 1190 879 "},"Ô":{"ha":1281,"x_min":0,"x_max":0,"o":"m 418 1144 l 621 1389 l 660 1389 l 863 1144 l 806 1144 l 640 1343 l 475 1144 m 149 542 b 640 36 149 231 365 36 b 1132 542 915 36 1132 231 b 640 1047 1132 853 915 1047 b 149 542 365 1047 149 853 m 1190 542 b 640 -14 1190 204 949 -14 b 90 542 332 -14 90 204 b 640 1097 90 879 332 1097 b 1190 542 949 1097 1190 879 "},"Ö":{"ha":1281,"x_min":0,"x_max":0,"o":"m 149 542 b 640 36 149 231 365 36 b 1132 542 915 36 1132 231 b 640 1047 1132 853 915 1047 b 149 542 365 1047 149 853 m 1190 542 b 640 -14 1190 204 949 -14 b 90 542 332 -14 90 204 b 640 1097 90 879 332 1097 b 1190 542 949 1097 1190 879 m 543 1267 b 501 1225 543 1243 525 1225 b 460 1267 478 1225 460 1243 b 501 1308 460 1290 478 1308 b 543 1267 525 1308 543 1290 m 821 1267 b 779 1225 821 1243 803 1225 b 738 1267 756 1225 738 1243 b 779 1308 738 1290 756 1308 b 821 1267 803 1308 821 1290 "},"Õ":{"ha":1281,"x_min":0,"x_max":0,"o":"m 149 542 b 640 36 149 231 365 36 b 1132 542 915 36 1132 231 b 640 1047 1132 853 915 1047 b 149 542 365 1047 149 853 m 1190 542 b 640 -14 1190 204 949 -14 b 90 542 332 -14 90 204 b 640 1097 90 879 332 1097 b 1190 542 949 1097 1190 879 m 871 1332 b 751 1183 871 1239 818 1183 b 535 1304 619 1183 631 1304 b 458 1201 488 1304 458 1272 l 410 1201 b 529 1350 410 1294 463 1350 b 746 1229 661 1350 650 1229 b 822 1332 793 1229 822 1261 "},"Ō":{"ha":1281,"x_min":0,"x_max":0,"o":"m 149 542 b 640 36 149 231 365 36 b 1132 542 915 36 1132 231 b 640 1047 1132 853 915 1047 b 149 542 365 1047 149 853 m 1190 542 b 640 -14 1190 204 949 -14 b 90 542 332 -14 90 204 b 640 1097 90 879 332 1097 b 1190 542 949 1097 1190 879 m 799 1290 l 799 1243 l 482 1243 l 482 1290 "},"Ŏ":{"ha":1281,"x_min":0,"x_max":0,"o":"m 149 542 b 640 36 149 231 365 36 b 1132 542 915 36 1132 231 b 640 1047 1132 853 915 1047 b 149 542 365 1047 149 853 m 1190 542 b 640 -14 1190 204 949 -14 b 90 542 332 -14 90 204 b 640 1097 90 879 332 1097 b 1190 542 949 1097 1190 879 m 640 1176 b 822 1389 750 1176 822 1246 l 871 1389 b 640 1131 871 1224 782 1131 b 410 1389 499 1131 410 1224 l 458 1389 b 640 1176 458 1246 531 1176 "},"Ő":{"ha":1281,"x_min":0,"x_max":0,"o":"m 149 542 b 640 36 149 231 365 36 b 1132 542 915 36 1132 231 b 640 1047 1132 853 915 1047 b 149 542 365 1047 149 853 m 1190 542 b 640 -14 1190 204 949 -14 b 90 542 332 -14 90 204 b 640 1097 90 879 332 1097 b 1190 542 949 1097 1190 879 m 892 1389 l 778 1144 l 725 1144 l 836 1389 m 669 1389 l 556 1144 l 503 1144 l 614 1389 "},"Ŕ":{"ha":972,"x_min":0,"x_max":0,"o":"m 188 0 l 132 0 l 132 1083 l 550 1083 b 869 783 690 1083 869 1015 b 617 489 869 588 742 508 l 914 0 l 846 0 l 556 483 l 188 483 m 568 533 b 814 783 669 533 814 593 b 568 1033 814 974 669 1033 l 188 1033 l 188 533 m 613 1389 l 499 1144 l 446 1144 l 557 1389 "},"Ř":{"ha":972,"x_min":0,"x_max":0,"o":"m 188 0 l 132 0 l 132 1083 l 550 1083 b 869 783 690 1083 869 1015 b 617 489 869 588 742 508 l 914 0 l 846 0 l 556 483 l 188 483 m 568 533 b 814 783 669 533 814 593 b 568 1033 814 974 669 1033 l 188 1033 l 188 533 m 694 1389 l 492 1144 l 453 1144 l 250 1389 l 307 1389 l 472 1190 l 638 1389 "},"Ŗ":{"ha":972,"x_min":0,"x_max":0,"o":"m 188 0 l 132 0 l 132 1083 l 550 1083 b 869 783 690 1083 869 1015 b 617 489 869 588 742 508 l 914 0 l 846 0 l 556 483 l 188 483 m 568 533 b 814 783 669 533 814 593 b 568 1033 814 974 669 1033 l 188 1033 l 188 533 m 524 -115 b 382 -292 524 -192 478 -264 l 382 -253 b 481 -140 449 -228 475 -181 b 438 -97 456 -140 438 -118 b 479 -56 438 -74 456 -56 b 524 -115 503 -56 524 -74 "},"Ś":{"ha":906,"x_min":0,"x_max":0,"o":"m 576 1389 l 463 1144 l 410 1144 l 521 1389 m 439 1046 b 178 815 283 1046 178 951 b 465 596 178 693 257 615 b 835 296 724 572 835 467 b 456 -14 835 113 675 -14 b 69 383 210 -14 58 143 l 122 383 b 456 36 113 169 242 36 b 778 296 647 36 778 144 b 444 544 778 439 699 521 b 121 815 226 564 121 668 b 439 1096 121 979 254 1096 b 783 744 663 1096 794 963 l 731 744 b 439 1046 740 935 631 1046 "},"Ŝ":{"ha":906,"x_min":0,"x_max":0,"o":"m 214 1144 l 417 1389 l 456 1389 l 658 1144 l 601 1144 l 436 1343 l 271 1144 m 439 1046 b 178 815 283 1046 178 951 b 465 596 178 693 257 615 b 835 296 724 572 835 467 b 456 -14 835 113 675 -14 b 69 383 210 -14 58 143 l 122 383 b 456 36 113 169 242 36 b 778 296 647 36 778 144 b 444 544 778 439 699 521 b 121 815 226 564 121 668 b 439 1096 121 979 254 1096 b 783 744 663 1096 794 963 l 731 744 b 439 1046 740 935 631 1046 "},"Š":{"ha":906,"x_min":0,"x_max":0,"o":"m 658 1389 l 456 1144 l 417 1144 l 214 1389 l 271 1389 l 436 1190 l 601 1389 m 439 1046 b 178 815 283 1046 178 951 b 465 596 178 693 257 615 b 835 296 724 572 835 467 b 456 -14 835 113 675 -14 b 69 383 210 -14 58 143 l 122 383 b 456 36 113 169 242 36 b 778 296 647 36 778 144 b 444 544 778 439 699 521 b 121 815 226 564 121 668 b 439 1096 121 979 254 1096 b 783 744 663 1096 794 963 l 731 744 b 439 1046 740 935 631 1046 "},"Ș":{"ha":906,"x_min":0,"x_max":0,"o":"m 500 -115 b 358 -292 500 -192 454 -264 l 358 -253 b 457 -140 425 -228 451 -181 b 414 -97 432 -140 414 -118 b 456 -56 414 -74 432 -56 b 500 -115 479 -56 500 -74 m 439 1046 b 178 815 283 1046 178 951 b 465 596 178 693 257 615 b 835 296 724 572 835 467 b 456 -14 835 113 675 -14 b 69 383 210 -14 58 143 l 122 383 b 456 36 113 169 242 36 b 778 296 647 36 778 144 b 444 544 778 439 699 521 b 121 815 226 564 121 668 b 439 1096 121 979 254 1096 b 783 744 663 1096 794 963 l 731 744 b 439 1046 740 935 631 1046 "},"Ş":{"ha":906,"x_min":0,"x_max":0,"o":"m 439 1046 b 178 815 283 1046 178 951 b 465 596 178 693 257 615 b 835 296 724 572 835 467 b 474 -14 835 117 683 -7 l 469 -54 b 606 -181 535 -68 606 -103 b 460 -292 606 -247 546 -292 b 329 -250 403 -292 353 -267 l 349 -211 b 461 -246 369 -225 408 -246 b 557 -179 514 -246 557 -222 b 421 -89 557 -124 490 -96 l 431 -12 b 69 383 199 -3 58 151 l 122 383 b 456 36 113 169 242 36 b 778 296 647 36 778 144 b 444 544 778 439 699 521 b 121 815 226 564 121 668 b 439 1096 121 979 254 1096 b 783 744 663 1096 794 963 l 731 744 b 439 1046 740 935 631 1046 "},"Ť":{"ha":847,"x_min":0,"x_max":0,"o":"m 451 0 l 396 0 l 396 1033 l 28 1033 l 28 1083 l 819 1083 l 819 1033 l 451 1033 m 646 1389 l 443 1144 l 404 1144 l 201 1389 l 258 1389 l 424 1190 l 589 1389 "},"Ț":{"ha":847,"x_min":0,"x_max":0,"o":"m 451 0 l 396 0 l 396 1033 l 28 1033 l 28 1083 l 819 1083 l 819 1033 l 451 1033 m 467 -115 b 325 -292 467 -192 421 -264 l 325 -253 b 424 -140 392 -228 418 -181 b 381 -97 399 -140 381 -118 b 422 -56 381 -74 399 -56 b 467 -115 446 -56 467 -74 "},"Ù":{"ha":1075,"x_min":0,"x_max":0,"o":"m 538 -14 b 111 415 244 -14 111 188 l 111 1083 l 168 1083 l 168 406 b 538 38 168 218 281 38 b 907 406 794 38 907 218 l 907 1083 l 964 1083 l 964 415 b 538 -14 964 188 831 -14 m 453 1389 l 564 1144 l 511 1144 l 397 1389 "},"Ú":{"ha":1075,"x_min":0,"x_max":0,"o":"m 538 -14 b 111 415 244 -14 111 188 l 111 1083 l 168 1083 l 168 406 b 538 38 168 218 281 38 b 907 406 794 38 907 218 l 907 1083 l 964 1083 l 964 415 b 538 -14 964 188 831 -14 m 678 1389 l 564 1144 l 511 1144 l 622 1389 "},"Û":{"ha":1075,"x_min":0,"x_max":0,"o":"m 538 -14 b 111 415 244 -14 111 188 l 111 1083 l 168 1083 l 168 406 b 538 38 168 218 281 38 b 907 406 794 38 907 218 l 907 1083 l 964 1083 l 964 415 b 538 -14 964 188 831 -14 m 315 1144 l 518 1389 l 557 1389 l 760 1144 l 703 1144 l 538 1343 l 372 1144 "},"Ü":{"ha":1075,"x_min":0,"x_max":0,"o":"m 538 -14 b 111 415 244 -14 111 188 l 111 1083 l 168 1083 l 168 406 b 538 38 168 218 281 38 b 907 406 794 38 907 218 l 907 1083 l 964 1083 l 964 415 b 538 -14 964 188 831 -14 m 440 1267 b 399 1225 440 1243 422 1225 b 357 1267 375 1225 357 1243 b 399 1308 357 1290 375 1308 b 440 1267 422 1308 440 1290 m 718 1267 b 676 1225 718 1243 700 1225 b 635 1267 653 1225 635 1243 b 676 1308 635 1290 653 1308 b 718 1267 700 1308 718 1290 "},"Ũ":{"ha":1075,"x_min":0,"x_max":0,"o":"m 538 -14 b 111 415 244 -14 111 188 l 111 1083 l 168 1083 l 168 406 b 538 38 168 218 281 38 b 907 406 794 38 907 218 l 907 1083 l 964 1083 l 964 415 b 538 -14 964 188 831 -14 m 768 1332 b 649 1183 768 1239 715 1183 b 432 1304 517 1183 528 1304 b 356 1201 385 1304 356 1272 l 307 1201 b 426 1350 307 1294 360 1350 b 643 1229 558 1350 547 1229 b 719 1332 690 1229 719 1261 "},"Ů":{"ha":1075,"x_min":0,"x_max":0,"o":"m 538 -14 b 111 415 244 -14 111 188 l 111 1083 l 168 1083 l 168 406 b 538 38 168 218 281 38 b 907 406 794 38 907 218 l 907 1083 l 964 1083 l 964 415 b 538 -14 964 188 831 -14 m 401 1267 b 538 1403 401 1342 463 1403 b 674 1267 613 1403 674 1342 b 538 1131 674 1192 613 1131 b 401 1267 463 1131 401 1192 m 444 1267 b 538 1174 444 1215 486 1174 b 631 1267 589 1174 631 1215 b 538 1360 631 1318 589 1360 b 444 1267 486 1360 444 1318 "},"Ū":{"ha":1075,"x_min":0,"x_max":0,"o":"m 538 -14 b 111 415 244 -14 111 188 l 111 1083 l 168 1083 l 168 406 b 538 38 168 218 281 38 b 907 406 794 38 907 218 l 907 1083 l 964 1083 l 964 415 b 538 -14 964 188 831 -14 m 696 1290 l 696 1243 l 379 1243 l 379 1290 "},"Ŭ":{"ha":1075,"x_min":0,"x_max":0,"o":"m 538 -14 b 111 415 244 -14 111 188 l 111 1083 l 168 1083 l 168 406 b 538 38 168 218 281 38 b 907 406 794 38 907 218 l 907 1083 l 964 1083 l 964 415 b 538 -14 964 188 831 -14 m 538 1176 b 719 1389 647 1176 719 1246 l 768 1389 b 538 1131 768 1224 679 1131 b 307 1389 396 1131 307 1224 l 356 1389 b 538 1176 356 1246 428 1176 "},"Ű":{"ha":1075,"x_min":0,"x_max":0,"o":"m 538 -14 b 111 415 244 -14 111 188 l 111 1083 l 168 1083 l 168 406 b 538 38 168 218 281 38 b 907 406 794 38 907 218 l 907 1083 l 964 1083 l 964 415 b 538 -14 964 188 831 -14 m 567 1389 l 453 1144 l 400 1144 l 511 1389 m 789 1389 l 675 1144 l 622 1144 l 733 1389 "},"Ų":{"ha":1075,"x_min":0,"x_max":0,"o":"m 538 -14 b 111 415 244 -14 111 188 l 111 1083 l 168 1083 l 168 406 b 538 38 168 218 281 38 b 907 406 794 38 907 218 l 907 1083 l 964 1083 l 964 415 b 678 4 964 222 867 54 b 540 -143 621 -11 540 -65 b 647 -246 540 -203 586 -246 b 751 -214 700 -246 731 -228 l 771 -253 b 647 -292 747 -269 706 -292 b 494 -147 550 -292 494 -222 b 563 -12 494 -85 526 -43 b 538 -14 563 -12 549 -14 "},"Ẁ":{"ha":1514,"x_min":0,"x_max":0,"o":"m 1125 0 l 857 726 l 757 1008 l 657 726 l 388 0 l 346 0 l 17 1083 l 74 1083 l 283 389 l 369 96 l 474 389 l 731 1083 l 783 1083 l 1040 389 l 1144 96 l 1231 389 l 1440 1083 l 1497 1083 l 1168 0 m 672 1389 l 783 1144 l 731 1144 l 617 1389 "},"Ẃ":{"ha":1514,"x_min":0,"x_max":0,"o":"m 1125 0 l 857 726 l 757 1008 l 657 726 l 388 0 l 346 0 l 17 1083 l 74 1083 l 283 389 l 369 96 l 474 389 l 731 1083 l 783 1083 l 1040 389 l 1144 96 l 1231 389 l 1440 1083 l 1497 1083 l 1168 0 m 897 1389 l 783 1144 l 731 1144 l 842 1389 "},"Ŵ":{"ha":1514,"x_min":0,"x_max":0,"o":"m 1125 0 l 857 726 l 757 1008 l 657 726 l 388 0 l 346 0 l 17 1083 l 74 1083 l 283 389 l 369 96 l 474 389 l 731 1083 l 783 1083 l 1040 389 l 1144 96 l 1231 389 l 1440 1083 l 1497 1083 l 1168 0 m 535 1144 l 738 1389 l 776 1389 l 979 1144 l 922 1144 l 757 1343 l 592 1144 "},"Ẅ":{"ha":1514,"x_min":0,"x_max":0,"o":"m 1125 0 l 857 726 l 757 1008 l 657 726 l 388 0 l 346 0 l 17 1083 l 74 1083 l 283 389 l 369 96 l 474 389 l 731 1083 l 783 1083 l 1040 389 l 1144 96 l 1231 389 l 1440 1083 l 1497 1083 l 1168 0 m 660 1267 b 618 1225 660 1243 642 1225 b 576 1267 594 1225 576 1243 b 618 1308 576 1290 594 1308 b 660 1267 642 1308 660 1290 m 938 1267 b 896 1225 938 1243 919 1225 b 854 1267 872 1225 854 1243 b 896 1308 854 1290 872 1308 b 938 1267 919 1308 938 1290 "},"Ý":{"ha":917,"x_min":0,"x_max":0,"o":"m 89 1083 l 317 719 l 458 492 l 600 719 l 828 1083 l 896 1083 l 486 440 l 486 0 l 431 0 l 431 440 l 21 1083 m 599 1389 l 485 1144 l 432 1144 l 543 1389 "},"Ŷ":{"ha":917,"x_min":0,"x_max":0,"o":"m 89 1083 l 317 719 l 458 492 l 600 719 l 828 1083 l 896 1083 l 486 440 l 486 0 l 431 0 l 431 440 l 21 1083 m 236 1144 l 439 1389 l 478 1389 l 681 1144 l 624 1144 l 458 1343 l 293 1144 "},"Ÿ":{"ha":917,"x_min":0,"x_max":0,"o":"m 89 1083 l 317 719 l 458 492 l 600 719 l 828 1083 l 896 1083 l 486 440 l 486 0 l 431 0 l 431 440 l 21 1083 m 361 1267 b 319 1225 361 1243 343 1225 b 278 1267 296 1225 278 1243 b 319 1308 278 1290 296 1308 b 361 1267 343 1308 361 1290 m 639 1267 b 597 1225 639 1243 621 1225 b 556 1267 574 1225 556 1243 b 597 1308 556 1290 574 1308 b 639 1267 621 1308 639 1290 "},"Ź":{"ha":972,"x_min":0,"x_max":0,"o":"m 271 215 l 140 47 l 417 49 l 892 49 l 892 0 l 69 0 l 69 36 l 701 868 l 832 1036 l 556 1035 l 108 1035 l 108 1083 l 903 1083 l 903 1047 m 646 1389 l 532 1144 l 479 1144 l 590 1389 "},"Ž":{"ha":972,"x_min":0,"x_max":0,"o":"m 271 215 l 140 47 l 417 49 l 892 49 l 892 0 l 69 0 l 69 36 l 701 868 l 832 1036 l 556 1035 l 108 1035 l 108 1083 l 903 1083 l 903 1047 m 728 1389 l 525 1144 l 486 1144 l 283 1389 l 340 1389 l 506 1190 l 671 1389 "},"Ż":{"ha":972,"x_min":0,"x_max":0,"o":"m 271 215 l 140 47 l 417 49 l 892 49 l 892 0 l 69 0 l 69 36 l 701 868 l 832 1036 l 556 1035 l 108 1035 l 108 1083 l 903 1083 l 903 1047 m 547 1267 b 506 1225 547 1243 529 1225 b 464 1267 482 1225 464 1243 b 506 1308 464 1290 482 1308 b 547 1267 529 1308 547 1290 "},"Ḃ":{"ha":958,"x_min":0,"x_max":0,"o":"m 132 0 l 132 1083 l 549 1083 b 844 804 724 1083 844 979 b 669 561 844 651 728 578 b 881 297 761 543 881 463 b 567 0 881 115 771 0 m 574 50 b 822 297 707 50 822 131 b 574 531 822 465 679 531 l 188 531 l 188 50 m 188 1033 l 188 581 l 556 581 b 785 804 682 581 785 664 b 567 1033 785 943 690 1033 m 507 1267 b 465 1225 507 1243 489 1225 b 424 1267 442 1225 424 1243 b 465 1308 424 1290 442 1308 b 507 1267 489 1308 507 1290 "},"Ḋ":{"ha":1111,"x_min":0,"x_max":0,"o":"m 1021 542 b 433 0 1021 119 749 0 l 132 0 l 132 1083 l 433 1083 b 1021 542 749 1083 1021 964 m 435 50 b 963 542 728 50 963 167 b 435 1033 963 917 728 1033 l 188 1033 l 188 50 m 583 1267 b 542 1225 583 1243 565 1225 b 500 1267 518 1225 500 1243 b 542 1308 500 1290 518 1308 b 583 1267 565 1308 583 1290 "},"Ḟ":{"ha":889,"x_min":0,"x_max":0,"o":"m 188 0 l 132 0 l 132 1083 l 826 1083 l 826 1033 l 188 1033 l 188 581 l 771 581 l 771 531 l 188 531 m 535 1267 b 493 1225 535 1243 517 1225 b 451 1267 469 1225 451 1243 b 493 1308 451 1290 469 1308 b 535 1267 517 1308 535 1290 "},"Ṁ":{"ha":1239,"x_min":0,"x_max":0,"o":"m 278 754 l 182 988 l 186 639 l 186 0 l 132 0 l 132 1083 l 199 1083 l 518 310 l 619 58 l 721 310 l 1040 1083 l 1107 1083 l 1107 0 l 1053 0 l 1053 639 l 1057 988 l 961 754 l 650 0 l 589 0 m 661 1267 b 619 1225 661 1243 643 1225 b 578 1267 596 1225 578 1243 b 619 1308 578 1290 596 1308 b 661 1267 643 1308 661 1290 "},"Ṗ":{"ha":903,"x_min":0,"x_max":0,"o":"m 538 517 b 794 775 663 517 794 585 b 538 1033 794 965 663 1033 l 188 1033 l 188 517 m 188 0 l 132 0 l 132 1083 l 515 1083 b 850 775 682 1083 850 1011 b 515 467 850 539 682 467 l 188 467 m 493 1267 b 451 1225 493 1243 475 1225 b 410 1267 428 1225 410 1243 b 451 1308 410 1290 428 1308 b 493 1267 475 1308 493 1290 "},"Ṫ":{"ha":847,"x_min":0,"x_max":0,"o":"m 451 0 l 396 0 l 396 1033 l 28 1033 l 28 1083 l 819 1083 l 819 1033 l 451 1033 m 465 1267 b 424 1225 465 1243 447 1225 b 382 1267 400 1225 382 1243 b 424 1308 382 1290 400 1308 b 465 1267 447 1308 465 1290 "},"Ỳ":{"ha":917,"x_min":0,"x_max":0,"o":"m 89 1083 l 317 719 l 458 492 l 600 719 l 828 1083 l 896 1083 l 486 440 l 486 0 l 431 0 l 431 440 l 21 1083 m 374 1389 l 485 1144 l 432 1144 l 318 1389 "},"Ȳ":{"ha":917,"x_min":0,"x_max":0,"o":"m 89 1083 l 317 719 l 458 492 l 600 719 l 828 1083 l 896 1083 l 486 440 l 486 0 l 431 0 l 431 440 l 21 1083 m 617 1290 l 617 1243 l 300 1243 l 300 1290 "},"à":{"ha":750,"x_min":0,"x_max":0,"o":"m 99 506 b 376 750 108 646 199 750 b 654 474 563 750 654 633 l 654 0 l 610 0 l 610 213 b 300 -14 583 96 467 -14 b 75 190 165 -14 75 71 b 304 407 75 328 161 382 l 601 458 l 601 475 b 378 701 601 606 531 701 b 149 506 221 701 158 618 m 128 192 b 308 35 128 99 200 35 b 601 315 496 35 601 178 l 601 411 l 329 365 b 128 192 182 340 128 289 m 289 1083 l 400 839 l 347 839 l 233 1083 "},"á":{"ha":750,"x_min":0,"x_max":0,"o":"m 99 506 b 376 750 108 646 199 750 b 654 474 563 750 654 633 l 654 0 l 610 0 l 610 213 b 300 -14 583 96 467 -14 b 75 190 165 -14 75 71 b 304 407 75 328 161 382 l 601 458 l 601 475 b 378 701 601 606 531 701 b 149 506 221 701 158 618 m 128 192 b 308 35 128 99 200 35 b 601 315 496 35 601 178 l 601 411 l 329 365 b 128 192 182 340 128 289 m 514 1083 l 400 839 l 347 839 l 458 1083 "},"â":{"ha":750,"x_min":0,"x_max":0,"o":"m 99 506 b 376 750 108 646 199 750 b 654 474 563 750 654 633 l 654 0 l 610 0 l 610 213 b 300 -14 583 96 467 -14 b 75 190 165 -14 75 71 b 304 407 75 328 161 382 l 601 458 l 601 475 b 378 701 601 606 531 701 b 149 506 221 701 158 618 m 128 192 b 308 35 128 99 200 35 b 601 315 496 35 601 178 l 601 411 l 329 365 b 128 192 182 340 128 289 m 151 839 l 354 1083 l 393 1083 l 596 839 l 539 839 l 374 1038 l 208 839 "},"ä":{"ha":750,"x_min":0,"x_max":0,"o":"m 99 506 b 376 750 108 646 199 750 b 654 474 563 750 654 633 l 654 0 l 610 0 l 610 213 b 300 -14 583 96 467 -14 b 75 190 165 -14 75 71 b 304 407 75 328 161 382 l 601 458 l 601 475 b 378 701 601 606 531 701 b 149 506 221 701 158 618 m 128 192 b 308 35 128 99 200 35 b 601 315 496 35 601 178 l 601 411 l 329 365 b 128 192 182 340 128 289 m 276 961 b 235 919 276 938 258 919 b 193 961 211 919 193 938 b 235 1003 193 985 211 1003 b 276 961 258 1003 276 985 m 554 961 b 513 919 554 938 536 919 b 471 961 489 919 471 938 b 513 1003 471 985 489 1003 b 554 961 536 1003 554 985 "},"ã":{"ha":750,"x_min":0,"x_max":0,"o":"m 99 506 b 376 750 108 646 199 750 b 654 474 563 750 654 633 l 654 0 l 610 0 l 610 213 b 300 -14 583 96 467 -14 b 75 190 165 -14 75 71 b 304 407 75 328 161 382 l 601 458 l 601 475 b 378 701 601 606 531 701 b 149 506 221 701 158 618 m 128 192 b 308 35 128 99 200 35 b 601 315 496 35 601 178 l 601 411 l 329 365 b 128 192 182 340 128 289 m 604 1026 b 485 878 604 933 551 878 b 268 999 353 878 364 999 b 192 896 221 999 192 967 l 143 896 b 263 1044 143 989 196 1044 b 479 924 394 1044 383 924 b 556 1026 526 924 556 956 "},"ā":{"ha":750,"x_min":0,"x_max":0,"o":"m 99 506 b 376 750 108 646 199 750 b 654 474 563 750 654 633 l 654 0 l 610 0 l 610 213 b 300 -14 583 96 467 -14 b 75 190 165 -14 75 71 b 304 407 75 328 161 382 l 601 458 l 601 475 b 378 701 601 606 531 701 b 149 506 221 701 158 618 m 128 192 b 308 35 128 99 200 35 b 601 315 496 35 601 178 l 601 411 l 329 365 b 128 192 182 340 128 289 m 532 985 l 532 938 l 215 938 l 215 985 "},"ă":{"ha":750,"x_min":0,"x_max":0,"o":"m 99 506 b 376 750 108 646 199 750 b 654 474 563 750 654 633 l 654 0 l 610 0 l 610 213 b 300 -14 583 96 467 -14 b 75 190 165 -14 75 71 b 304 407 75 328 161 382 l 601 458 l 601 475 b 378 701 601 606 531 701 b 149 506 221 701 158 618 m 128 192 b 308 35 128 99 200 35 b 601 315 496 35 601 178 l 601 411 l 329 365 b 128 192 182 340 128 289 m 374 871 b 556 1083 483 871 556 940 l 604 1083 b 374 825 604 918 515 825 b 143 1083 232 825 143 918 l 192 1083 b 374 871 192 940 264 871 "},"ą":{"ha":750,"x_min":0,"x_max":0,"o":"m 763 -253 b 639 -292 739 -269 697 -292 b 486 -147 542 -292 486 -222 b 610 22 486 -53 558 -4 l 610 213 b 300 -14 583 96 467 -14 b 75 190 165 -14 75 71 b 304 407 75 328 161 382 l 601 458 l 601 475 b 378 701 601 606 531 701 b 149 506 221 701 158 618 l 99 506 b 376 750 108 646 199 750 b 654 474 563 750 654 633 l 654 0 b 532 -143 601 -26 532 -65 b 639 -246 532 -203 578 -246 b 743 -214 692 -246 722 -228 m 128 192 b 308 35 128 99 200 35 b 601 315 496 35 601 178 l 601 411 l 329 365 b 128 192 182 340 128 289 "},"ć":{"ha":842,"x_min":0,"x_max":0,"o":"m 582 1083 l 468 839 l 415 839 l 526 1083 m 65 368 b 439 750 65 606 236 750 b 783 456 665 750 764 588 l 731 456 b 439 701 715 567 639 701 b 118 368 264 701 118 574 b 439 35 118 163 264 35 b 731 281 639 35 715 169 l 783 281 b 439 -14 764 149 665 -14 b 65 368 236 -14 65 131 "},"ĉ":{"ha":842,"x_min":0,"x_max":0,"o":"m 219 839 l 422 1083 l 461 1083 l 664 839 l 607 839 l 442 1038 l 276 839 m 65 368 b 439 750 65 606 236 750 b 783 456 665 750 764 588 l 731 456 b 439 701 715 567 639 701 b 118 368 264 701 118 574 b 439 35 118 163 264 35 b 731 281 639 35 715 169 l 783 281 b 439 -14 764 149 665 -14 b 65 368 236 -14 65 131 "},"č":{"ha":842,"x_min":0,"x_max":0,"o":"m 664 1083 l 461 839 l 422 839 l 219 1083 l 276 1083 l 442 885 l 607 1083 m 65 368 b 439 750 65 606 236 750 b 783 456 665 750 764 588 l 731 456 b 439 701 715 567 639 701 b 118 368 264 701 118 574 b 439 35 118 163 264 35 b 731 281 639 35 715 169 l 783 281 b 439 -14 764 149 665 -14 b 65 368 236 -14 65 131 "},"ċ":{"ha":842,"x_min":0,"x_max":0,"o":"m 483 961 b 442 919 483 938 465 919 b 400 961 418 919 400 938 b 442 1003 400 985 418 1003 b 483 961 465 1003 483 985 m 65 368 b 439 750 65 606 236 750 b 783 456 665 750 764 588 l 731 456 b 439 701 715 567 639 701 b 118 368 264 701 118 574 b 439 35 118 163 264 35 b 731 281 639 35 715 169 l 783 281 b 439 -14 764 149 665 -14 b 65 368 236 -14 65 131 "},"ç":{"ha":842,"x_min":0,"x_max":0,"o":"m 65 368 b 439 750 65 606 236 750 b 783 456 665 750 764 588 l 731 456 b 439 701 715 567 639 701 b 118 368 264 701 118 574 b 439 35 118 163 264 35 b 731 281 639 35 715 169 l 783 281 b 461 -12 764 153 671 -3 l 456 -54 b 592 -181 521 -68 592 -103 b 446 -292 592 -247 532 -292 b 315 -250 389 -292 339 -267 l 335 -211 b 447 -246 356 -225 394 -246 b 543 -179 500 -246 543 -222 b 407 -89 543 -124 476 -96 l 417 -12 b 65 368 224 -3 65 139 "},"đ":{"ha":917,"x_min":0,"x_max":0,"o":"m 65 368 b 421 750 65 606 233 750 b 746 522 613 750 717 615 l 746 899 l 472 899 l 472 946 l 746 946 l 746 1111 l 799 1111 l 799 946 l 951 946 l 951 899 l 799 899 l 799 0 l 754 0 l 754 242 b 421 -14 726 122 613 -14 b 65 368 233 -14 65 131 m 746 368 b 433 701 746 600 574 701 b 118 368 276 701 118 588 b 433 35 118 149 276 35 b 746 368 574 35 746 136 "},"è":{"ha":826,"x_min":0,"x_max":0,"o":"m 429 -14 b 65 368 222 -14 65 132 b 414 750 65 589 221 750 b 761 368 608 750 761 589 b 760 350 761 358 760 350 l 121 350 b 429 35 124 160 244 35 b 696 200 592 35 669 113 l 749 200 b 429 -14 717 89 619 -14 m 706 397 b 414 701 697 571 583 701 b 122 397 243 701 129 569 m 329 1083 l 440 839 l 388 839 l 274 1083 "},"é":{"ha":826,"x_min":0,"x_max":0,"o":"m 429 -14 b 65 368 222 -14 65 132 b 414 750 65 589 221 750 b 761 368 608 750 761 589 b 760 350 761 358 760 350 l 121 350 b 429 35 124 160 244 35 b 696 200 592 35 669 113 l 749 200 b 429 -14 717 89 619 -14 m 706 397 b 414 701 697 571 583 701 b 122 397 243 701 129 569 m 554 1083 l 440 839 l 388 839 l 499 1083 "},"ê":{"ha":826,"x_min":0,"x_max":0,"o":"m 429 -14 b 65 368 222 -14 65 132 b 414 750 65 589 221 750 b 761 368 608 750 761 589 b 760 350 761 358 760 350 l 121 350 b 429 35 124 160 244 35 b 696 200 592 35 669 113 l 749 200 b 429 -14 717 89 619 -14 m 706 397 b 414 701 697 571 583 701 b 122 397 243 701 129 569 m 192 839 l 394 1083 l 433 1083 l 636 839 l 579 839 l 414 1038 l 249 839 "},"ë":{"ha":826,"x_min":0,"x_max":0,"o":"m 429 -14 b 65 368 222 -14 65 132 b 414 750 65 589 221 750 b 761 368 608 750 761 589 b 760 350 761 358 760 350 l 121 350 b 429 35 124 160 244 35 b 696 200 592 35 669 113 l 749 200 b 429 -14 717 89 619 -14 m 706 397 b 414 701 697 571 583 701 b 122 397 243 701 129 569 m 317 961 b 275 919 317 938 299 919 b 233 961 251 919 233 938 b 275 1003 233 985 251 1003 b 317 961 299 1003 317 985 m 594 961 b 553 919 594 938 576 919 b 511 961 529 919 511 938 b 553 1003 511 985 529 1003 b 594 961 576 1003 594 985 "},"ě":{"ha":826,"x_min":0,"x_max":0,"o":"m 429 -14 b 65 368 222 -14 65 132 b 414 750 65 589 221 750 b 761 368 608 750 761 589 b 760 350 761 358 760 350 l 121 350 b 429 35 124 160 244 35 b 696 200 592 35 669 113 l 749 200 b 429 -14 717 89 619 -14 m 706 397 b 414 701 697 571 583 701 b 122 397 243 701 129 569 m 636 1083 l 433 839 l 394 839 l 192 1083 l 249 1083 l 414 885 l 579 1083 "},"ē":{"ha":826,"x_min":0,"x_max":0,"o":"m 429 -14 b 65 368 222 -14 65 132 b 414 750 65 589 221 750 b 761 368 608 750 761 589 b 760 350 761 358 760 350 l 121 350 b 429 35 124 160 244 35 b 696 200 592 35 669 113 l 749 200 b 429 -14 717 89 619 -14 m 706 397 b 414 701 697 571 583 701 b 122 397 243 701 129 569 m 572 985 l 572 938 l 256 938 l 256 985 "},"ĕ":{"ha":826,"x_min":0,"x_max":0,"o":"m 429 -14 b 65 368 222 -14 65 132 b 414 750 65 589 221 750 b 761 368 608 750 761 589 b 760 350 761 358 760 350 l 121 350 b 429 35 124 160 244 35 b 696 200 592 35 669 113 l 749 200 b 429 -14 717 89 619 -14 m 706 397 b 414 701 697 571 583 701 b 122 397 243 701 129 569 m 414 871 b 596 1083 524 871 596 940 l 644 1083 b 414 825 644 918 556 825 b 183 1083 272 825 183 918 l 232 1083 b 414 871 232 940 304 871 "},"ė":{"ha":826,"x_min":0,"x_max":0,"o":"m 429 -14 b 65 368 222 -14 65 132 b 414 750 65 589 221 750 b 761 368 608 750 761 589 b 760 350 761 358 760 350 l 121 350 b 429 35 124 160 244 35 b 696 200 592 35 669 113 l 749 200 b 429 -14 717 89 619 -14 m 706 397 b 414 701 697 571 583 701 b 122 397 243 701 129 569 m 456 961 b 414 919 456 938 438 919 b 372 961 390 919 372 938 b 414 1003 372 985 390 1003 b 456 961 438 1003 456 985 "},"ę":{"ha":826,"x_min":0,"x_max":0,"o":"m 429 -14 b 65 368 222 -14 65 132 b 414 750 65 589 221 750 b 761 368 608 750 761 589 b 760 350 761 358 760 350 l 121 350 b 429 35 124 160 244 35 b 696 200 592 35 669 113 l 749 200 b 540 0 724 113 658 31 b 418 -143 488 -26 418 -65 b 525 -246 418 -203 464 -246 b 629 -214 578 -246 608 -228 l 649 -253 b 525 -292 625 -269 583 -292 b 372 -147 428 -292 372 -222 b 439 -14 372 -85 403 -43 l 429 -14 m 706 397 b 414 701 697 571 583 701 b 122 397 243 701 129 569 "},"ĝ":{"ha":888,"x_min":0,"x_max":0,"o":"m 208 839 l 411 1083 l 450 1083 l 653 839 l 596 839 l 431 1038 l 265 839 m 731 226 b 422 14 696 111 578 14 b 65 382 228 14 65 164 b 422 750 65 600 228 750 b 738 518 581 750 708 649 l 738 736 l 783 736 l 783 22 b 429 -290 783 -172 650 -290 b 88 -75 208 -290 104 -175 l 142 -75 b 429 -243 154 -146 235 -243 b 731 22 624 -243 731 -142 m 731 382 b 428 701 731 615 557 701 b 118 382 268 701 118 586 b 428 63 118 178 268 63 b 731 382 557 63 731 149 "},"ğ":{"ha":888,"x_min":0,"x_max":0,"o":"m 431 871 b 613 1083 540 871 613 940 l 661 1083 b 431 825 661 918 572 825 b 200 1083 289 825 200 918 l 249 1083 b 431 871 249 940 321 871 m 731 226 b 422 14 696 111 578 14 b 65 382 228 14 65 164 b 422 750 65 600 228 750 b 738 518 581 750 708 649 l 738 736 l 783 736 l 783 22 b 429 -290 783 -172 650 -290 b 88 -75 208 -290 104 -175 l 142 -75 b 429 -243 154 -146 235 -243 b 731 22 624 -243 731 -142 m 731 382 b 428 701 731 615 557 701 b 118 382 268 701 118 586 b 428 63 118 178 268 63 b 731 382 557 63 731 149 "},"ġ":{"ha":888,"x_min":0,"x_max":0,"o":"m 472 961 b 431 919 472 938 454 919 b 389 961 407 919 389 938 b 431 1003 389 985 407 1003 b 472 961 454 1003 472 985 m 731 226 b 422 14 696 111 578 14 b 65 382 228 14 65 164 b 422 750 65 600 228 750 b 738 518 581 750 708 649 l 738 736 l 783 736 l 783 22 b 429 -290 783 -172 650 -290 b 88 -75 208 -290 104 -175 l 142 -75 b 429 -243 154 -146 235 -243 b 731 22 624 -243 731 -142 m 731 382 b 428 701 731 615 557 701 b 118 382 268 701 118 586 b 428 63 118 178 268 63 b 731 382 557 63 731 149 "},"ĥ":{"ha":819,"x_min":0,"x_max":0,"o":"m 157 1111 l 157 565 b 443 750 192 665 294 750 b 724 471 614 750 724 626 l 724 0 l 671 0 l 671 458 b 432 701 671 594 578 701 b 157 436 254 701 157 576 l 157 0 l 104 0 l 104 1111 m -92 1144 l 111 1389 l 150 1389 l 353 1144 l 296 1144 l 131 1343 l -35 1144 "},"ħ":{"ha":833,"x_min":0,"x_max":0,"o":"m 171 1111 l 171 946 l 444 946 l 444 899 l 171 899 l 171 565 b 457 750 206 665 308 750 b 738 471 628 750 738 626 l 738 0 l 685 0 l 685 458 b 446 701 685 594 592 701 b 171 436 268 701 171 576 l 171 0 l 118 0 l 118 899 l -35 899 l -35 946 l 118 946 l 118 1111 "},"í":{"ha":289,"x_min":0,"x_max":0,"o":"m 171 0 l 118 0 l 118 736 l 171 736 m 285 1083 l 171 839 l 118 839 l 229 1083 "},"ì":{"ha":289,"x_min":0,"x_max":0,"o":"m 171 0 l 118 0 l 118 736 l 171 736 m 60 1083 l 171 839 l 118 839 l 4 1083 "},"î":{"ha":289,"x_min":0,"x_max":0,"o":"m 171 0 l 118 0 l 118 736 l 171 736 m -78 839 l 125 1083 l 164 1083 l 367 839 l 310 839 l 144 1038 l -21 839 "},"ï":{"ha":289,"x_min":0,"x_max":0,"o":"m 171 0 l 118 0 l 118 736 l 171 736 m 47 961 b 6 919 47 938 29 919 b -36 961 -18 919 -36 938 b 6 1003 -36 985 -18 1003 b 47 961 29 1003 47 985 m 325 961 b 283 919 325 938 307 919 b 242 961 260 919 242 938 b 283 1003 242 985 260 1003 b 325 961 307 1003 325 985 "},"ĩ":{"ha":289,"x_min":0,"x_max":0,"o":"m 171 0 l 118 0 l 118 736 l 171 736 m 375 1026 b 256 878 375 933 322 878 b 39 999 124 878 135 999 b -37 896 -8 999 -37 967 l -86 896 b 33 1044 -86 989 -33 1044 b 250 924 165 1044 154 924 b 326 1026 297 924 326 956 "},"ī":{"ha":289,"x_min":0,"x_max":0,"o":"m 171 0 l 118 0 l 118 736 l 171 736 m 303 985 l 303 938 l -14 938 l -14 985 "},"ĭ":{"ha":289,"x_min":0,"x_max":0,"o":"m 171 0 l 118 0 l 118 736 l 171 736 m 144 871 b 326 1083 254 871 326 940 l 375 1083 b 144 825 375 918 286 825 b -86 1083 3 825 -86 918 l -37 1083 b 144 871 -37 940 35 871 "},"į":{"ha":289,"x_min":0,"x_max":0,"o":"m 279 -253 b 156 -292 256 -269 214 -292 b 3 -147 58 -292 3 -222 b 118 18 3 -58 67 -10 l 118 736 l 171 736 l 171 0 b 49 -143 118 -26 49 -65 b 156 -246 49 -203 94 -246 b 260 -214 208 -246 239 -228 m 186 961 b 144 919 186 938 168 919 b 103 961 121 919 103 938 b 144 1003 103 985 121 1003 b 186 961 168 1003 186 985 "},"ĵ":{"ha":289,"x_min":0,"x_max":0,"o":"m -78 839 l 125 1083 l 164 1083 l 367 839 l 310 839 l 144 1038 l -21 839 m 171 -149 b 22 -290 171 -232 113 -290 b -119 -165 -68 -290 -114 -229 l -69 -165 b 22 -242 -65 -200 -37 -242 b 118 -144 83 -242 118 -201 l 118 736 l 171 736 "},"ķ":{"ha":724,"x_min":0,"x_max":0,"o":"m 104 0 l 104 1111 l 157 1111 l 157 325 l 571 736 l 646 736 l 328 425 l 699 0 l 629 0 l 292 390 l 157 258 l 157 0 m 424 -115 b 282 -292 424 -192 378 -264 l 282 -253 b 381 -140 349 -228 375 -181 b 338 -97 356 -140 338 -118 b 379 -56 338 -74 356 -56 b 424 -115 403 -56 424 -74 "},"ĸ":{"ha":724,"x_min":0,"x_max":0,"o":"m 104 0 l 104 736 l 157 736 l 157 325 l 571 736 l 646 736 l 328 425 l 699 0 l 629 0 l 292 390 l 157 258 l 157 0 "},"ĺ":{"ha":289,"x_min":0,"x_max":0,"o":"m 118 1111 l 171 1111 l 171 0 l 118 0 m 285 1389 l 171 1144 l 118 1144 l 229 1389 "},"ļ":{"ha":289,"x_min":0,"x_max":0,"o":"m 118 1111 l 171 1111 l 171 0 l 118 0 m 189 -115 b 47 -292 189 -192 143 -264 l 47 -253 b 146 -140 114 -228 140 -181 b 103 -97 121 -140 103 -118 b 144 -56 103 -74 121 -56 b 189 -115 168 -56 189 -74 "},"ŀ":{"ha":428,"x_min":0,"x_max":0,"o":"m 118 1111 l 171 1111 l 171 0 l 118 0 m 400 467 b 358 425 400 444 382 425 b 317 467 335 425 317 444 b 358 508 317 490 335 508 b 400 467 382 508 400 490 "},"ń":{"ha":819,"x_min":0,"x_max":0,"o":"m 554 1083 l 440 839 l 388 839 l 499 1083 m 149 736 l 149 536 b 443 750 174 649 281 750 b 724 471 614 750 724 626 l 724 0 l 671 0 l 671 458 b 432 701 671 594 578 701 b 157 436 254 701 157 576 l 157 0 l 104 0 l 104 736 "},"ñ":{"ha":819,"x_min":0,"x_max":0,"o":"m 644 1026 b 525 878 644 933 592 878 b 308 999 393 878 404 999 b 232 896 261 999 232 967 l 183 896 b 303 1044 183 989 236 1044 b 519 924 435 1044 424 924 b 596 1026 567 924 596 956 m 149 736 l 149 536 b 443 750 174 649 281 750 b 724 471 614 750 724 626 l 724 0 l 671 0 l 671 458 b 432 701 671 594 578 701 b 157 436 254 701 157 576 l 157 0 l 104 0 l 104 736 "},"ň":{"ha":819,"x_min":0,"x_max":0,"o":"m 636 1083 l 433 839 l 394 839 l 192 1083 l 249 1083 l 414 885 l 579 1083 m 149 736 l 149 536 b 443 750 174 649 281 750 b 724 471 614 750 724 626 l 724 0 l 671 0 l 671 458 b 432 701 671 594 578 701 b 157 436 254 701 157 576 l 157 0 l 104 0 l 104 736 "},"ņ":{"ha":819,"x_min":0,"x_max":0,"o":"m 458 -115 b 317 -292 458 -192 413 -264 l 317 -253 b 415 -140 383 -228 410 -181 b 372 -97 390 -140 372 -118 b 414 -56 372 -74 390 -56 b 458 -115 438 -56 458 -74 m 149 736 l 149 536 b 443 750 174 649 281 750 b 724 471 614 750 724 626 l 724 0 l 671 0 l 671 458 b 432 701 671 594 578 701 b 157 436 254 701 157 576 l 157 0 l 104 0 l 104 736 "},"ò":{"ha":892,"x_min":0,"x_max":0,"o":"m 446 35 b 774 368 619 35 774 167 b 446 701 774 569 619 701 b 118 368 272 701 118 569 b 446 35 118 167 272 35 m 446 -14 b 65 368 246 -14 65 135 b 446 750 65 601 246 750 b 826 368 646 750 826 601 b 446 -14 826 135 646 -14 m 361 1083 l 472 839 l 419 839 l 306 1083 "},"ó":{"ha":892,"x_min":0,"x_max":0,"o":"m 446 35 b 774 368 619 35 774 167 b 446 701 774 569 619 701 b 118 368 272 701 118 569 b 446 35 118 167 272 35 m 446 -14 b 65 368 246 -14 65 135 b 446 750 65 601 246 750 b 826 368 646 750 826 601 b 446 -14 826 135 646 -14 m 586 1083 l 472 839 l 419 839 l 531 1083 "},"ô":{"ha":892,"x_min":0,"x_max":0,"o":"m 446 35 b 774 368 619 35 774 167 b 446 701 774 569 619 701 b 118 368 272 701 118 569 b 446 35 118 167 272 35 m 446 -14 b 65 368 246 -14 65 135 b 446 750 65 601 246 750 b 826 368 646 750 826 601 b 446 -14 826 135 646 -14 m 224 839 l 426 1083 l 465 1083 l 668 839 l 611 839 l 446 1038 l 281 839 "},"ö":{"ha":892,"x_min":0,"x_max":0,"o":"m 446 35 b 774 368 619 35 774 167 b 446 701 774 569 619 701 b 118 368 272 701 118 569 b 446 35 118 167 272 35 m 446 -14 b 65 368 246 -14 65 135 b 446 750 65 601 246 750 b 826 368 646 750 826 601 b 446 -14 826 135 646 -14 m 349 961 b 307 919 349 938 331 919 b 265 961 283 919 265 938 b 307 1003 265 985 283 1003 b 349 961 331 1003 349 985 m 626 961 b 585 919 626 938 608 919 b 543 961 561 919 543 938 b 585 1003 543 985 561 1003 b 626 961 608 1003 626 985 "},"õ":{"ha":892,"x_min":0,"x_max":0,"o":"m 446 35 b 774 368 619 35 774 167 b 446 701 774 569 619 701 b 118 368 272 701 118 569 b 446 35 118 167 272 35 m 446 -14 b 65 368 246 -14 65 135 b 446 750 65 601 246 750 b 826 368 646 750 826 601 b 446 -14 826 135 646 -14 m 676 1026 b 557 878 676 933 624 878 b 340 999 425 878 436 999 b 264 896 293 999 264 967 l 215 896 b 335 1044 215 989 268 1044 b 551 924 467 1044 456 924 b 628 1026 599 924 628 956 "},"ō":{"ha":892,"x_min":0,"x_max":0,"o":"m 446 35 b 774 368 619 35 774 167 b 446 701 774 569 619 701 b 118 368 272 701 118 569 b 446 35 118 167 272 35 m 446 -14 b 65 368 246 -14 65 135 b 446 750 65 601 246 750 b 826 368 646 750 826 601 b 446 -14 826 135 646 -14 m 604 985 l 604 938 l 288 938 l 288 985 "},"ŏ":{"ha":892,"x_min":0,"x_max":0,"o":"m 446 871 b 628 1083 556 871 628 940 l 676 1083 b 446 825 676 918 588 825 b 215 1083 304 825 215 918 l 264 1083 b 446 871 264 940 336 871 m 446 35 b 774 368 619 35 774 167 b 446 701 774 569 619 701 b 118 368 272 701 118 569 b 446 35 118 167 272 35 m 446 -14 b 65 368 246 -14 65 135 b 446 750 65 601 246 750 b 826 368 646 750 826 601 b 446 -14 826 135 646 -14 "},"ő":{"ha":892,"x_min":0,"x_max":0,"o":"m 446 35 b 774 368 619 35 774 167 b 446 701 774 569 619 701 b 118 368 272 701 118 569 b 446 35 118 167 272 35 m 446 -14 b 65 368 246 -14 65 135 b 446 750 65 601 246 750 b 826 368 646 750 826 601 b 446 -14 826 135 646 -14 m 697 1083 l 583 839 l 531 839 l 642 1083 m 475 1083 l 361 839 l 308 839 l 419 1083 "},"ŕ":{"ha":608,"x_min":0,"x_max":0,"o":"m 488 1083 l 374 839 l 321 839 l 432 1083 m 522 506 b 358 701 522 619 463 701 b 157 475 246 701 157 604 l 157 0 l 104 0 l 104 736 l 149 736 l 149 564 b 371 750 172 679 264 750 b 572 506 494 750 576 647 "},"ř":{"ha":608,"x_min":0,"x_max":0,"o":"m 569 1083 l 367 839 l 328 839 l 125 1083 l 182 1083 l 347 885 l 513 1083 m 522 506 b 358 701 522 619 463 701 b 157 475 246 701 157 604 l 157 0 l 104 0 l 104 736 l 149 736 l 149 564 b 371 750 172 679 264 750 b 572 506 494 750 576 647 "},"ŗ":{"ha":608,"x_min":0,"x_max":0,"o":"m 175 -115 b 33 -292 175 -192 129 -264 l 33 -253 b 132 -140 100 -228 126 -181 b 89 -97 107 -140 89 -118 b 131 -56 89 -74 107 -56 b 175 -115 154 -56 175 -74 m 522 506 b 358 701 522 619 463 701 b 157 475 246 701 157 604 l 157 0 l 104 0 l 104 736 l 149 736 l 149 564 b 371 750 172 679 264 750 b 572 506 494 750 576 647 "},"ś":{"ha":644,"x_min":0,"x_max":0,"o":"m 467 1083 l 353 839 l 300 839 l 411 1083 m 318 704 b 146 556 217 704 146 643 b 343 403 146 467 188 418 b 592 199 508 386 592 319 b 329 -12 592 75 482 -12 b 54 281 150 -12 43 100 l 103 281 b 329 32 93 122 182 32 b 539 194 451 32 539 99 b 328 356 539 292 475 340 b 93 553 163 372 93 443 b 318 749 93 667 186 749 b 554 506 474 749 565 656 l 506 506 b 318 704 517 633 444 704 "},"ŝ":{"ha":644,"x_min":0,"x_max":0,"o":"m 104 839 l 307 1083 l 346 1083 l 549 839 l 492 839 l 326 1038 l 161 839 m 318 704 b 146 556 217 704 146 643 b 343 403 146 467 188 418 b 592 199 508 386 592 319 b 329 -12 592 75 482 -12 b 54 281 150 -12 43 100 l 103 281 b 329 32 93 122 182 32 b 539 194 451 32 539 99 b 328 356 539 292 475 340 b 93 553 163 372 93 443 b 318 749 93 667 186 749 b 554 506 474 749 565 656 l 506 506 b 318 704 517 633 444 704 "},"š":{"ha":644,"x_min":0,"x_max":0,"o":"m 549 1083 l 346 839 l 307 839 l 104 1083 l 161 1083 l 326 885 l 492 1083 m 318 704 b 146 556 217 704 146 643 b 343 403 146 467 188 418 b 592 199 508 386 592 319 b 329 -12 592 75 482 -12 b 54 281 150 -12 43 100 l 103 281 b 329 32 93 122 182 32 b 539 194 451 32 539 99 b 328 356 539 292 475 340 b 93 553 163 372 93 443 b 318 749 93 667 186 749 b 554 506 474 749 565 656 l 506 506 b 318 704 517 633 444 704 "},"ș":{"ha":644,"x_min":0,"x_max":0,"o":"m 372 -115 b 231 -292 372 -192 326 -264 l 231 -253 b 329 -140 297 -228 324 -181 b 286 -97 304 -140 286 -118 b 328 -56 286 -74 304 -56 b 372 -115 351 -56 372 -74 m 318 704 b 146 556 217 704 146 643 b 343 403 146 467 188 418 b 592 199 508 386 592 319 b 329 -12 592 75 482 -12 b 54 281 150 -12 43 100 l 103 281 b 329 32 93 122 182 32 b 539 194 451 32 539 99 b 328 356 539 292 475 340 b 93 553 163 372 93 443 b 318 749 93 667 186 749 b 554 506 474 749 565 656 l 506 506 b 318 704 517 633 444 704 "},"ş":{"ha":644,"x_min":0,"x_max":0,"o":"m 318 704 b 146 556 217 704 146 643 b 343 403 146 467 188 418 b 592 199 508 386 592 319 b 347 -11 592 79 490 -4 l 342 -54 b 478 -181 407 -68 478 -103 b 332 -292 478 -247 418 -292 b 201 -250 275 -292 225 -267 l 221 -211 b 333 -246 242 -225 281 -246 b 429 -179 386 -246 429 -222 b 293 -89 429 -124 363 -96 l 303 -11 b 54 281 139 -1 43 108 l 103 281 b 329 32 93 122 182 32 b 539 194 451 32 539 99 b 328 356 539 292 475 340 b 93 553 163 372 93 443 b 318 749 93 667 186 749 b 554 506 474 749 565 656 l 506 506 b 318 704 517 633 444 704 "},"ț":{"ha":522,"x_min":0,"x_max":0,"o":"m 240 689 l 240 138 b 329 32 240 75 272 32 b 415 113 386 32 415 76 l 464 113 b 331 -14 460 44 411 -14 b 188 132 244 -14 188 49 l 188 689 l 49 689 l 49 736 l 188 736 l 188 924 l 240 924 l 240 736 l 469 736 l 469 689 m 369 -115 b 228 -292 369 -192 324 -264 l 228 -253 b 326 -140 294 -228 321 -181 b 283 -97 301 -140 283 -118 b 325 -56 283 -74 301 -56 b 369 -115 349 -56 369 -74 "},"ŧ":{"ha":522,"x_min":0,"x_max":0,"o":"m 240 689 l 240 397 l 428 397 l 428 350 l 240 350 l 240 138 b 329 32 240 75 272 32 b 415 113 386 32 415 76 l 464 113 b 331 -14 460 44 411 -14 b 188 132 244 -14 188 49 l 188 350 l 56 350 l 56 397 l 188 397 l 188 689 l 49 689 l 49 736 l 188 736 l 188 924 l 240 924 l 240 736 l 469 736 l 469 689 "},"ù":{"ha":819,"x_min":0,"x_max":0,"o":"m 321 1083 l 432 839 l 379 839 l 265 1083 m 715 0 l 671 0 l 671 200 b 376 -14 646 88 539 -14 b 96 265 206 -14 96 110 l 96 736 l 149 736 l 149 278 b 388 35 149 142 242 35 b 663 300 565 35 663 160 l 663 736 l 715 736 "},"ú":{"ha":819,"x_min":0,"x_max":0,"o":"m 546 1083 l 432 839 l 379 839 l 490 1083 m 715 0 l 671 0 l 671 200 b 376 -14 646 88 539 -14 b 96 265 206 -14 96 110 l 96 736 l 149 736 l 149 278 b 388 35 149 142 242 35 b 663 300 565 35 663 160 l 663 736 l 715 736 "},"û":{"ha":819,"x_min":0,"x_max":0,"o":"m 183 839 l 386 1083 l 425 1083 l 628 839 l 571 839 l 406 1038 l 240 839 m 715 0 l 671 0 l 671 200 b 376 -14 646 88 539 -14 b 96 265 206 -14 96 110 l 96 736 l 149 736 l 149 278 b 388 35 149 142 242 35 b 663 300 565 35 663 160 l 663 736 l 715 736 "},"ü":{"ha":819,"x_min":0,"x_max":0,"o":"m 308 961 b 267 919 308 938 290 919 b 225 961 243 919 225 938 b 267 1003 225 985 243 1003 b 308 961 290 1003 308 985 m 586 961 b 544 919 586 938 568 919 b 503 961 521 919 503 938 b 544 1003 503 985 521 1003 b 586 961 568 1003 586 985 m 715 0 l 671 0 l 671 200 b 376 -14 646 88 539 -14 b 96 265 206 -14 96 110 l 96 736 l 149 736 l 149 278 b 388 35 149 142 242 35 b 663 300 565 35 663 160 l 663 736 l 715 736 "},"ũ":{"ha":819,"x_min":0,"x_max":0,"o":"m 636 1026 b 517 878 636 933 583 878 b 300 999 385 878 396 999 b 224 896 253 999 224 967 l 175 896 b 294 1044 175 989 228 1044 b 511 924 426 1044 415 924 b 588 1026 558 924 588 956 m 715 0 l 671 0 l 671 200 b 376 -14 646 88 539 -14 b 96 265 206 -14 96 110 l 96 736 l 149 736 l 149 278 b 388 35 149 142 242 35 b 663 300 565 35 663 160 l 663 736 l 715 736 "},"ů":{"ha":819,"x_min":0,"x_max":0,"o":"m 269 961 b 406 1097 269 1036 331 1097 b 542 961 481 1097 542 1036 b 406 825 542 886 481 825 b 269 961 331 825 269 886 m 313 961 b 406 868 313 910 354 868 b 499 961 457 868 499 910 b 406 1054 499 1013 457 1054 b 313 961 354 1054 313 1013 m 715 0 l 671 0 l 671 200 b 376 -14 646 88 539 -14 b 96 265 206 -14 96 110 l 96 736 l 149 736 l 149 278 b 388 35 149 142 242 35 b 663 300 565 35 663 160 l 663 736 l 715 736 "},"ū":{"ha":819,"x_min":0,"x_max":0,"o":"m 564 985 l 564 938 l 247 938 l 247 985 m 715 0 l 671 0 l 671 200 b 376 -14 646 88 539 -14 b 96 265 206 -14 96 110 l 96 736 l 149 736 l 149 278 b 388 35 149 142 242 35 b 663 300 565 35 663 160 l 663 736 l 715 736 "},"ŭ":{"ha":819,"x_min":0,"x_max":0,"o":"m 406 871 b 588 1083 515 871 588 940 l 636 1083 b 406 825 636 918 547 825 b 175 1083 264 825 175 918 l 224 1083 b 406 871 224 940 296 871 m 715 0 l 671 0 l 671 200 b 376 -14 646 88 539 -14 b 96 265 206 -14 96 110 l 96 736 l 149 736 l 149 278 b 388 35 149 142 242 35 b 663 300 565 35 663 160 l 663 736 l 715 736 "},"ű":{"ha":819,"x_min":0,"x_max":0,"o":"m 435 1083 l 321 839 l 268 839 l 379 1083 m 657 1083 l 543 839 l 490 839 l 601 1083 m 715 0 l 671 0 l 671 200 b 376 -14 646 88 539 -14 b 96 265 206 -14 96 110 l 96 736 l 149 736 l 149 278 b 388 35 149 142 242 35 b 663 300 565 35 663 160 l 663 736 l 715 736 "},"ų":{"ha":819,"x_min":0,"x_max":0,"o":"m 824 -253 b 700 -292 800 -269 758 -292 b 547 -147 603 -292 547 -222 b 671 22 547 -53 619 -4 l 671 200 b 376 -14 646 88 539 -14 b 96 265 206 -14 96 110 l 96 736 l 149 736 l 149 278 b 388 35 149 142 242 35 b 663 300 565 35 663 160 l 663 736 l 715 736 l 715 0 b 593 -143 663 -26 593 -65 b 700 -246 593 -203 639 -246 b 804 -214 753 -246 783 -228 "},"ẁ":{"ha":1069,"x_min":0,"x_max":0,"o":"m 800 60 l 992 736 l 1046 736 l 829 -14 l 772 -14 l 535 679 l 297 -14 l 240 -14 l 24 736 l 78 736 l 269 60 l 501 736 l 568 736 m 450 1083 l 561 839 l 508 839 l 394 1083 "},"ẃ":{"ha":1069,"x_min":0,"x_max":0,"o":"m 800 60 l 992 736 l 1046 736 l 829 -14 l 772 -14 l 535 679 l 297 -14 l 240 -14 l 24 736 l 78 736 l 269 60 l 501 736 l 568 736 m 675 1083 l 561 839 l 508 839 l 619 1083 "},"ŵ":{"ha":1069,"x_min":0,"x_max":0,"o":"m 800 60 l 992 736 l 1046 736 l 829 -14 l 772 -14 l 535 679 l 297 -14 l 240 -14 l 24 736 l 78 736 l 269 60 l 501 736 l 568 736 m 313 839 l 515 1083 l 554 1083 l 757 839 l 700 839 l 535 1038 l 369 839 "},"ẅ":{"ha":1069,"x_min":0,"x_max":0,"o":"m 800 60 l 992 736 l 1046 736 l 829 -14 l 772 -14 l 535 679 l 297 -14 l 240 -14 l 24 736 l 78 736 l 269 60 l 501 736 l 568 736 m 715 961 b 674 919 715 938 697 919 b 632 961 650 919 632 938 b 674 1003 632 985 650 1003 b 715 961 697 1003 715 985 m 438 961 b 396 919 438 938 419 919 b 354 961 372 919 354 938 b 396 1003 354 985 372 1003 b 438 961 419 1003 438 985 "},"ý":{"ha":706,"x_min":0,"x_max":0,"o":"m 396 63 l 258 -278 l 199 -278 l 325 25 l 36 736 l 99 736 l 353 88 l 608 736 l 669 736 m 493 1083 l 379 839 l 326 839 l 438 1083 "},"ŷ":{"ha":706,"x_min":0,"x_max":0,"o":"m 396 63 l 258 -278 l 199 -278 l 325 25 l 36 736 l 99 736 l 353 88 l 608 736 l 669 736 m 131 839 l 333 1083 l 372 1083 l 575 839 l 518 839 l 353 1038 l 188 839 "},"ÿ":{"ha":706,"x_min":0,"x_max":0,"o":"m 396 63 l 258 -278 l 199 -278 l 325 25 l 36 736 l 99 736 l 353 88 l 608 736 l 669 736 m 256 961 b 214 919 256 938 238 919 b 172 961 190 919 172 938 b 214 1003 172 985 190 1003 b 256 961 238 1003 256 985 m 533 961 b 492 919 533 938 515 919 b 450 961 468 919 450 938 b 492 1003 450 985 468 1003 b 533 961 515 1003 533 985 "},"ỳ":{"ha":706,"x_min":0,"x_max":0,"o":"m 396 63 l 258 -278 l 199 -278 l 325 25 l 36 736 l 99 736 l 353 88 l 608 736 l 669 736 m 268 1083 l 379 839 l 326 839 l 213 1083 "},"ȳ":{"ha":706,"x_min":0,"x_max":0,"o":"m 396 63 l 258 -278 l 199 -278 l 325 25 l 36 736 l 99 736 l 353 88 l 608 736 l 669 736 m 511 985 l 511 938 l 194 938 l 194 985 "},"ź":{"ha":725,"x_min":0,"x_max":0,"o":"m 503 1083 l 389 839 l 336 839 l 447 1083 m 72 42 l 575 690 l 344 689 l 86 689 l 86 736 l 639 736 l 639 694 l 136 46 l 367 47 l 653 47 l 653 0 l 72 0 "},"ž":{"ha":725,"x_min":0,"x_max":0,"o":"m 585 1083 l 382 839 l 343 839 l 140 1083 l 197 1083 l 363 885 l 528 1083 m 72 42 l 575 690 l 344 689 l 86 689 l 86 736 l 639 736 l 639 694 l 136 46 l 367 47 l 653 47 l 653 0 l 72 0 "},"ż":{"ha":725,"x_min":0,"x_max":0,"o":"m 404 961 b 363 919 404 938 386 919 b 321 961 339 919 321 938 b 363 1003 321 985 339 1003 b 404 961 386 1003 404 985 m 72 42 l 575 690 l 344 689 l 86 689 l 86 736 l 639 736 l 639 694 l 136 46 l 367 47 l 653 47 l 653 0 l 72 0 "},"ŋ":{"ha":819,"x_min":0,"x_max":0,"o":"m 149 736 l 149 536 b 443 750 174 649 281 750 b 724 471 614 750 724 626 l 724 -149 b 575 -290 724 -232 665 -290 b 433 -165 485 -290 439 -229 l 483 -165 b 575 -242 488 -200 515 -242 b 671 -144 636 -242 671 -201 l 671 458 b 432 701 671 594 578 701 b 157 436 254 701 157 576 l 157 0 l 104 0 l 104 736 "},"ď":{"ha":886,"x_min":0,"x_max":0,"o":"m 983 1111 l 953 867 l 908 867 l 936 1111 m 65 368 b 421 750 65 606 233 750 b 746 522 613 750 717 615 l 746 1111 l 799 1111 l 799 0 l 754 0 l 754 242 b 421 -14 726 122 613 -14 b 65 368 233 -14 65 131 m 746 368 b 433 701 746 600 574 701 b 118 368 276 701 118 588 b 433 35 118 149 276 35 b 746 368 574 35 746 136 "},"ľ":{"ha":289,"x_min":0,"x_max":0,"o":"m 118 1111 l 171 1111 l 171 0 l 118 0 m 356 1111 l 325 867 l 281 867 l 308 1111 "},"ť":{"ha":522,"x_min":0,"x_max":0,"o":"m 240 689 l 240 138 b 329 32 240 75 272 32 b 415 113 386 32 415 76 l 464 113 b 331 -14 460 44 411 -14 b 188 132 244 -14 188 49 l 188 689 l 49 689 l 49 736 l 188 736 l 188 924 l 240 924 l 240 736 l 469 736 l 469 689 m 425 1111 l 394 867 l 350 867 l 378 1111 "},"Ľ":{"ha":826,"x_min":0,"x_max":0,"o":"m 188 50 l 799 50 l 799 0 l 132 0 l 132 1083 l 188 1083 m 574 1111 l 543 867 l 499 867 l 526 1111 "},"ḃ":{"ha":903,"x_min":0,"x_max":0,"o":"m 172 1267 b 131 1225 172 1243 154 1225 b 89 1267 107 1225 89 1243 b 131 1308 89 1290 107 1308 b 172 1267 154 1308 172 1290 m 838 368 b 482 -14 838 131 669 -14 b 149 242 290 -14 176 122 l 149 0 l 104 0 l 104 1111 l 157 1111 l 157 522 b 482 750 186 615 290 750 b 838 368 669 750 838 606 m 157 368 b 469 35 157 136 329 35 b 785 368 626 35 785 149 b 469 701 785 588 626 701 b 157 368 329 701 157 600 "},"ḋ":{"ha":903,"x_min":0,"x_max":0,"o":"m 814 1267 b 772 1225 814 1243 796 1225 b 731 1267 749 1225 731 1243 b 772 1308 731 1290 749 1308 b 814 1267 796 1308 814 1290 m 65 368 b 421 750 65 606 233 750 b 746 522 613 750 717 615 l 746 1111 l 799 1111 l 799 0 l 754 0 l 754 242 b 421 -14 726 122 613 -14 b 65 368 233 -14 65 131 m 746 368 b 433 701 746 600 574 701 b 118 368 276 701 118 588 b 433 35 118 149 276 35 b 746 368 574 35 746 136 "},"ḟ":{"ha":514,"x_min":0,"x_max":0,"o":"m 239 689 l 239 0 l 186 0 l 186 689 l 49 689 l 49 736 l 186 736 l 186 953 b 364 1124 186 1051 258 1124 b 532 972 471 1124 526 1050 l 485 972 b 365 1078 481 1024 443 1078 b 239 950 285 1078 239 1024 l 239 736 l 468 736 l 468 689 m 379 1294 b 338 1253 379 1271 361 1253 b 296 1294 314 1253 296 1271 b 338 1336 296 1318 314 1336 b 379 1294 361 1336 379 1318 "},"ṁ":{"ha":1261,"x_min":0,"x_max":0,"o":"m 675 961 b 633 919 675 938 657 919 b 592 961 610 919 592 938 b 633 1003 592 985 610 1003 b 675 961 657 1003 675 985 m 104 0 l 104 736 l 149 736 l 149 561 b 410 750 178 682 286 750 b 650 567 533 750 622 683 b 913 750 681 685 786 750 b 1161 500 1068 750 1161 639 l 1161 0 l 1108 0 l 1108 486 b 900 701 1108 610 1031 701 b 660 467 744 701 660 590 l 660 0 l 607 0 l 607 486 b 399 701 607 610 529 701 b 157 467 243 701 157 590 l 157 0 "},"ṗ":{"ha":903,"x_min":0,"x_max":0,"o":"m 511 961 b 469 919 511 938 493 919 b 428 961 446 919 428 938 b 469 1003 428 985 446 1003 b 511 961 493 1003 511 985 m 838 368 b 482 -14 838 131 669 -14 b 157 214 290 -14 186 121 l 157 -278 l 104 -278 l 104 736 l 149 736 l 149 494 b 482 750 176 614 290 750 b 838 368 669 750 838 606 m 157 368 b 469 35 157 136 329 35 b 785 368 626 35 785 149 b 469 701 785 588 626 701 b 157 368 329 701 157 600 "},"ṫ":{"ha":522,"x_min":0,"x_max":0,"o":"m 240 689 l 240 138 b 329 32 240 75 272 32 b 415 113 386 32 415 76 l 464 113 b 331 -14 460 44 411 -14 b 188 132 244 -14 188 49 l 188 689 l 49 689 l 49 736 l 188 736 l 188 924 l 240 924 l 240 736 l 469 736 l 469 689 m 256 1079 b 214 1038 256 1056 238 1038 b 172 1079 190 1038 172 1056 b 214 1121 172 1103 190 1121 b 256 1079 238 1121 256 1103 "},"ģ":{"ha":888,"x_min":0,"x_max":0,"o":"m 386 903 b 528 1079 386 979 432 1051 l 528 1040 b 429 928 461 1015 435 968 b 472 885 454 928 472 906 b 431 843 472 861 454 843 b 386 903 407 843 386 861 m 731 226 b 422 14 696 111 578 14 b 65 382 228 14 65 164 b 422 750 65 600 228 750 b 738 518 581 750 708 649 l 738 736 l 783 736 l 783 22 b 429 -290 783 -172 650 -290 b 88 -75 208 -290 104 -175 l 142 -75 b 429 -243 154 -146 235 -243 b 731 22 624 -243 731 -142 m 731 382 b 428 701 731 615 557 701 b 118 382 268 701 118 586 b 428 63 118 178 268 63 b 731 382 557 63 731 149 "},"œ":{"ha":1535,"x_min":0,"x_max":0,"o":"m 829 350 b 1138 35 832 160 953 35 b 1404 200 1300 35 1378 113 l 1457 200 b 1138 -14 1425 89 1328 -14 b 799 235 972 -14 844 78 b 446 -14 746 79 604 -14 b 65 368 246 -14 65 135 b 446 750 65 601 246 750 b 799 499 606 750 747 656 b 1122 750 844 649 969 750 b 1469 368 1317 750 1469 589 b 1468 350 1469 358 1468 350 m 446 35 b 774 368 619 35 774 167 b 446 701 774 569 619 701 b 118 368 272 701 118 569 b 446 35 118 167 272 35 m 1414 397 b 1122 701 1406 571 1292 701 b 831 397 951 701 838 569 "},"ł":{"ha":479,"x_min":0,"x_max":0,"o":"m 254 569 l 254 0 l 201 0 l 201 533 l 56 432 l 56 492 l 201 593 l 201 1111 l 254 1111 l 254 629 l 428 750 l 428 690 "},"®":{"ha":500,"x_min":0,"x_max":0,"o":"m 49 924 b 250 1125 49 1035 139 1125 b 451 924 361 1125 451 1035 b 250 722 451 813 361 722 b 49 924 139 722 49 813 m 72 924 b 250 746 72 825 151 746 b 428 924 349 746 428 825 b 250 1101 428 1022 349 1101 b 72 924 151 1101 72 1022 m 193 796 l 163 796 l 163 1053 l 269 1053 b 346 978 308 1053 346 1028 b 288 904 346 935 319 910 l 354 796 l 319 796 l 256 903 l 193 903 m 268 931 b 315 978 290 931 315 944 b 268 1025 315 1013 290 1025 l 193 1025 l 193 931 "},"™":{"ha":819,"x_min":0,"x_max":0,"o":"m 189 736 l 156 736 l 156 1081 l 32 1081 l 32 1111 l 314 1111 l 314 1081 l 189 1081 m 460 975 l 431 1051 l 432 939 l 432 736 l 400 736 l 400 1111 l 442 1111 l 540 867 l 574 781 l 607 867 l 707 1111 l 747 1111 l 747 736 l 715 736 l 715 939 l 717 1051 l 688 975 l 590 736 l 557 736 "},"℠":{"ha":819,"x_min":0,"x_max":0,"o":"m 172 1086 b 93 1017 136 1086 93 1065 b 181 947 93 982 111 958 b 304 839 267 933 304 904 b 174 731 304 775 251 731 b 43 843 81 731 46 783 l 78 843 b 174 761 81 800 106 761 b 269 839 235 761 269 793 b 172 917 269 882 247 903 b 58 1017 101 929 58 954 b 172 1117 58 1078 106 1117 b 290 1014 263 1117 288 1061 l 257 1014 b 172 1086 253 1049 236 1086 m 460 975 l 431 1051 l 432 939 l 432 736 l 400 736 l 400 1111 l 442 1111 l 540 867 l 574 781 l 607 867 l 707 1111 l 747 1111 l 747 736 l 715 736 l 715 939 l 717 1051 l 688 975 l 590 736 l 557 736 "}," ":{"ha":328,"x_min":0,"x_max":0,"o":""}," ":{"ha":653,"x_min":0,"x_max":0,"o":""}," ":{"ha":1306,"x_min":0,"x_max":0,"o":""}," ":{"ha":435,"x_min":0,"x_max":0,"o":""}," ":{"ha":326,"x_min":0,"x_max":0,"o":""}," ":{"ha":217,"x_min":0,"x_max":0,"o":""}," ":{"ha":903,"x_min":0,"x_max":0,"o":""}," ":{"ha":317,"x_min":0,"x_max":0,"o":""}," ":{"ha":158,"x_min":0,"x_max":0,"o":""}," ":{"ha":79,"x_min":0,"x_max":0,"o":""},"​":{"ha":0,"x_min":0,"x_max":0,"o":""},"₡":{"ha":903,"x_min":0,"x_max":0,"o":"m 75 542 b 469 957 75 792 243 954 l 503 1083 l 557 1083 l 524 954 b 619 933 558 950 590 944 l 658 1083 l 713 1083 l 668 913 b 819 722 753 869 807 799 l 763 722 b 656 863 753 778 714 828 l 479 176 b 763 361 636 178 744 261 l 819 361 b 476 126 799 235 667 126 l 467 126 l 435 0 l 381 0 l 414 131 b 318 154 381 135 349 143 l 279 0 l 225 0 l 271 178 b 75 542 151 244 75 372 m 129 542 b 283 229 129 400 189 290 l 457 907 b 129 542 268 897 129 757 m 332 204 b 426 179 361 192 393 183 l 607 885 b 511 906 578 896 546 903 l 332 204 "},"₵":{"ha":903,"x_min":0,"x_max":0,"o":"m 510 1278 l 510 1097 b 843 783 693 1093 838 974 l 792 783 b 510 1049 785 953 653 1044 l 510 35 b 792 300 653 39 785 129 l 843 300 b 510 -14 838 108 693 -10 l 510 -194 l 456 -194 l 456 -11 b 83 542 226 10 83 210 b 456 1094 83 874 226 1072 l 456 1278 m 138 542 b 456 36 138 238 260 60 l 456 1046 b 138 542 260 1024 138 846 "},"₦":{"ha":903,"x_min":0,"x_max":0,"o":"m 428 667 l 656 667 l 656 1083 l 708 1083 l 708 667 l 847 667 l 847 619 l 708 619 l 708 464 l 847 464 l 847 417 l 708 417 l 708 0 l 636 0 l 474 417 l 247 417 l 247 0 l 194 0 l 194 417 l 56 417 l 56 464 l 194 464 l 194 619 l 56 619 l 56 667 l 194 667 l 194 1083 l 267 1083 m 507 464 l 656 464 l 656 619 l 446 619 m 247 464 l 456 464 l 396 619 l 247 619 m 247 667 l 378 667 l 244 1008 m 656 417 l 525 417 l 658 75 "},"₪":{"ha":903,"x_min":0,"x_max":0,"o":"m 165 0 l 111 0 l 111 1083 l 231 1083 b 593 772 461 1083 593 1008 l 593 251 l 539 251 l 539 775 b 236 1033 539 974 438 1033 l 165 1033 m 371 50 l 442 50 b 744 308 643 50 744 110 l 744 1083 l 799 1083 l 799 311 b 436 0 799 75 667 0 l 317 0 l 317 832 l 371 832 "},"₀":{"ha":417,"x_min":0,"x_max":0,"o":"m 82 244 b 208 28 82 113 125 28 b 335 244 293 28 335 113 b 208 460 335 375 293 460 b 82 244 124 460 82 375 m 372 244 b 208 -7 372 97 319 -7 b 46 244 99 -7 46 97 b 208 494 46 390 99 494 b 372 244 319 494 372 390 "},"₁":{"ha":417,"x_min":0,"x_max":0,"o":"m 363 0 l 49 0 l 49 33 l 190 33 l 190 438 b 43 343 190 438 139 368 l 43 378 b 200 494 140 404 200 494 l 228 494 l 228 33 l 363 33 "},"₂":{"ha":417,"x_min":0,"x_max":0,"o":"m 38 25 b 243 172 38 25 172 103 b 332 342 306 235 332 285 b 208 460 332 407 288 460 b 83 335 129 460 88 414 l 47 335 b 208 494 53 431 101 494 b 369 343 307 494 369 428 b 264 151 369 272 335 219 b 101 33 204 94 121 44 l 381 33 l 381 0 l 38 0 "},"₃":{"ha":417,"x_min":0,"x_max":0,"o":"m 211 -7 b 43 153 104 -6 49 54 l 79 153 b 211 28 83 69 131 28 b 335 133 297 28 335 78 b 210 236 335 199 293 236 l 147 236 l 147 268 l 210 268 b 322 364 282 268 322 304 b 210 460 322 421 279 460 b 89 335 133 460 93 418 l 53 335 b 210 494 57 432 108 494 b 358 367 300 494 358 442 b 269 253 358 297 313 263 b 372 131 321 244 372 210 b 211 -7 372 57 318 -7 "},"₄":{"ha":417,"x_min":0,"x_max":0,"o":"m 311 332 l 311 154 l 379 154 l 379 119 l 311 119 l 311 0 l 275 0 l 275 119 l 38 119 l 38 144 b 208 488 136 238 189 350 l 243 488 b 83 153 225 349 169 228 l 275 154 l 275 332 "},"₅":{"ha":417,"x_min":0,"x_max":0,"o":"m 210 -7 b 43 153 103 -7 47 54 l 79 153 b 210 28 82 69 131 28 b 336 156 293 28 336 85 b 211 288 336 226 293 288 b 92 218 154 288 113 258 l 60 229 l 72 488 l 353 488 l 356 454 l 107 454 l 99 268 b 218 319 121 297 160 319 b 374 156 315 319 374 244 b 210 -7 374 68 317 -7 "},"₆":{"ha":417,"x_min":0,"x_max":0,"o":"m 338 151 b 215 275 338 224 292 275 b 93 151 139 275 93 224 b 215 28 93 79 139 28 b 338 151 292 28 338 79 m 218 494 b 372 335 317 494 368 433 l 336 335 b 218 460 332 418 293 460 b 82 238 135 460 82 388 b 83 204 82 229 82 219 b 219 308 99 267 147 308 b 375 151 315 308 375 240 b 215 -7 375 63 317 -7 b 46 236 113 -7 46 67 b 218 494 46 408 114 494 "},"₇":{"ha":417,"x_min":0,"x_max":0,"o":"m 163 0 b 338 454 163 200 246 372 l 69 454 l 69 335 l 38 335 l 38 488 l 388 488 l 388 463 b 199 0 271 357 199 194 "},"₈":{"ha":417,"x_min":0,"x_max":0,"o":"m 208 268 b 317 364 281 268 317 310 b 208 460 317 419 278 460 b 100 364 139 460 100 419 b 208 268 100 310 138 268 m 208 28 b 331 132 292 28 331 76 b 208 236 331 188 293 236 b 86 131 125 236 86 188 b 208 28 86 76 126 28 m 208 -7 b 50 129 103 -7 50 57 b 146 253 50 204 103 242 b 64 367 107 264 64 303 b 208 494 64 440 118 494 b 354 367 299 494 354 440 b 271 253 354 303 311 264 b 368 129 315 242 368 204 b 208 -7 368 57 315 -7 "},"₉":{"ha":417,"x_min":0,"x_max":0,"o":"m 83 336 b 206 213 83 264 129 213 b 328 336 281 213 328 264 b 206 460 328 408 281 460 b 83 336 129 460 83 408 m 196 -7 b 42 153 99 -7 46 54 l 78 153 b 196 28 81 69 121 28 b 338 250 283 28 338 100 b 338 283 338 260 339 268 b 200 179 322 221 274 179 b 46 336 106 179 46 247 b 206 494 46 425 104 494 b 375 251 307 494 375 421 b 196 -7 375 79 303 -7 "},"₊":{"ha":417,"x_min":0,"x_max":0,"o":"m 193 228 l 42 228 l 42 260 l 193 260 l 193 411 l 225 411 l 225 260 l 375 260 l 375 228 l 225 228 l 225 76 l 193 76 "},"₋":{"ha":417,"x_min":0,"x_max":0,"o":"m 42 228 l 42 260 l 375 260 l 375 228 "},"₌":{"ha":417,"x_min":0,"x_max":0,"o":"m 42 163 l 42 194 l 375 194 l 375 163 m 42 293 l 42 325 l 375 325 l 375 293 "},"₍":{"ha":243,"x_min":0,"x_max":0,"o":"m 46 243 b 174 531 46 408 140 500 l 197 506 b 81 243 165 478 81 388 b 197 -19 81 100 165 10 l 174 -43 b 46 243 140 -12 46 79 "},"₎":{"ha":243,"x_min":0,"x_max":0,"o":"m 197 243 b 68 -43 197 79 103 -12 l 46 -19 b 163 243 78 10 163 100 b 46 506 163 388 78 478 l 68 531 b 197 243 103 500 197 408 "},"⁄":{"ha":208,"x_min":0,"x_max":0,"o":"m -292 0 l 458 1083 l 500 1083 l -250 0 "},"⁰":{"ha":417,"x_min":0,"x_max":0,"o":"m 82 840 b 208 624 82 708 125 624 b 335 840 293 624 335 708 b 208 1056 335 971 293 1056 b 82 840 124 1056 82 971 m 372 840 b 208 590 372 693 319 590 b 46 840 99 590 46 693 b 208 1090 46 986 99 1090 b 372 840 319 1090 372 986 "},"¹":{"ha":417,"x_min":0,"x_max":0,"o":"m 363 596 l 49 596 l 49 629 l 190 629 l 190 1033 b 43 939 190 1033 139 964 l 43 974 b 200 1090 140 1000 200 1090 l 228 1090 l 228 629 l 363 629 "},"²":{"ha":417,"x_min":0,"x_max":0,"o":"m 38 621 b 243 768 38 621 172 699 b 332 938 306 831 332 881 b 208 1056 332 1003 288 1056 b 83 931 129 1056 88 1010 l 47 931 b 208 1090 53 1026 101 1090 b 369 939 307 1090 369 1024 b 264 747 369 868 335 815 b 101 629 204 690 121 640 l 381 629 l 381 596 l 38 596 "},"³":{"ha":417,"x_min":0,"x_max":0,"o":"m 211 590 b 43 749 104 590 49 650 l 79 749 b 211 624 83 665 131 624 b 335 729 297 624 335 674 b 210 832 335 794 293 832 l 147 832 l 147 864 l 210 864 b 322 960 282 864 322 900 b 210 1056 322 1017 279 1056 b 89 931 133 1056 93 1014 l 53 931 b 210 1090 57 1028 108 1090 b 358 963 300 1090 358 1038 b 269 849 358 893 313 858 b 372 726 321 840 372 806 b 211 590 372 653 318 590 "},"⁴":{"ha":417,"x_min":0,"x_max":0,"o":"m 311 928 l 311 750 l 379 750 l 379 715 l 311 715 l 311 596 l 275 596 l 275 715 l 38 715 l 38 740 b 208 1083 136 833 189 946 l 243 1083 b 83 749 225 944 169 824 l 275 750 l 275 928 "},"⁵":{"ha":417,"x_min":0,"x_max":0,"o":"m 210 590 b 43 749 103 589 47 650 l 79 749 b 210 624 82 665 131 624 b 336 751 293 624 336 681 b 211 883 336 822 293 883 b 92 814 154 883 113 854 l 60 825 l 72 1083 l 353 1083 l 356 1050 l 107 1050 l 99 864 b 218 915 121 893 160 915 b 374 751 315 915 374 840 b 210 590 374 664 317 590 "},"⁶":{"ha":417,"x_min":0,"x_max":0,"o":"m 338 747 b 215 871 338 819 292 871 b 93 747 139 871 93 819 b 215 624 93 675 139 624 b 338 747 292 624 338 675 m 218 1090 b 372 931 317 1090 368 1029 l 336 931 b 218 1056 332 1014 293 1056 b 82 833 135 1056 82 983 b 83 800 82 825 82 815 b 219 904 99 863 147 904 b 375 747 315 904 375 836 b 215 590 375 658 317 590 b 46 832 113 590 46 663 b 218 1090 46 1004 114 1090 "},"⁷":{"ha":417,"x_min":0,"x_max":0,"o":"m 163 596 b 338 1050 163 796 246 968 l 69 1050 l 69 931 l 38 931 l 38 1083 l 388 1083 l 388 1058 b 199 596 271 953 199 790 "},"⁸":{"ha":417,"x_min":0,"x_max":0,"o":"m 208 864 b 317 960 281 864 317 906 b 208 1056 317 1015 278 1056 b 100 960 139 1056 100 1015 b 208 864 100 906 138 864 m 208 624 b 331 728 292 624 331 672 b 208 832 331 783 293 832 b 86 726 125 832 86 783 b 208 624 86 672 126 624 m 208 590 b 50 725 103 590 50 653 b 146 849 50 800 103 838 b 64 963 107 860 64 899 b 208 1090 64 1036 118 1090 b 354 963 299 1090 354 1036 b 271 849 354 899 311 860 b 368 725 315 838 368 800 b 208 590 368 653 315 590 "},"⁹":{"ha":417,"x_min":0,"x_max":0,"o":"m 83 932 b 206 808 83 860 129 808 b 328 932 281 808 328 860 b 206 1056 328 1004 281 1056 b 83 932 129 1056 83 1004 m 196 590 b 42 749 99 589 46 650 l 78 749 b 196 624 81 665 121 624 b 338 846 283 624 338 696 b 338 879 338 856 339 864 b 200 775 322 817 274 775 b 46 932 106 775 46 843 b 206 1090 46 1021 104 1090 b 375 847 307 1090 375 1017 b 196 590 375 675 303 590 "},"⁺":{"ha":417,"x_min":0,"x_max":0,"o":"m 193 824 l 42 824 l 42 856 l 193 856 l 193 1007 l 225 1007 l 225 856 l 375 856 l 375 824 l 225 824 l 225 672 l 193 672 "},"⁻":{"ha":417,"x_min":0,"x_max":0,"o":"m 42 824 l 42 856 l 375 856 l 375 824 "},"⁼":{"ha":417,"x_min":0,"x_max":0,"o":"m 42 758 l 42 790 l 375 790 l 375 758 m 42 889 l 42 921 l 375 921 l 375 889 "},"⁽":{"ha":243,"x_min":0,"x_max":0,"o":"m 46 839 b 174 1126 46 1004 140 1096 l 197 1101 b 81 839 165 1074 81 983 b 197 576 81 696 165 606 l 174 553 b 46 839 140 583 46 675 "},"⁾":{"ha":243,"x_min":0,"x_max":0,"o":"m 197 839 b 68 553 197 675 103 583 l 46 576 b 163 839 78 606 163 696 b 46 1101 163 983 78 1074 l 68 1126 b 197 839 103 1096 197 1004 "},"ª":{"ha":511,"x_min":0,"x_max":0,"o":"m 449 313 l 60 313 l 60 358 l 449 358 m 61 925 b 251 1096 65 1011 122 1096 b 449 906 383 1096 449 1017 l 449 583 l 408 583 l 408 718 b 201 572 393 649 321 572 b 44 711 107 572 44 631 b 197 861 44 803 106 846 l 400 896 l 400 911 b 253 1056 400 994 354 1056 b 111 925 151 1056 114 992 m 97 714 b 211 611 97 647 143 611 b 400 806 317 611 400 679 l 400 858 l 210 826 b 97 714 132 813 97 776 "},"º":{"ha":586,"x_min":0,"x_max":0,"o":"m 88 833 b 293 615 88 694 179 615 b 500 833 407 615 500 694 b 293 1053 500 974 407 1053 b 88 833 179 1053 88 974 m 550 833 b 293 571 550 668 436 571 b 36 833 151 571 36 668 b 293 1097 36 999 151 1097 b 550 833 436 1097 550 999 m 524 313 l 63 313 l 63 358 l 524 358 "},"₱":{"ha":903,"x_min":0,"x_max":0,"o":"m 249 0 l 194 0 l 194 631 l 56 631 l 56 678 l 194 678 l 194 833 l 56 833 l 56 881 l 194 881 l 194 1083 l 390 1083 b 728 881 540 1083 681 1033 l 847 881 l 847 833 l 739 833 b 746 756 743 810 746 783 b 739 678 746 726 743 701 l 847 678 l 847 631 l 728 631 b 390 428 681 478 540 428 l 249 428 m 692 756 b 685 833 692 783 689 810 l 249 833 l 249 678 l 685 678 b 692 756 689 701 692 726 m 249 881 l 671 881 b 401 1036 628 996 521 1036 l 249 1036 m 401 475 b 671 631 521 475 628 514 l 249 631 l 249 475 "},"฿":{"ha":903,"x_min":0,"x_max":0,"o":"m 428 140 l 125 140 l 125 943 l 428 943 l 428 1083 l 475 1083 l 475 943 l 542 943 b 783 738 686 943 783 882 b 647 558 783 615 699 572 b 813 361 725 546 813 496 b 554 140 813 211 722 140 l 475 140 l 475 0 l 428 0 m 428 188 l 428 531 l 179 531 l 179 188 m 475 531 l 475 188 l 558 188 b 757 361 664 188 757 229 b 558 531 757 496 642 531 m 179 578 l 428 578 l 428 896 l 179 896 m 475 896 l 475 578 l 543 578 b 728 738 644 578 728 625 b 553 896 728 847 650 896 "},"₩":{"ha":1319,"x_min":0,"x_max":0,"o":"m 56 667 l 151 667 l 56 1083 l 111 1083 l 206 667 l 507 667 l 633 1083 l 686 1083 l 813 667 l 1113 667 l 1208 1083 l 1264 1083 l 1167 667 l 1264 667 l 1264 619 l 1156 619 l 1119 464 l 1264 464 l 1264 417 l 1108 417 l 1013 0 l 961 0 l 835 417 l 483 417 l 358 0 l 307 0 l 210 417 l 56 417 l 56 464 l 199 464 l 163 619 l 56 619 m 497 464 l 821 464 l 774 619 l 544 619 m 251 464 l 444 464 l 492 619 l 217 619 m 874 464 l 1067 464 l 1103 619 l 826 619 m 558 667 l 760 667 l 660 1000 m 985 100 l 1057 417 l 889 417 m 335 100 l 431 417 l 263 417 "},"₨":{"ha":903,"x_min":0,"x_max":0,"o":"m 847 1083 l 847 1036 l 551 1036 b 717 779 640 993 710 913 l 847 779 l 847 732 l 717 732 b 411 431 706 532 556 446 l 718 0 l 657 0 l 338 451 l 338 475 l 372 475 b 663 732 504 475 651 547 l 56 732 l 56 779 l 663 779 b 372 1036 651 963 504 1036 l 56 1036 l 56 1083 "},"₼":{"ha":903,"x_min":0,"x_max":0,"o":"m 492 0 l 438 0 l 438 904 b 144 569 258 888 144 776 l 144 0 l 90 0 l 90 569 b 438 954 90 807 226 938 l 438 1083 l 492 1083 l 492 954 b 839 569 703 938 839 807 l 839 0 l 785 0 l 785 569 b 492 904 785 776 671 888 "},"₴":{"ha":903,"x_min":0,"x_max":0,"o":"m 456 1049 b 236 858 290 1049 246 946 l 182 858 b 456 1097 189 961 243 1097 b 717 838 610 1097 717 1003 b 647 667 717 765 689 710 l 847 667 l 847 619 l 592 619 b 324 464 511 560 404 518 l 847 464 l 847 417 l 265 417 b 201 268 226 378 201 331 b 449 35 201 119 293 35 b 699 247 631 35 692 138 l 756 247 b 449 -14 747 118 676 -14 b 146 267 267 -14 146 97 b 194 417 146 328 164 376 l 56 417 l 56 464 l 238 464 b 494 619 308 528 410 569 l 56 619 l 56 667 l 567 667 b 661 838 622 710 661 763 b 456 1049 661 994 542 1049 "},"₲":{"ha":903,"x_min":0,"x_max":0,"o":"m 479 1278 l 479 1097 b 818 783 693 1097 813 960 l 765 783 b 479 1049 757 942 649 1049 l 479 35 b 764 139 619 35 722 90 l 764 417 l 611 417 l 611 464 l 818 464 l 818 119 b 479 -14 749 47 635 -14 l 479 -194 l 425 -194 l 425 -10 b 75 542 197 14 75 203 b 425 1093 75 878 208 1067 l 425 1278 m 129 542 b 425 38 129 236 229 64 l 425 1044 b 129 542 240 1017 129 844 "},"₭":{"ha":903,"x_min":0,"x_max":0,"o":"m 56 565 l 194 565 l 194 1083 l 249 1083 l 249 565 l 301 565 l 713 1083 l 775 1083 l 363 565 l 847 565 l 847 518 l 376 518 l 788 0 l 724 0 l 313 518 l 249 518 l 249 0 l 194 0 l 194 518 l 56 518 "},"₫":{"ha":903,"x_min":0,"x_max":0,"o":"m 351 810 b 604 644 496 810 575 714 l 604 896 l 353 896 l 353 938 l 604 938 l 604 1083 l 657 1083 l 657 938 l 842 938 l 842 896 l 657 896 l 657 206 l 614 206 l 614 388 b 351 193 594 300 508 193 b 63 501 199 193 63 308 b 351 810 63 694 199 810 m 842 42 l 842 0 l 61 0 l 61 42 m 604 501 b 361 763 604 661 492 763 b 115 501 235 763 115 661 b 361 240 115 342 235 240 b 604 501 492 240 604 340 "},"₢":{"ha":903,"x_min":0,"x_max":0,"o":"m 508 1049 b 138 542 288 1049 138 868 b 440 40 138 250 257 75 l 440 667 l 485 667 l 485 518 b 668 681 514 633 589 681 b 843 465 776 681 838 597 l 793 465 b 661 632 786 560 753 632 b 493 414 557 632 493 506 l 493 35 l 508 35 b 792 300 656 35 785 126 l 843 300 b 508 -14 838 106 697 -14 b 83 542 254 -14 83 189 b 508 1097 83 894 254 1097 b 843 783 697 1097 838 978 l 792 783 b 508 1049 785 957 656 1049 "},"ţ":{"ha":522,"x_min":0,"x_max":0,"o":"m 240 689 l 240 138 b 329 32 240 75 272 32 b 415 113 386 32 415 76 l 464 113 b 331 -14 460 44 411 -14 b 188 132 244 -14 188 49 l 188 689 l 49 689 l 49 736 l 188 736 l 188 924 l 240 924 l 240 736 l 469 736 l 469 689 m 179 -211 b 292 -246 200 -225 239 -246 b 388 -172 349 -246 388 -219 b 258 -75 388 -117 322 -89 l 278 -36 b 436 -174 344 -51 436 -85 b 290 -292 436 -244 381 -292 b 160 -250 233 -292 183 -267 "},"Ţ":{"ha":847,"x_min":0,"x_max":0,"o":"m 451 0 l 396 0 l 396 1033 l 28 1033 l 28 1083 l 819 1083 l 819 1033 l 451 1033 m 304 -211 b 417 -246 325 -225 364 -246 b 513 -172 474 -246 513 -219 b 383 -75 513 -117 447 -89 l 403 -36 b 561 -174 469 -51 561 -85 b 415 -292 561 -244 506 -292 b 285 -250 358 -292 308 -267 "},"≡":{"ha":903,"x_min":0,"x_max":0,"o":"m 83 796 l 83 843 l 819 843 l 819 796 m 83 240 l 83 288 l 819 288 l 819 240 m 83 518 l 83 565 l 819 565 l 819 518 "},"¤":{"ha":903,"x_min":0,"x_max":0,"o":"m 675 285 b 451 201 615 232 536 201 b 228 285 365 201 288 232 l 96 153 l 63 186 l 194 318 b 111 542 142 378 111 456 b 194 765 111 626 142 706 l 63 897 l 96 931 l 228 799 b 451 882 288 850 365 882 b 675 799 536 882 615 850 l 807 931 l 840 897 l 708 765 b 792 542 760 706 792 626 b 708 318 792 456 760 378 l 840 186 l 807 153 m 160 542 b 451 250 160 381 290 250 b 743 542 613 250 743 381 b 451 833 743 703 613 833 b 160 542 290 833 160 703 "},"℮":{"ha":1181,"x_min":0,"x_max":0,"o":"m 186 524 b 622 24 193 267 294 24 b 1069 368 858 24 1051 143 l 1110 368 b 613 -12 1094 133 892 -12 b 49 542 271 -12 49 210 b 590 1096 49 874 271 1096 b 1131 542 910 1096 1131 874 l 1131 524 m 590 1058 b 186 560 308 1058 193 886 l 993 560 b 590 1058 986 886 871 1058 "},"←":{"ha":1194,"x_min":0,"x_max":0,"o":"m 132 565 l 1139 565 l 1139 518 l 132 518 l 631 19 l 597 -14 l 42 542 l 597 1097 l 631 1064 "},"→":{"ha":1194,"x_min":0,"x_max":0,"o":"m 564 19 l 1063 518 l 56 518 l 56 565 l 1063 565 l 564 1064 l 597 1097 l 1153 542 l 597 -14 "},"↑":{"ha":1194,"x_min":0,"x_max":0,"o":"m 621 1007 l 621 0 l 574 0 l 574 1007 l 75 508 l 42 542 l 597 1097 l 1153 542 l 1119 508 "},"↓":{"ha":1194,"x_min":0,"x_max":0,"o":"m 75 575 l 574 76 l 574 1083 l 621 1083 l 621 76 l 1119 575 l 1153 542 l 597 -14 l 42 542 "},"↖":{"ha":1194,"x_min":0,"x_max":0,"o":"m 103 1003 l 103 0 l 56 0 l 56 1083 l 1139 1083 l 1139 1036 l 136 1036 l 1153 19 l 1119 -14 "},"↗":{"ha":1194,"x_min":0,"x_max":0,"o":"m 1092 0 l 1092 1003 l 75 -14 l 42 19 l 1058 1036 l 56 1036 l 56 1083 l 1139 1083 l 1139 0 "},"↘":{"ha":1194,"x_min":0,"x_max":0,"o":"m 103 81 l 1119 1097 l 1153 1064 l 136 47 l 1139 47 l 1139 0 l 56 0 l 56 1083 l 103 1083 "},"↙":{"ha":1194,"x_min":0,"x_max":0,"o":"m 1092 81 l 1092 1083 l 1139 1083 l 1139 0 l 56 0 l 56 47 l 1058 47 l 42 1064 l 75 1097 "},"○":{"ha":1361,"x_min":0,"x_max":0,"o":"m 125 542 b 681 1097 125 849 374 1097 b 1236 542 988 1097 1236 849 b 681 -14 1236 235 988 -14 b 125 542 374 -14 125 235 m 174 542 b 681 35 174 263 401 35 b 1188 542 960 35 1188 263 b 681 1049 1188 821 960 1049 b 174 542 401 1049 174 821 "},"◯":{"ha":1361,"x_min":0,"x_max":0,"o":"m 125 542 b 681 -14 125 235 374 -14 b 1236 542 988 -14 1236 235 b 681 1097 1236 849 988 1097 b 125 542 374 1097 125 849 m 174 542 b 681 1049 174 821 401 1049 b 1188 542 960 1049 1188 821 b 681 35 1188 263 960 35 b 174 542 401 35 174 263 "},"●":{"ha":1361,"x_min":0,"x_max":0,"o":"m 125 542 b 681 1097 125 849 374 1097 b 1236 542 988 1097 1236 849 b 681 -14 1236 235 988 -14 b 125 542 374 -14 125 235 "},"⚪":{"ha":1014,"x_min":0,"x_max":0,"o":"m 507 -14 b 125 368 296 -14 125 157 b 507 750 125 579 296 750 b 889 368 718 750 889 579 b 507 -14 889 157 718 -14 m 174 368 b 507 35 174 185 324 35 b 840 368 690 35 840 185 b 507 701 840 551 690 701 b 174 368 324 701 174 551 "},"⚫":{"ha":1014,"x_min":0,"x_max":0,"o":"m 125 368 b 507 750 125 579 296 750 b 889 368 718 750 889 579 b 507 -14 889 157 718 -14 b 125 368 296 -14 125 157 "},"■":{"ha":1361,"x_min":0,"x_max":0,"o":"m 1222 0 l 139 0 l 139 1083 l 1222 1083 "},"□":{"ha":1361,"x_min":0,"x_max":0,"o":"m 139 1083 l 1222 1083 l 1222 0 l 139 0 m 186 1036 l 186 47 l 1175 47 l 1175 1036 "},"⊠":{"ha":1361,"x_min":0,"x_max":0,"o":"m 139 1083 l 1222 1083 l 1222 0 l 139 0 m 186 1036 l 186 47 l 1175 47 l 1175 1036 m 681 507 l 325 151 l 290 186 l 646 542 l 290 897 l 325 932 l 681 576 l 1036 932 l 1071 897 l 715 542 l 1071 186 l 1036 151 "},"▪":{"ha":1014,"x_min":0,"x_max":0,"o":"m 875 0 l 139 0 l 139 736 l 875 736 "},"▫":{"ha":1014,"x_min":0,"x_max":0,"o":"m 139 736 l 875 736 l 875 0 l 139 0 m 186 689 l 186 47 l 828 47 l 828 689 "},"☒":{"ha":1014,"x_min":0,"x_max":0,"o":"m 139 736 l 875 736 l 875 0 l 139 0 m 186 689 l 186 47 l 828 47 l 828 689 m 283 110 l 249 144 l 472 368 l 249 592 l 283 626 l 507 403 l 731 626 l 765 592 l 542 368 l 765 144 l 731 110 l 507 333 "},"▲":{"ha":1194,"x_min":0,"x_max":0,"o":"m 597 988 l 1167 0 l 28 0 "},"▼":{"ha":1194,"x_min":0,"x_max":0,"o":"m 28 1083 l 1167 1083 l 597 96 "},"◄":{"ha":1194,"x_min":0,"x_max":0,"o":"m 1056 1111 l 1056 -28 l 69 542 "},"►":{"ha":1194,"x_min":0,"x_max":0,"o":"m 1125 542 l 139 -28 l 139 1111 "},"◤":{"ha":1194,"x_min":0,"x_max":0,"o":"m 28 1101 l 1128 806 l 322 0 "},"◥":{"ha":1194,"x_min":0,"x_max":0,"o":"m 833 0 l 28 806 l 1128 1101 "},"◢":{"ha":1194,"x_min":0,"x_max":0,"o":"m 1128 -14 l 28 282 l 833 1088 "},"◣":{"ha":1194,"x_min":0,"x_max":0,"o":"m 322 1088 l 1128 282 l 28 -14 "},"★":{"ha":1361,"x_min":0,"x_max":0,"o":"m 319 -14 l 457 413 l 96 675 l 543 675 l 681 1100 l 818 675 l 1265 675 l 904 413 l 1042 -14 l 681 250 "},"☾":{"ha":1361,"x_min":0,"x_max":0,"o":"m 431 542 b 881 72 431 282 632 72 b 1014 93 942 72 982 81 b 681 -14 919 26 803 -14 b 125 542 374 -14 125 235 b 681 1097 125 849 374 1097 b 1014 990 803 1097 919 1057 b 881 1011 982 1003 942 1011 b 431 542 632 1011 431 801 "},"♼":{"ha":1361,"x_min":0,"x_max":0,"o":"m 1236 540 b 682 -14 1236 233 989 -14 b 125 540 374 -14 125 233 b 682 1097 125 849 374 1097 b 1236 540 989 1097 1236 849 m 364 256 b 353 315 364 256 353 282 b 367 374 353 336 357 357 l 444 508 l 490 482 l 424 661 l 236 629 l 282 603 l 251 549 b 235 496 240 529 235 517 b 258 436 235 476 244 458 l 363 256 m 376 765 l 540 674 l 664 889 b 549 942 647 917 599 942 b 449 892 501 942 464 917 m 639 167 l 639 353 l 389 353 b 378 304 383 340 378 324 b 493 167 378 251 418 167 m 1088 410 b 985 353 1088 410 1044 353 l 828 353 l 828 406 l 707 258 l 828 113 l 828 165 l 890 165 b 985 228 943 165 963 190 l 1089 408 m 1026 693 l 867 597 l 990 383 b 1110 518 1035 383 1110 442 b 1100 568 1110 539 1106 558 m 592 960 b 693 899 592 960 663 951 l 771 764 l 724 738 l 913 706 l 978 883 l 932 857 l 900 911 b 799 961 875 956 842 961 l 592 961 "},"♽":{"ha":1361,"x_min":0,"x_max":0,"o":"m 153 542 b 681 14 153 250 389 14 b 1208 542 972 14 1208 250 b 681 1069 1208 833 972 1069 b 153 542 389 1069 153 833 m 1236 540 b 682 -14 1236 233 989 -14 b 125 540 374 -14 125 233 b 682 1097 125 849 374 1097 b 1236 540 989 1097 1236 849 m 363 256 l 258 436 b 235 496 244 458 235 476 b 251 549 235 517 240 529 l 282 603 l 236 629 l 424 661 l 490 482 l 444 508 l 367 374 b 353 315 357 357 353 336 b 364 256 353 282 364 256 m 449 892 b 549 942 464 917 501 942 b 664 889 599 942 647 917 l 540 674 l 376 765 m 493 167 b 378 304 418 167 378 251 b 389 353 378 324 383 340 l 639 353 l 639 167 m 1089 408 l 985 228 b 890 165 963 190 943 165 l 828 165 l 828 113 l 707 258 l 828 406 l 828 353 l 985 353 b 1088 410 1044 353 1088 410 m 1100 568 b 1110 518 1106 558 1110 539 b 990 383 1110 442 1035 383 l 867 597 l 1026 693 m 592 961 l 799 961 b 900 911 842 961 875 956 l 932 857 l 978 883 l 913 706 l 724 738 l 771 764 l 693 899 b 592 960 663 951 592 960 "},"⌂":{"ha":1361,"x_min":0,"x_max":0,"o":"m 139 0 l 139 706 l 681 1100 l 1222 706 l 1222 0 "},"♠":{"ha":1250,"x_min":0,"x_max":0,"o":"m 626 1097 b 950 778 672 1028 803 874 b 1178 464 1071 699 1178 608 b 933 222 1178 328 1069 222 b 656 446 796 222 703 331 l 651 444 b 765 0 667 257 696 139 l 485 0 b 599 444 554 139 583 257 l 594 446 b 317 222 547 331 454 222 b 72 464 181 222 72 328 b 300 778 72 608 179 699 b 624 1097 447 874 578 1028 l 626 1097 "},"♣":{"ha":1250,"x_min":0,"x_max":0,"o":"m 485 0 b 599 444 554 139 583 257 l 594 446 b 317 222 547 331 454 222 b 72 464 181 222 72 328 b 314 714 72 608 169 714 b 431 682 361 714 399 699 l 433 685 b 381 847 403 731 381 786 b 625 1097 381 985 485 1097 b 869 847 765 1097 869 985 b 817 685 869 786 847 731 l 819 682 b 936 714 851 699 889 714 b 1178 464 1081 714 1178 608 b 933 222 1178 328 1069 222 b 656 446 796 222 703 331 l 651 444 b 765 0 667 257 696 139 l 485 0 "},"♥":{"ha":1250,"x_min":0,"x_max":0,"o":"m 624 -14 b 300 393 578 56 447 226 b 72 811 204 501 72 667 b 338 1097 72 975 174 1097 b 622 879 510 1097 582 994 l 628 879 b 913 1097 668 994 740 1097 b 1178 811 1076 1097 1178 975 b 950 393 1178 667 1046 501 b 626 -14 803 226 672 56 "},"♦":{"ha":1250,"x_min":0,"x_max":0,"o":"m 1135 542 b 626 -14 938 388 750 182 l 624 -14 b 115 542 500 182 313 388 b 624 1097 313 696 500 901 l 626 1097 b 1135 542 750 901 938 696 "},"′":{"ha":250,"x_min":0,"x_max":0,"o":"m 179 1083 l 122 736 l 71 736 l 128 1083 "},"″":{"ha":417,"x_min":0,"x_max":0,"o":"m 179 1083 l 122 736 l 71 736 l 128 1083 m 346 1083 l 289 736 l 238 736 l 294 1083 "},"∂":{"ha":878,"x_min":0,"x_max":0,"o":"m 808 368 b 439 -14 808 133 643 -14 b 69 368 235 -14 69 133 b 439 750 69 603 235 750 b 703 636 546 750 639 708 b 111 1081 599 864 363 1021 l 122 1125 b 808 368 449 1051 808 793 m 439 35 b 756 368 611 35 756 158 b 439 701 756 578 611 701 b 122 368 267 701 122 578 b 439 35 122 158 267 35 "},"∫":{"ha":336,"x_min":0,"x_max":0,"o":"m 194 -153 b 46 -292 194 -229 136 -292 b -101 -167 -49 -292 -97 -226 l -49 -167 b 46 -243 -43 -203 -15 -243 b 142 -147 107 -243 142 -201 l 142 986 b 290 1125 142 1063 200 1125 b 438 1000 385 1125 433 1060 l 385 1000 b 290 1076 379 1036 351 1076 b 194 981 229 1076 194 1035 "},"√":{"ha":903,"x_min":0,"x_max":0,"o":"m 319 -14 l 258 -14 l 65 736 l 125 736 l 294 44 l 811 1083 l 874 1083 "},"∆":{"ha":1042,"x_min":0,"x_max":0,"o":"m 986 29 l 986 0 l 56 0 l 56 29 l 496 1083 l 546 1083 m 122 49 l 918 49 l 521 1010 "},"∏":{"ha":1042,"x_min":0,"x_max":0,"o":"m 814 0 l 760 0 l 760 1035 l 282 1035 l 282 0 l 228 0 l 228 1035 l 56 1035 l 56 1083 l 986 1083 l 986 1035 l 814 1035 "},"∑":{"ha":972,"x_min":0,"x_max":0,"o":"m 856 1083 l 856 1035 l 192 1035 l 681 567 l 681 529 l 179 49 l 868 49 l 868 0 l 104 0 l 104 43 l 632 547 l 117 1040 l 117 1083 "},"◊":{"ha":1042,"x_min":0,"x_max":0,"o":"m 926 542 l 521 1025 l 115 542 l 521 58 m 54 542 l 521 1097 l 988 542 l 521 -14 "},"∞":{"ha":1111,"x_min":0,"x_max":0,"o":"m 271 333 b 63 542 156 333 63 426 b 271 750 63 657 156 750 b 556 576 390 750 467 667 b 840 750 644 667 721 750 b 1049 542 956 750 1049 657 b 840 333 1049 426 956 333 b 556 507 721 333 644 417 b 271 333 467 417 390 333 m 271 701 b 111 542 183 701 111 629 b 271 382 111 454 183 382 b 521 542 364 382 439 458 b 271 701 439 624 364 701 m 840 382 b 1000 542 928 382 1000 454 b 840 701 1000 629 928 701 b 590 542 746 701 672 624 b 840 382 672 458 746 382 "},"☼":{"ha":1361,"x_min":0,"x_max":0,"o":"m 1008 499 l 1229 394 l 986 415 l 1174 258 l 943 340 l 1081 139 l 882 278 l 964 49 l 807 235 l 826 -8 l 724 213 l 681 -28 l 638 213 l 535 -8 l 554 235 l 397 49 l 479 278 l 281 139 l 418 340 l 188 258 l 375 415 l 132 394 l 353 499 l 113 542 l 353 585 l 132 689 l 375 668 l 188 825 l 418 743 l 281 944 l 479 806 l 397 1035 l 554 849 l 535 1092 l 638 871 l 681 1111 l 724 871 l 826 1092 l 807 849 l 964 1035 l 882 806 l 1081 944 l 943 743 l 1174 825 l 986 668 l 1229 689 l 1008 585 l 1249 542 "},"♻":{"ha":1361,"x_min":0,"x_max":0,"o":"m 269 172 l 135 406 b 106 482 118 435 106 457 b 126 551 106 510 113 526 l 167 621 l 107 654 l 349 696 l 435 465 l 375 499 l 275 325 b 257 250 263 303 257 276 b 271 172 257 207 271 172 m 381 993 b 510 1058 400 1026 449 1058 b 658 990 575 1058 638 1025 l 499 713 l 288 831 m 439 57 b 290 236 342 57 290 167 b 304 297 290 261 296 282 l 626 297 l 626 57 m 1207 369 l 1072 136 b 950 56 1044 88 1018 56 l 871 56 l 871 -12 l 714 176 l 871 365 l 871 297 l 1072 297 b 1206 371 1150 297 1206 371 m 1221 575 b 1235 511 1229 563 1235 538 b 1079 338 1235 413 1138 338 l 919 614 l 1126 738 m 565 1083 l 833 1083 b 964 1018 889 1083 931 1076 l 1004 949 l 1064 983 l 979 753 l 736 794 l 796 829 l 696 1003 b 565 1082 657 1071 565 1082 "},"♩":{"ha":667,"x_min":0,"x_max":0,"o":"m 514 186 b 256 -14 514 78 375 -14 b 111 114 163 -14 111 35 b 356 314 111 222 236 314 b 475 268 408 314 450 297 l 475 1167 l 514 1167 "},"♭":{"ha":667,"x_min":0,"x_max":0,"o":"m 111 1167 l 150 1167 l 150 561 b 372 750 183 676 275 750 b 585 518 508 750 585 644 b 111 -28 585 238 340 85 m 150 39 b 456 510 313 121 456 276 b 328 651 456 592 413 651 b 150 415 228 651 150 544 "},"♮":{"ha":667,"x_min":0,"x_max":0,"o":"m 556 -222 l 517 -222 l 517 256 l 111 97 l 111 1167 l 150 1167 l 150 689 l 556 847 m 150 258 l 517 401 l 517 686 l 150 543 "},"♯":{"ha":667,"x_min":0,"x_max":0,"o":"m 188 -222 l 188 126 l 83 86 l 83 233 l 188 274 l 188 557 l 83 517 l 83 664 l 188 704 l 188 1083 l 226 1083 l 226 719 l 440 803 l 440 1167 l 479 1167 l 479 818 l 583 858 l 583 711 l 479 671 l 479 388 l 583 428 l 583 281 l 479 240 l 479 -139 l 440 -139 l 440 225 l 226 142 l 226 -222 m 226 289 l 440 372 l 440 656 l 226 572 "},"ℓ":{"ha":528,"x_min":0,"x_max":0,"o":"m 181 297 b 35 176 135 256 86 215 l 35 240 b 181 364 88 279 136 321 l 181 958 b 329 1097 181 1035 239 1097 b 485 904 424 1097 485 1032 b 233 349 485 683 385 504 l 233 131 b 329 35 233 76 268 35 b 424 111 390 35 418 75 l 476 111 b 329 -14 472 51 424 -14 b 181 125 239 -14 181 49 m 233 418 b 432 904 357 557 432 715 b 329 1049 432 1003 390 1049 b 233 953 268 1049 233 1007 "},"№":{"ha":1656,"x_min":0,"x_max":0,"o":"m 867 69 l 864 444 l 864 1083 l 917 1083 l 917 0 l 847 0 l 189 1014 l 192 639 l 192 0 l 139 0 l 139 1083 l 208 1083 m 1356 631 b 1557 842 1465 631 1557 710 b 1356 1053 1557 974 1465 1053 b 1154 842 1246 1053 1154 974 b 1356 631 1154 710 1246 631 m 1572 318 l 1139 318 l 1139 365 l 1572 365 m 1356 586 b 1106 842 1218 586 1106 685 b 1356 1097 1106 999 1218 1097 b 1606 842 1493 1097 1606 999 b 1356 586 1606 685 1493 586 "},"⚜":{"ha":972,"x_min":0,"x_max":0,"o":"m 486 -14 b 435 90 449 11 435 54 b 365 160 396 90 365 121 b 451 250 407 160 451 194 l 264 250 l 264 319 l 340 319 b 257 444 340 401 304 444 b 188 375 218 444 188 414 b 215 319 188 343 206 326 b 63 472 131 319 63 386 b 215 625 63 557 131 625 b 403 319 350 625 403 481 l 451 319 b 333 813 451 590 333 665 b 486 1100 333 928 396 1014 b 639 813 576 1014 639 928 b 521 319 639 665 521 590 l 569 319 b 757 625 569 481 622 625 b 910 472 842 625 910 557 b 757 319 910 386 842 319 b 785 375 767 326 785 343 b 715 444 785 414 754 444 b 632 319 668 444 632 401 l 708 319 l 708 250 l 521 250 b 607 160 521 194 565 160 b 538 90 607 121 576 90 b 486 -14 538 54 524 11 "},"t":{"ha":522,"x_min":0,"x_max":0,"o":"m 240 689 l 240 138 b 329 32 240 75 272 32 b 415 113 386 32 415 76 l 464 113 b 331 -14 460 44 411 -14 b 188 132 244 -14 188 49 l 188 689 l 49 689 l 49 736 l 188 736 l 188 924 l 240 924 l 240 736 l 469 736 l 469 689 "},"⅟":{"ha":625,"x_min":0,"x_max":0,"o":"m 363 596 l 49 596 l 49 629 l 190 629 l 190 1033 b 43 939 190 1033 139 964 l 43 974 b 200 1090 140 1000 200 1090 l 228 1090 l 228 629 l 363 629 m 125 0 l 875 1083 l 917 1083 l 167 0 "},"½":{"ha":1042,"x_min":0,"x_max":0,"o":"m 363 596 l 49 596 l 49 629 l 190 629 l 190 1033 b 43 939 190 1033 139 964 l 43 974 b 200 1090 140 1000 200 1090 l 228 1090 l 228 629 l 363 629 m 125 0 l 875 1083 l 917 1083 l 167 0 m 663 25 b 868 172 663 25 797 103 b 957 342 931 235 957 285 b 833 460 957 407 913 460 b 708 335 754 460 713 414 l 672 335 b 833 494 678 431 726 494 b 994 343 932 494 994 428 b 889 151 994 272 960 219 b 726 33 829 94 746 44 l 1006 33 l 1006 0 l 663 0 "},"⅓":{"ha":1042,"x_min":0,"x_max":0,"o":"m 363 596 l 49 596 l 49 629 l 190 629 l 190 1033 b 43 939 190 1033 139 964 l 43 974 b 200 1090 140 1000 200 1090 l 228 1090 l 228 629 l 363 629 m 125 0 l 875 1083 l 917 1083 l 167 0 m 836 -7 b 668 153 729 -6 674 54 l 704 153 b 836 28 708 69 756 28 b 960 133 922 28 960 78 b 835 236 960 199 918 236 l 772 236 l 772 268 l 835 268 b 947 364 907 268 947 304 b 835 460 947 421 904 460 b 714 335 758 460 718 418 l 678 335 b 835 494 682 432 733 494 b 983 367 925 494 983 442 b 894 253 983 297 938 263 b 997 131 946 244 997 210 b 836 -7 997 57 943 -7 "},"⅔":{"ha":1042,"x_min":0,"x_max":0,"o":"m 38 621 b 243 768 38 621 172 699 b 332 938 306 831 332 881 b 208 1056 332 1003 288 1056 b 83 931 129 1056 88 1010 l 47 931 b 208 1090 53 1026 101 1090 b 369 939 307 1090 369 1024 b 264 747 369 868 335 815 b 101 629 204 690 121 640 l 381 629 l 381 596 l 38 596 m 125 0 l 875 1083 l 917 1083 l 167 0 m 836 -7 b 668 153 729 -6 674 54 l 704 153 b 836 28 708 69 756 28 b 960 133 922 28 960 78 b 835 236 960 199 918 236 l 772 236 l 772 268 l 835 268 b 947 364 907 268 947 304 b 835 460 947 421 904 460 b 714 335 758 460 718 418 l 678 335 b 835 494 682 432 733 494 b 983 367 925 494 983 442 b 894 253 983 297 938 263 b 997 131 946 244 997 210 b 836 -7 997 57 943 -7 "},"¼":{"ha":1042,"x_min":0,"x_max":0,"o":"m 363 596 l 49 596 l 49 629 l 190 629 l 190 1033 b 43 939 190 1033 139 964 l 43 974 b 200 1090 140 1000 200 1090 l 228 1090 l 228 629 l 363 629 m 125 0 l 875 1083 l 917 1083 l 167 0 m 936 332 l 936 154 l 1004 154 l 1004 119 l 936 119 l 936 0 l 900 0 l 900 119 l 663 119 l 663 144 b 833 488 761 238 814 350 l 868 488 b 708 153 850 349 794 228 l 900 154 l 900 332 "},"¾":{"ha":1042,"x_min":0,"x_max":0,"o":"m 211 590 b 43 749 104 590 49 650 l 79 749 b 211 624 83 665 131 624 b 335 729 297 624 335 674 b 210 832 335 794 293 832 l 147 832 l 147 864 l 210 864 b 322 960 282 864 322 900 b 210 1056 322 1017 279 1056 b 89 931 133 1056 93 1014 l 53 931 b 210 1090 57 1028 108 1090 b 358 963 300 1090 358 1038 b 269 849 358 893 313 858 b 372 726 321 840 372 806 b 211 590 372 653 318 590 m 125 0 l 875 1083 l 917 1083 l 167 0 m 936 332 l 936 154 l 1004 154 l 1004 119 l 936 119 l 936 0 l 900 0 l 900 119 l 663 119 l 663 144 b 833 488 761 238 814 350 l 868 488 b 708 153 850 349 794 228 l 900 154 l 900 332 "},"⅕":{"ha":1042,"x_min":0,"x_max":0,"o":"m 363 596 l 49 596 l 49 629 l 190 629 l 190 1033 b 43 939 190 1033 139 964 l 43 974 b 200 1090 140 1000 200 1090 l 228 1090 l 228 629 l 363 629 m 125 0 l 875 1083 l 917 1083 l 167 0 m 835 -7 b 668 153 728 -7 672 54 l 704 153 b 835 28 707 69 756 28 b 961 156 918 28 961 85 b 836 288 961 226 918 288 b 717 218 779 288 738 258 l 685 229 l 697 488 l 978 488 l 981 454 l 732 454 l 724 268 b 843 319 746 297 785 319 b 999 156 940 319 999 244 b 835 -7 999 68 942 -7 "},"⅖":{"ha":1042,"x_min":0,"x_max":0,"o":"m 38 621 b 243 768 38 621 172 699 b 332 938 306 831 332 881 b 208 1056 332 1003 288 1056 b 83 931 129 1056 88 1010 l 47 931 b 208 1090 53 1026 101 1090 b 369 939 307 1090 369 1024 b 264 747 369 868 335 815 b 101 629 204 690 121 640 l 381 629 l 381 596 l 38 596 m 125 0 l 875 1083 l 917 1083 l 167 0 m 835 -7 b 668 153 728 -7 672 54 l 704 153 b 835 28 707 69 756 28 b 961 156 918 28 961 85 b 836 288 961 226 918 288 b 717 218 779 288 738 258 l 685 229 l 697 488 l 978 488 l 981 454 l 732 454 l 724 268 b 843 319 746 297 785 319 b 999 156 940 319 999 244 b 835 -7 999 68 942 -7 "},"⅗":{"ha":1042,"x_min":0,"x_max":0,"o":"m 211 590 b 43 749 104 590 49 650 l 79 749 b 211 624 83 665 131 624 b 335 729 297 624 335 674 b 210 832 335 794 293 832 l 147 832 l 147 864 l 210 864 b 322 960 282 864 322 900 b 210 1056 322 1017 279 1056 b 89 931 133 1056 93 1014 l 53 931 b 210 1090 57 1028 108 1090 b 358 963 300 1090 358 1038 b 269 849 358 893 313 858 b 372 726 321 840 372 806 b 211 590 372 653 318 590 m 125 0 l 875 1083 l 917 1083 l 167 0 m 835 -7 b 668 153 728 -7 672 54 l 704 153 b 835 28 707 69 756 28 b 961 156 918 28 961 85 b 836 288 961 226 918 288 b 717 218 779 288 738 258 l 685 229 l 697 488 l 978 488 l 981 454 l 732 454 l 724 268 b 843 319 746 297 785 319 b 999 156 940 319 999 244 b 835 -7 999 68 942 -7 "},"⅘":{"ha":1042,"x_min":0,"x_max":0,"o":"m 311 928 l 311 750 l 379 750 l 379 715 l 311 715 l 311 596 l 275 596 l 275 715 l 38 715 l 38 740 b 208 1083 136 833 189 946 l 243 1083 b 83 749 225 944 169 824 l 275 750 l 275 928 m 125 0 l 875 1083 l 917 1083 l 167 0 m 835 -7 b 668 153 728 -7 672 54 l 704 153 b 835 28 707 69 756 28 b 961 156 918 28 961 85 b 836 288 961 226 918 288 b 717 218 779 288 738 258 l 685 229 l 697 488 l 978 488 l 981 454 l 732 454 l 724 268 b 843 319 746 297 785 319 b 999 156 940 319 999 244 b 835 -7 999 68 942 -7 "},"⅙":{"ha":1042,"x_min":0,"x_max":0,"o":"m 363 596 l 49 596 l 49 629 l 190 629 l 190 1033 b 43 939 190 1033 139 964 l 43 974 b 200 1090 140 1000 200 1090 l 228 1090 l 228 629 l 363 629 m 125 0 l 875 1083 l 917 1083 l 167 0 m 963 151 b 840 275 963 224 917 275 b 718 151 764 275 718 224 b 840 28 718 79 764 28 b 963 151 917 28 963 79 m 843 494 b 997 335 942 494 993 433 l 961 335 b 843 460 957 418 918 460 b 707 238 760 460 707 388 b 708 204 707 229 707 219 b 844 308 724 267 772 308 b 1000 151 940 308 1000 240 b 840 -7 1000 63 942 -7 b 671 236 738 -7 671 67 b 843 494 671 408 739 494 "},"⅚":{"ha":1042,"x_min":0,"x_max":0,"o":"m 210 590 b 43 749 103 589 47 650 l 79 749 b 210 624 82 665 131 624 b 336 751 293 624 336 681 b 211 883 336 822 293 883 b 92 814 154 883 113 854 l 60 825 l 72 1083 l 353 1083 l 356 1050 l 107 1050 l 99 864 b 218 915 121 893 160 915 b 374 751 315 915 374 840 b 210 590 374 664 317 590 m 125 0 l 875 1083 l 917 1083 l 167 0 m 963 151 b 840 275 963 224 917 275 b 718 151 764 275 718 224 b 840 28 718 79 764 28 b 963 151 917 28 963 79 m 843 494 b 997 335 942 494 993 433 l 961 335 b 843 460 957 418 918 460 b 707 238 760 460 707 388 b 708 204 707 229 707 219 b 844 308 724 267 772 308 b 1000 151 940 308 1000 240 b 840 -7 1000 63 942 -7 b 671 236 738 -7 671 67 b 843 494 671 408 739 494 "},"⅛":{"ha":1042,"x_min":0,"x_max":0,"o":"m 363 596 l 49 596 l 49 629 l 190 629 l 190 1033 b 43 939 190 1033 139 964 l 43 974 b 200 1090 140 1000 200 1090 l 228 1090 l 228 629 l 363 629 m 125 0 l 875 1083 l 917 1083 l 167 0 m 833 268 b 942 364 906 268 942 310 b 833 460 942 419 903 460 b 725 364 764 460 725 419 b 833 268 725 310 763 268 m 833 28 b 956 132 917 28 956 76 b 833 236 956 188 918 236 b 711 131 750 236 711 188 b 833 28 711 76 751 28 m 833 -7 b 675 129 728 -7 675 57 b 771 253 675 204 728 242 b 689 367 732 264 689 303 b 833 494 689 440 743 494 b 979 367 924 494 979 440 b 896 253 979 303 936 264 b 993 129 940 242 993 204 b 833 -7 993 57 940 -7 "},"⅜":{"ha":1042,"x_min":0,"x_max":0,"o":"m 211 590 b 43 749 104 590 49 650 l 79 749 b 211 624 83 665 131 624 b 335 729 297 624 335 674 b 210 832 335 794 293 832 l 147 832 l 147 864 l 210 864 b 322 960 282 864 322 900 b 210 1056 322 1017 279 1056 b 89 931 133 1056 93 1014 l 53 931 b 210 1090 57 1028 108 1090 b 358 963 300 1090 358 1038 b 269 849 358 893 313 858 b 372 726 321 840 372 806 b 211 590 372 653 318 590 m 125 0 l 875 1083 l 917 1083 l 167 0 m 833 268 b 942 364 906 268 942 310 b 833 460 942 419 903 460 b 725 364 764 460 725 419 b 833 268 725 310 763 268 m 833 28 b 956 132 917 28 956 76 b 833 236 956 188 918 236 b 711 131 750 236 711 188 b 833 28 711 76 751 28 m 833 -7 b 675 129 728 -7 675 57 b 771 253 675 204 728 242 b 689 367 732 264 689 303 b 833 494 689 440 743 494 b 979 367 924 494 979 440 b 896 253 979 303 936 264 b 993 129 940 242 993 204 b 833 -7 993 57 940 -7 "},"⅝":{"ha":1042,"x_min":0,"x_max":0,"o":"m 210 590 b 43 749 103 589 47 650 l 79 749 b 210 624 82 665 131 624 b 336 751 293 624 336 681 b 211 883 336 822 293 883 b 92 814 154 883 113 854 l 60 825 l 72 1083 l 353 1083 l 356 1050 l 107 1050 l 99 864 b 218 915 121 893 160 915 b 374 751 315 915 374 840 b 210 590 374 664 317 590 m 125 0 l 875 1083 l 917 1083 l 167 0 m 833 268 b 942 364 906 268 942 310 b 833 460 942 419 903 460 b 725 364 764 460 725 419 b 833 268 725 310 763 268 m 833 28 b 956 132 917 28 956 76 b 833 236 956 188 918 236 b 711 131 750 236 711 188 b 833 28 711 76 751 28 m 833 -7 b 675 129 728 -7 675 57 b 771 253 675 204 728 242 b 689 367 732 264 689 303 b 833 494 689 440 743 494 b 979 367 924 494 979 440 b 896 253 979 303 936 264 b 993 129 940 242 993 204 b 833 -7 993 57 940 -7 "},"⅞":{"ha":1042,"x_min":0,"x_max":0,"o":"m 163 596 b 338 1050 163 796 246 968 l 69 1050 l 69 931 l 38 931 l 38 1083 l 388 1083 l 388 1058 b 199 596 271 953 199 790 m 125 0 l 875 1083 l 917 1083 l 167 0 m 833 268 b 942 364 906 268 942 310 b 833 460 942 419 903 460 b 725 364 764 460 725 419 b 833 268 725 310 763 268 m 833 28 b 956 132 917 28 956 76 b 833 236 956 188 918 236 b 711 131 750 236 711 188 b 833 28 711 76 751 28 m 833 -7 b 675 129 728 -7 675 57 b 771 253 675 204 728 242 b 689 367 732 264 689 303 b 833 494 689 440 743 494 b 979 367 924 494 979 440 b 896 253 979 303 936 264 b 993 129 940 242 993 204 b 833 -7 993 57 940 -7 "},"ﬁ":{"ha":803,"x_min":0,"x_max":0,"o":"m 239 689 l 239 0 l 186 0 l 186 689 l 49 689 l 49 736 l 186 736 l 186 953 b 364 1124 186 1051 258 1124 b 532 972 471 1124 526 1050 l 485 972 b 365 1078 481 1024 443 1078 b 239 950 285 1078 239 1024 l 239 736 l 468 736 l 468 689 m 685 0 l 632 0 l 632 736 l 685 736 m 700 961 b 658 919 700 938 682 919 b 617 961 635 919 617 938 b 658 1003 617 985 635 1003 b 700 961 682 1003 700 985 "},"ﬂ":{"ha":803,"x_min":0,"x_max":0,"o":"m 239 689 l 239 0 l 186 0 l 186 689 l 49 689 l 49 736 l 186 736 l 186 953 b 364 1124 186 1051 258 1124 b 532 972 471 1124 526 1050 l 485 972 b 365 1078 481 1024 443 1078 b 239 950 285 1078 239 1024 l 239 736 l 468 736 l 468 689 m 632 1111 l 685 1111 l 685 0 l 632 0 "}}}
